<?xml version="1.0" encoding="utf-8"?>
<svg xmlns="http://www.w3.org/2000/svg" xmlns:xlink="http://www.w3.org/1999/xlink" width="600" height="400" viewBox="0 0 2400 1600">
<defs>
  <clipPath id="clip940">
    <rect x="0" y="0" width="2400" height="1600"/>
  </clipPath>
</defs>
<path clip-path="url(#clip940)" d="
M0 1600 L2400 1600 L2400 0 L0 0  Z
  " fill="#ffffff" fill-rule="evenodd" fill-opacity="1"/>
<defs>
  <clipPath id="clip941">
    <rect x="480" y="0" width="1681" height="1600"/>
  </clipPath>
</defs>
<path clip-path="url(#clip940)" d="
M220.19 1410.9 L2352.76 1410.9 L2352.76 47.2441 L220.19 47.2441  Z
  " fill="#ffffff" fill-rule="evenodd" fill-opacity="1"/>
<defs>
  <clipPath id="clip942">
    <rect x="220" y="47" width="2134" height="1365"/>
  </clipPath>
</defs>
<polyline clip-path="url(#clip942)" style="stroke:#000000; stroke-linecap:round; stroke-linejoin:round; stroke-width:2; stroke-opacity:0.1; fill:none" points="
  267.044,1410.9 267.044,47.2441 
  "/>
<polyline clip-path="url(#clip942)" style="stroke:#000000; stroke-linecap:round; stroke-linejoin:round; stroke-width:2; stroke-opacity:0.1; fill:none" points="
  942.162,1410.9 942.162,47.2441 
  "/>
<polyline clip-path="url(#clip942)" style="stroke:#000000; stroke-linecap:round; stroke-linejoin:round; stroke-width:2; stroke-opacity:0.1; fill:none" points="
  1617.28,1410.9 1617.28,47.2441 
  "/>
<polyline clip-path="url(#clip942)" style="stroke:#000000; stroke-linecap:round; stroke-linejoin:round; stroke-width:2; stroke-opacity:0.1; fill:none" points="
  2292.4,1410.9 2292.4,47.2441 
  "/>
<polyline clip-path="url(#clip940)" style="stroke:#000000; stroke-linecap:round; stroke-linejoin:round; stroke-width:4; stroke-opacity:1; fill:none" points="
  220.19,1410.9 2352.76,1410.9 
  "/>
<polyline clip-path="url(#clip940)" style="stroke:#000000; stroke-linecap:round; stroke-linejoin:round; stroke-width:4; stroke-opacity:1; fill:none" points="
  267.044,1410.9 267.044,1392 
  "/>
<polyline clip-path="url(#clip940)" style="stroke:#000000; stroke-linecap:round; stroke-linejoin:round; stroke-width:4; stroke-opacity:1; fill:none" points="
  942.162,1410.9 942.162,1392 
  "/>
<polyline clip-path="url(#clip940)" style="stroke:#000000; stroke-linecap:round; stroke-linejoin:round; stroke-width:4; stroke-opacity:1; fill:none" points="
  1617.28,1410.9 1617.28,1392 
  "/>
<polyline clip-path="url(#clip940)" style="stroke:#000000; stroke-linecap:round; stroke-linejoin:round; stroke-width:4; stroke-opacity:1; fill:none" points="
  2292.4,1410.9 2292.4,1392 
  "/>
<path clip-path="url(#clip940)" d="M267.044 1441.82 Q263.432 1441.82 261.604 1445.38 Q259.798 1448.92 259.798 1456.05 Q259.798 1463.16 261.604 1466.72 Q263.432 1470.26 267.044 1470.26 Q270.678 1470.26 272.483 1466.72 Q274.312 1463.16 274.312 1456.05 Q274.312 1448.92 272.483 1445.38 Q270.678 1441.82 267.044 1441.82 M267.044 1438.11 Q272.854 1438.11 275.909 1442.72 Q278.988 1447.3 278.988 1456.05 Q278.988 1464.78 275.909 1469.38 Q272.854 1473.97 267.044 1473.97 Q261.233 1473.97 258.155 1469.38 Q255.099 1464.78 255.099 1456.05 Q255.099 1447.3 258.155 1442.72 Q261.233 1438.11 267.044 1438.11 Z" fill="#000000" fill-rule="evenodd" fill-opacity="1" /><path clip-path="url(#clip940)" d="M835.139 1454.4 L853.495 1454.4 L853.495 1458.33 L839.421 1458.33 L839.421 1466.8 Q840.44 1466.46 841.458 1466.29 Q842.477 1466.11 843.495 1466.11 Q849.282 1466.11 852.662 1469.28 Q856.042 1472.45 856.042 1477.87 Q856.042 1483.45 852.57 1486.55 Q849.097 1489.63 842.778 1489.63 Q840.602 1489.63 838.333 1489.26 Q836.088 1488.89 833.681 1488.15 L833.681 1483.45 Q835.764 1484.58 837.986 1485.14 Q840.208 1485.69 842.685 1485.69 Q846.69 1485.69 849.028 1483.59 Q851.366 1481.48 851.366 1477.87 Q851.366 1474.26 849.028 1472.15 Q846.69 1470.04 842.685 1470.04 Q840.81 1470.04 838.935 1470.46 Q837.083 1470.88 835.139 1471.76 L835.139 1454.4 Z" fill="#000000" fill-rule="evenodd" fill-opacity="1" /><path clip-path="url(#clip940)" d="M865.255 1483.08 L870.139 1483.08 L870.139 1488.96 L865.255 1488.96 L865.255 1483.08 Z" fill="#000000" fill-rule="evenodd" fill-opacity="1" /><path clip-path="url(#clip940)" d="M890.324 1457.48 Q886.713 1457.48 884.884 1461.04 Q883.079 1464.58 883.079 1471.71 Q883.079 1478.82 884.884 1482.38 Q886.713 1485.92 890.324 1485.92 Q893.958 1485.92 895.764 1482.38 Q897.592 1478.82 897.592 1471.71 Q897.592 1464.58 895.764 1461.04 Q893.958 1457.48 890.324 1457.48 M890.324 1453.77 Q896.134 1453.77 899.19 1458.38 Q902.268 1462.96 902.268 1471.71 Q902.268 1480.44 899.19 1485.04 Q896.134 1489.63 890.324 1489.63 Q884.514 1489.63 881.435 1485.04 Q878.38 1480.44 878.38 1471.71 Q878.38 1462.96 881.435 1458.38 Q884.514 1453.77 890.324 1453.77 Z" fill="#000000" fill-rule="evenodd" fill-opacity="1" /><path clip-path="url(#clip940)" d="M920.486 1457.48 Q916.875 1457.48 915.046 1461.04 Q913.24 1464.58 913.24 1471.71 Q913.24 1478.82 915.046 1482.38 Q916.875 1485.92 920.486 1485.92 Q924.12 1485.92 925.926 1482.38 Q927.754 1478.82 927.754 1471.71 Q927.754 1464.58 925.926 1461.04 Q924.12 1457.48 920.486 1457.48 M920.486 1453.77 Q926.296 1453.77 929.352 1458.38 Q932.43 1462.96 932.43 1471.71 Q932.43 1480.44 929.352 1485.04 Q926.296 1489.63 920.486 1489.63 Q914.676 1489.63 911.597 1485.04 Q908.541 1480.44 908.541 1471.71 Q908.541 1462.96 911.597 1458.38 Q914.676 1453.77 920.486 1453.77 Z" fill="#000000" fill-rule="evenodd" fill-opacity="1" /><path clip-path="url(#clip940)" d="M968.819 1463.49 L958.24 1474.12 L968.819 1484.7 L966.064 1487.5 L955.439 1476.87 L944.814 1487.5 L942.083 1484.7 L952.638 1474.12 L942.083 1463.49 L944.814 1460.69 L955.439 1471.32 L966.064 1460.69 L968.819 1463.49 Z" fill="#000000" fill-rule="evenodd" fill-opacity="1" /><path clip-path="url(#clip940)" d="M981.18 1485.02 L988.819 1485.02 L988.819 1458.66 L980.509 1460.32 L980.509 1456.06 L988.772 1454.4 L993.448 1454.4 L993.448 1485.02 L1001.09 1485.02 L1001.09 1488.96 L981.18 1488.96 L981.18 1485.02 Z" fill="#000000" fill-rule="evenodd" fill-opacity="1" /><path clip-path="url(#clip940)" d="M1020.53 1457.48 Q1016.92 1457.48 1015.09 1461.04 Q1013.29 1464.58 1013.29 1471.71 Q1013.29 1478.82 1015.09 1482.38 Q1016.92 1485.92 1020.53 1485.92 Q1024.17 1485.92 1025.97 1482.38 Q1027.8 1478.82 1027.8 1471.71 Q1027.8 1464.58 1025.97 1461.04 Q1024.17 1457.48 1020.53 1457.48 M1020.53 1453.77 Q1026.34 1453.77 1029.4 1458.38 Q1032.48 1462.96 1032.48 1471.71 Q1032.48 1480.44 1029.4 1485.04 Q1026.34 1489.63 1020.53 1489.63 Q1014.72 1489.63 1011.64 1485.04 Q1008.59 1480.44 1008.59 1471.71 Q1008.59 1462.96 1011.64 1458.38 Q1014.72 1453.77 1020.53 1453.77 Z" fill="#000000" fill-rule="evenodd" fill-opacity="1" /><path clip-path="url(#clip940)" d="M1033.66 1433.47 L1048.58 1433.47 L1048.58 1436.66 L1037.14 1436.66 L1037.14 1443.55 Q1037.97 1443.27 1038.8 1443.13 Q1039.62 1442.98 1040.45 1442.98 Q1045.15 1442.98 1047.9 1445.56 Q1050.64 1448.14 1050.64 1452.54 Q1050.64 1457.07 1047.82 1459.59 Q1045 1462.09 1039.87 1462.09 Q1038.1 1462.09 1036.26 1461.79 Q1034.43 1461.49 1032.48 1460.89 L1032.48 1457.07 Q1034.17 1457.99 1035.97 1458.44 Q1037.78 1458.89 1039.79 1458.89 Q1043.05 1458.89 1044.95 1457.18 Q1046.85 1455.47 1046.85 1452.54 Q1046.85 1449.6 1044.95 1447.89 Q1043.05 1446.18 1039.79 1446.18 Q1038.27 1446.18 1036.75 1446.52 Q1035.24 1446.86 1033.66 1447.57 L1033.66 1433.47 Z" fill="#000000" fill-rule="evenodd" fill-opacity="1" /><path clip-path="url(#clip940)" d="M1509.64 1485.02 L1517.27 1485.02 L1517.27 1458.66 L1508.96 1460.32 L1508.96 1456.06 L1517.23 1454.4 L1521.9 1454.4 L1521.9 1485.02 L1529.54 1485.02 L1529.54 1488.96 L1509.64 1488.96 L1509.64 1485.02 Z" fill="#000000" fill-rule="evenodd" fill-opacity="1" /><path clip-path="url(#clip940)" d="M1538.99 1483.08 L1543.87 1483.08 L1543.87 1488.96 L1538.99 1488.96 L1538.99 1483.08 Z" fill="#000000" fill-rule="evenodd" fill-opacity="1" /><path clip-path="url(#clip940)" d="M1564.06 1457.48 Q1560.45 1457.48 1558.62 1461.04 Q1556.81 1464.58 1556.81 1471.71 Q1556.81 1478.82 1558.62 1482.38 Q1560.45 1485.92 1564.06 1485.92 Q1567.69 1485.92 1569.5 1482.38 Q1571.32 1478.82 1571.32 1471.71 Q1571.32 1464.58 1569.5 1461.04 Q1567.69 1457.48 1564.06 1457.48 M1564.06 1453.77 Q1569.87 1453.77 1572.92 1458.38 Q1576 1462.96 1576 1471.71 Q1576 1480.44 1572.92 1485.04 Q1569.87 1489.63 1564.06 1489.63 Q1558.25 1489.63 1555.17 1485.04 Q1552.11 1480.44 1552.11 1471.71 Q1552.11 1462.96 1555.17 1458.38 Q1558.25 1453.77 1564.06 1453.77 Z" fill="#000000" fill-rule="evenodd" fill-opacity="1" /><path clip-path="url(#clip940)" d="M1594.22 1457.48 Q1590.61 1457.48 1588.78 1461.04 Q1586.97 1464.58 1586.97 1471.71 Q1586.97 1478.82 1588.78 1482.38 Q1590.61 1485.92 1594.22 1485.92 Q1597.85 1485.92 1599.66 1482.38 Q1601.49 1478.82 1601.49 1471.71 Q1601.49 1464.58 1599.66 1461.04 Q1597.85 1457.48 1594.22 1457.48 M1594.22 1453.77 Q1600.03 1453.77 1603.08 1458.38 Q1606.16 1462.96 1606.16 1471.71 Q1606.16 1480.44 1603.08 1485.04 Q1600.03 1489.63 1594.22 1489.63 Q1588.41 1489.63 1585.33 1485.04 Q1582.27 1480.44 1582.27 1471.71 Q1582.27 1462.96 1585.33 1458.38 Q1588.41 1453.77 1594.22 1453.77 Z" fill="#000000" fill-rule="evenodd" fill-opacity="1" /><path clip-path="url(#clip940)" d="M1642.55 1463.49 L1631.97 1474.12 L1642.55 1484.7 L1639.8 1487.5 L1629.17 1476.87 L1618.55 1487.5 L1615.82 1484.7 L1626.37 1474.12 L1615.82 1463.49 L1618.55 1460.69 L1629.17 1471.32 L1639.8 1460.69 L1642.55 1463.49 Z" fill="#000000" fill-rule="evenodd" fill-opacity="1" /><path clip-path="url(#clip940)" d="M1654.91 1485.02 L1662.55 1485.02 L1662.55 1458.66 L1654.24 1460.32 L1654.24 1456.06 L1662.5 1454.4 L1667.18 1454.4 L1667.18 1485.02 L1674.82 1485.02 L1674.82 1488.96 L1654.91 1488.96 L1654.91 1485.02 Z" fill="#000000" fill-rule="evenodd" fill-opacity="1" /><path clip-path="url(#clip940)" d="M1694.26 1457.48 Q1690.65 1457.48 1688.82 1461.04 Q1687.02 1464.58 1687.02 1471.71 Q1687.02 1478.82 1688.82 1482.38 Q1690.65 1485.92 1694.26 1485.92 Q1697.9 1485.92 1699.7 1482.38 Q1701.53 1478.82 1701.53 1471.71 Q1701.53 1464.58 1699.7 1461.04 Q1697.9 1457.48 1694.26 1457.48 M1694.26 1453.77 Q1700.07 1453.77 1703.13 1458.38 Q1706.21 1462.96 1706.21 1471.71 Q1706.21 1480.44 1703.13 1485.04 Q1700.07 1489.63 1694.26 1489.63 Q1688.45 1489.63 1685.37 1485.04 Q1682.32 1480.44 1682.32 1471.71 Q1682.32 1462.96 1685.37 1458.38 Q1688.45 1453.77 1694.26 1453.77 Z" fill="#000000" fill-rule="evenodd" fill-opacity="1" /><path clip-path="url(#clip940)" d="M1716.23 1445.99 Q1713.67 1445.99 1712.17 1447.74 Q1710.68 1449.49 1710.68 1452.54 Q1710.68 1455.57 1712.17 1457.33 Q1713.67 1459.08 1716.23 1459.08 Q1718.79 1459.08 1720.28 1457.33 Q1721.78 1455.57 1721.78 1452.54 Q1721.78 1449.49 1720.28 1447.74 Q1718.79 1445.99 1716.23 1445.99 M1723.77 1434.09 L1723.77 1437.55 Q1722.35 1436.87 1720.88 1436.51 Q1719.43 1436.16 1718 1436.16 Q1714.24 1436.16 1712.25 1438.69 Q1710.27 1441.23 1709.99 1446.37 Q1711.1 1444.73 1712.77 1443.87 Q1714.45 1442.98 1716.46 1442.98 Q1720.69 1442.98 1723.14 1445.56 Q1725.6 1448.12 1725.6 1452.54 Q1725.6 1456.86 1723.04 1459.48 Q1720.48 1462.09 1716.23 1462.09 Q1711.36 1462.09 1708.78 1458.37 Q1706.21 1454.62 1706.21 1447.53 Q1706.21 1440.88 1709.37 1436.93 Q1712.53 1432.96 1717.85 1432.96 Q1719.28 1432.96 1720.73 1433.24 Q1722.19 1433.52 1723.77 1434.09 Z" fill="#000000" fill-rule="evenodd" fill-opacity="1" /><path clip-path="url(#clip940)" d="M2184.75 1485.02 L2192.39 1485.02 L2192.39 1458.66 L2184.08 1460.32 L2184.08 1456.06 L2192.35 1454.4 L2197.02 1454.4 L2197.02 1485.02 L2204.66 1485.02 L2204.66 1488.96 L2184.75 1488.96 L2184.75 1485.02 Z" fill="#000000" fill-rule="evenodd" fill-opacity="1" /><path clip-path="url(#clip940)" d="M2214.11 1483.08 L2218.99 1483.08 L2218.99 1488.96 L2214.11 1488.96 L2214.11 1483.08 Z" fill="#000000" fill-rule="evenodd" fill-opacity="1" /><path clip-path="url(#clip940)" d="M2229.22 1454.4 L2247.58 1454.4 L2247.58 1458.33 L2233.5 1458.33 L2233.5 1466.8 Q2234.52 1466.46 2235.54 1466.29 Q2236.56 1466.11 2237.58 1466.11 Q2243.36 1466.11 2246.74 1469.28 Q2250.12 1472.45 2250.12 1477.87 Q2250.12 1483.45 2246.65 1486.55 Q2243.18 1489.63 2236.86 1489.63 Q2234.68 1489.63 2232.42 1489.26 Q2230.17 1488.89 2227.76 1488.15 L2227.76 1483.45 Q2229.85 1484.58 2232.07 1485.14 Q2234.29 1485.69 2236.77 1485.69 Q2240.77 1485.69 2243.11 1483.59 Q2245.45 1481.48 2245.45 1477.87 Q2245.45 1474.26 2243.11 1472.15 Q2240.77 1470.04 2236.77 1470.04 Q2234.89 1470.04 2233.02 1470.46 Q2231.17 1470.88 2229.22 1471.76 L2229.22 1454.4 Z" fill="#000000" fill-rule="evenodd" fill-opacity="1" /><path clip-path="url(#clip940)" d="M2269.34 1457.48 Q2265.73 1457.48 2263.9 1461.04 Q2262.09 1464.58 2262.09 1471.71 Q2262.09 1478.82 2263.9 1482.38 Q2265.73 1485.92 2269.34 1485.92 Q2272.97 1485.92 2274.78 1482.38 Q2276.61 1478.82 2276.61 1471.71 Q2276.61 1464.58 2274.78 1461.04 Q2272.97 1457.48 2269.34 1457.48 M2269.34 1453.77 Q2275.15 1453.77 2278.2 1458.38 Q2281.28 1462.96 2281.28 1471.71 Q2281.28 1480.44 2278.2 1485.04 Q2275.15 1489.63 2269.34 1489.63 Q2263.53 1489.63 2260.45 1485.04 Q2257.39 1480.44 2257.39 1471.71 Q2257.39 1462.96 2260.45 1458.38 Q2263.53 1453.77 2269.34 1453.77 Z" fill="#000000" fill-rule="evenodd" fill-opacity="1" /><path clip-path="url(#clip940)" d="M2317.67 1463.49 L2307.09 1474.12 L2317.67 1484.7 L2314.92 1487.5 L2304.29 1476.87 L2293.67 1487.5 L2290.93 1484.7 L2301.49 1474.12 L2290.93 1463.49 L2293.67 1460.69 L2304.29 1471.32 L2314.92 1460.69 L2317.67 1463.49 Z" fill="#000000" fill-rule="evenodd" fill-opacity="1" /><path clip-path="url(#clip940)" d="M2330.03 1485.02 L2337.67 1485.02 L2337.67 1458.66 L2329.36 1460.32 L2329.36 1456.06 L2337.62 1454.4 L2342.3 1454.4 L2342.3 1485.02 L2349.94 1485.02 L2349.94 1488.96 L2330.03 1488.96 L2330.03 1485.02 Z" fill="#000000" fill-rule="evenodd" fill-opacity="1" /><path clip-path="url(#clip940)" d="M2369.38 1457.48 Q2365.77 1457.48 2363.94 1461.04 Q2362.14 1464.58 2362.14 1471.71 Q2362.14 1478.82 2363.94 1482.38 Q2365.77 1485.92 2369.38 1485.92 Q2373.02 1485.92 2374.82 1482.38 Q2376.65 1478.82 2376.65 1471.71 Q2376.65 1464.58 2374.82 1461.04 Q2373.02 1457.48 2369.38 1457.48 M2369.38 1453.77 Q2375.19 1453.77 2378.25 1458.38 Q2381.33 1462.96 2381.33 1471.71 Q2381.33 1480.44 2378.25 1485.04 Q2375.19 1489.63 2369.38 1489.63 Q2363.57 1489.63 2360.49 1485.04 Q2357.44 1480.44 2357.44 1471.71 Q2357.44 1462.96 2360.49 1458.38 Q2363.57 1453.77 2369.38 1453.77 Z" fill="#000000" fill-rule="evenodd" fill-opacity="1" /><path clip-path="url(#clip940)" d="M2391.35 1445.99 Q2388.79 1445.99 2387.29 1447.74 Q2385.8 1449.49 2385.8 1452.54 Q2385.8 1455.57 2387.29 1457.33 Q2388.79 1459.08 2391.35 1459.08 Q2393.91 1459.08 2395.4 1457.33 Q2396.9 1455.57 2396.9 1452.54 Q2396.9 1449.49 2395.4 1447.74 Q2393.91 1445.99 2391.35 1445.99 M2398.89 1434.09 L2398.89 1437.55 Q2397.46 1436.87 2396 1436.51 Q2394.55 1436.16 2393.12 1436.16 Q2389.36 1436.16 2387.36 1438.69 Q2385.39 1441.23 2385.11 1446.37 Q2386.22 1444.73 2387.89 1443.87 Q2389.56 1442.98 2391.58 1442.98 Q2395.81 1442.98 2398.25 1445.56 Q2400.72 1448.12 2400.72 1452.54 Q2400.72 1456.86 2398.16 1459.48 Q2395.6 1462.09 2391.35 1462.09 Q2386.48 1462.09 2383.9 1458.37 Q2381.33 1454.62 2381.33 1447.53 Q2381.33 1440.88 2384.49 1436.93 Q2387.65 1432.96 2392.97 1432.96 Q2394.4 1432.96 2395.85 1433.24 Q2397.31 1433.52 2398.89 1434.09 Z" fill="#000000" fill-rule="evenodd" fill-opacity="1" /><path clip-path="url(#clip940)" d="M1136.04 1526.67 L1142.46 1526.67 L1142.46 1574.19 L1136.04 1574.19 L1136.04 1526.67 Z" fill="#000000" fill-rule="evenodd" fill-opacity="1" /><path clip-path="url(#clip940)" d="M1160.8 1528.42 L1160.8 1538.54 L1172.86 1538.54 L1172.86 1543.09 L1160.8 1543.09 L1160.8 1562.44 Q1160.8 1566.8 1161.98 1568.04 Q1163.19 1569.28 1166.85 1569.28 L1172.86 1569.28 L1172.86 1574.19 L1166.85 1574.19 Q1160.07 1574.19 1157.49 1571.67 Q1154.91 1569.12 1154.91 1562.44 L1154.91 1543.09 L1150.61 1543.09 L1150.61 1538.54 L1154.91 1538.54 L1154.91 1528.42 L1160.8 1528.42 Z" fill="#000000" fill-rule="evenodd" fill-opacity="1" /><path clip-path="url(#clip940)" d="M1211.06 1554.9 L1211.06 1557.76 L1184.13 1557.76 Q1184.51 1563.81 1187.76 1566.99 Q1191.04 1570.14 1196.86 1570.14 Q1200.23 1570.14 1203.38 1569.32 Q1206.57 1568.49 1209.69 1566.83 L1209.69 1572.37 Q1206.54 1573.71 1203.23 1574.41 Q1199.92 1575.11 1196.51 1575.11 Q1187.98 1575.11 1182.98 1570.14 Q1178.02 1565.18 1178.02 1556.71 Q1178.02 1547.96 1182.73 1542.83 Q1187.47 1537.68 1195.49 1537.68 Q1202.68 1537.68 1206.85 1542.33 Q1211.06 1546.94 1211.06 1554.9 M1205.2 1553.18 Q1205.14 1548.37 1202.49 1545.51 Q1199.88 1542.64 1195.55 1542.64 Q1190.65 1542.64 1187.69 1545.41 Q1184.77 1548.18 1184.32 1553.21 L1205.2 1553.18 Z" fill="#000000" fill-rule="evenodd" fill-opacity="1" /><path clip-path="url(#clip940)" d="M1241.32 1544.01 Q1240.34 1543.44 1239.16 1543.18 Q1238.01 1542.9 1236.61 1542.9 Q1231.65 1542.9 1228.97 1546.14 Q1226.33 1549.36 1226.33 1555.41 L1226.33 1574.19 L1220.44 1574.19 L1220.44 1538.54 L1226.33 1538.54 L1226.33 1544.08 Q1228.18 1540.83 1231.14 1539.27 Q1234.1 1537.68 1238.33 1537.68 Q1238.94 1537.68 1239.67 1537.77 Q1240.4 1537.84 1241.29 1538 L1241.32 1544.01 Z" fill="#000000" fill-rule="evenodd" fill-opacity="1" /><path clip-path="url(#clip940)" d="M1263.67 1556.27 Q1256.57 1556.27 1253.83 1557.89 Q1251.1 1559.51 1251.1 1563.43 Q1251.1 1566.55 1253.13 1568.39 Q1255.2 1570.21 1258.73 1570.21 Q1263.6 1570.21 1266.53 1566.77 Q1269.49 1563.3 1269.49 1557.57 L1269.49 1556.27 L1263.67 1556.27 M1275.35 1553.85 L1275.35 1574.19 L1269.49 1574.19 L1269.49 1568.77 Q1267.49 1572.02 1264.5 1573.58 Q1261.5 1575.11 1257.17 1575.11 Q1251.7 1575.11 1248.45 1572.05 Q1245.24 1568.97 1245.24 1563.81 Q1245.24 1557.79 1249.25 1554.74 Q1253.29 1551.68 1261.28 1551.68 L1269.49 1551.68 L1269.49 1551.11 Q1269.49 1547.07 1266.82 1544.87 Q1264.18 1542.64 1259.37 1542.64 Q1256.32 1542.64 1253.42 1543.38 Q1250.52 1544.11 1247.85 1545.57 L1247.85 1540.16 Q1251.06 1538.92 1254.09 1538.31 Q1257.11 1537.68 1259.98 1537.68 Q1267.71 1537.68 1271.53 1541.69 Q1275.35 1545.7 1275.35 1553.85 Z" fill="#000000" fill-rule="evenodd" fill-opacity="1" /><path clip-path="url(#clip940)" d="M1293.2 1528.42 L1293.2 1538.54 L1305.27 1538.54 L1305.27 1543.09 L1293.2 1543.09 L1293.2 1562.44 Q1293.2 1566.8 1294.38 1568.04 Q1295.59 1569.28 1299.25 1569.28 L1305.27 1569.28 L1305.27 1574.19 L1299.25 1574.19 Q1292.47 1574.19 1289.89 1571.67 Q1287.32 1569.12 1287.32 1562.44 L1287.32 1543.09 L1283.02 1543.09 L1283.02 1538.54 L1287.32 1538.54 L1287.32 1528.42 L1293.2 1528.42 Z" fill="#000000" fill-rule="evenodd" fill-opacity="1" /><path clip-path="url(#clip940)" d="M1312.97 1538.54 L1318.83 1538.54 L1318.83 1574.19 L1312.97 1574.19 L1312.97 1538.54 M1312.97 1524.66 L1318.83 1524.66 L1318.83 1532.08 L1312.97 1532.08 L1312.97 1524.66 Z" fill="#000000" fill-rule="evenodd" fill-opacity="1" /><path clip-path="url(#clip940)" d="M1344.89 1542.64 Q1340.18 1542.64 1337.45 1546.34 Q1334.71 1550 1334.71 1556.39 Q1334.71 1562.79 1337.41 1566.48 Q1340.15 1570.14 1344.89 1570.14 Q1349.57 1570.14 1352.31 1566.45 Q1355.05 1562.76 1355.05 1556.39 Q1355.05 1550.06 1352.31 1546.37 Q1349.57 1542.64 1344.89 1542.64 M1344.89 1537.68 Q1352.53 1537.68 1356.89 1542.64 Q1361.25 1547.61 1361.25 1556.39 Q1361.25 1565.15 1356.89 1570.14 Q1352.53 1575.11 1344.89 1575.11 Q1337.22 1575.11 1332.86 1570.14 Q1328.53 1565.15 1328.53 1556.39 Q1328.53 1547.61 1332.86 1542.64 Q1337.22 1537.68 1344.89 1537.68 Z" fill="#000000" fill-rule="evenodd" fill-opacity="1" /><path clip-path="url(#clip940)" d="M1400.59 1552.67 L1400.59 1574.19 L1394.74 1574.19 L1394.74 1552.86 Q1394.74 1547.8 1392.76 1545.29 Q1390.79 1542.77 1386.84 1542.77 Q1382.1 1542.77 1379.36 1545.79 Q1376.63 1548.82 1376.63 1554.04 L1376.63 1574.19 L1370.74 1574.19 L1370.74 1538.54 L1376.63 1538.54 L1376.63 1544.08 Q1378.73 1540.86 1381.56 1539.27 Q1384.43 1537.68 1388.15 1537.68 Q1394.29 1537.68 1397.44 1541.5 Q1400.59 1545.29 1400.59 1552.67 Z" fill="#000000" fill-rule="evenodd" fill-opacity="1" /><path clip-path="url(#clip940)" d="M1435 1539.59 L1435 1545.13 Q1432.52 1543.85 1429.84 1543.22 Q1427.17 1542.58 1424.31 1542.58 Q1419.95 1542.58 1417.75 1543.92 Q1415.59 1545.25 1415.59 1547.93 Q1415.59 1549.96 1417.15 1551.14 Q1418.7 1552.29 1423.42 1553.34 L1425.42 1553.78 Q1431.66 1555.12 1434.27 1557.57 Q1436.91 1559.99 1436.91 1564.35 Q1436.91 1569.32 1432.96 1572.21 Q1429.05 1575.11 1422.17 1575.11 Q1419.31 1575.11 1416.19 1574.54 Q1413.1 1573.99 1409.67 1572.88 L1409.67 1566.83 Q1412.91 1568.52 1416.06 1569.38 Q1419.21 1570.21 1422.3 1570.21 Q1426.44 1570.21 1428.67 1568.81 Q1430.9 1567.37 1430.9 1564.8 Q1430.9 1562.41 1429.27 1561.14 Q1427.68 1559.86 1422.24 1558.68 L1420.2 1558.21 Q1414.76 1557.06 1412.34 1554.71 Q1409.92 1552.32 1409.92 1548.18 Q1409.92 1543.15 1413.48 1540.42 Q1417.05 1537.68 1423.61 1537.68 Q1426.85 1537.68 1429.72 1538.16 Q1432.58 1538.63 1435 1539.59 Z" fill="#000000" fill-rule="evenodd" fill-opacity="1" /><polyline clip-path="url(#clip942)" style="stroke:#000000; stroke-linecap:round; stroke-linejoin:round; stroke-width:2; stroke-opacity:0.1; fill:none" points="
  220.19,1226.72 2352.76,1226.72 
  "/>
<polyline clip-path="url(#clip942)" style="stroke:#000000; stroke-linecap:round; stroke-linejoin:round; stroke-width:2; stroke-opacity:0.1; fill:none" points="
  220.19,1018.99 2352.76,1018.99 
  "/>
<polyline clip-path="url(#clip942)" style="stroke:#000000; stroke-linecap:round; stroke-linejoin:round; stroke-width:2; stroke-opacity:0.1; fill:none" points="
  220.19,811.265 2352.76,811.265 
  "/>
<polyline clip-path="url(#clip942)" style="stroke:#000000; stroke-linecap:round; stroke-linejoin:round; stroke-width:2; stroke-opacity:0.1; fill:none" points="
  220.19,603.54 2352.76,603.54 
  "/>
<polyline clip-path="url(#clip942)" style="stroke:#000000; stroke-linecap:round; stroke-linejoin:round; stroke-width:2; stroke-opacity:0.1; fill:none" points="
  220.19,395.815 2352.76,395.815 
  "/>
<polyline clip-path="url(#clip942)" style="stroke:#000000; stroke-linecap:round; stroke-linejoin:round; stroke-width:2; stroke-opacity:0.1; fill:none" points="
  220.19,188.09 2352.76,188.09 
  "/>
<polyline clip-path="url(#clip940)" style="stroke:#000000; stroke-linecap:round; stroke-linejoin:round; stroke-width:4; stroke-opacity:1; fill:none" points="
  220.19,1410.9 220.19,47.2441 
  "/>
<polyline clip-path="url(#clip940)" style="stroke:#000000; stroke-linecap:round; stroke-linejoin:round; stroke-width:4; stroke-opacity:1; fill:none" points="
  220.19,1226.72 239.088,1226.72 
  "/>
<polyline clip-path="url(#clip940)" style="stroke:#000000; stroke-linecap:round; stroke-linejoin:round; stroke-width:4; stroke-opacity:1; fill:none" points="
  220.19,1018.99 239.088,1018.99 
  "/>
<polyline clip-path="url(#clip940)" style="stroke:#000000; stroke-linecap:round; stroke-linejoin:round; stroke-width:4; stroke-opacity:1; fill:none" points="
  220.19,811.265 239.088,811.265 
  "/>
<polyline clip-path="url(#clip940)" style="stroke:#000000; stroke-linecap:round; stroke-linejoin:round; stroke-width:4; stroke-opacity:1; fill:none" points="
  220.19,603.54 239.088,603.54 
  "/>
<polyline clip-path="url(#clip940)" style="stroke:#000000; stroke-linecap:round; stroke-linejoin:round; stroke-width:4; stroke-opacity:1; fill:none" points="
  220.19,395.815 239.088,395.815 
  "/>
<polyline clip-path="url(#clip940)" style="stroke:#000000; stroke-linecap:round; stroke-linejoin:round; stroke-width:4; stroke-opacity:1; fill:none" points="
  220.19,188.09 239.088,188.09 
  "/>
<path clip-path="url(#clip940)" d="M122.038 1240.06 L138.357 1240.06 L138.357 1244 L116.413 1244 L116.413 1240.06 Q119.075 1237.31 123.658 1232.68 Q128.265 1228.02 129.445 1226.68 Q131.691 1224.16 132.57 1222.42 Q133.473 1220.66 133.473 1218.97 Q133.473 1216.22 131.529 1214.48 Q129.607 1212.75 126.505 1212.75 Q124.306 1212.75 121.853 1213.51 Q119.422 1214.27 116.644 1215.82 L116.644 1211.1 Q119.468 1209.97 121.922 1209.39 Q124.376 1208.81 126.413 1208.81 Q131.783 1208.81 134.978 1211.5 Q138.172 1214.18 138.172 1218.67 Q138.172 1220.8 137.362 1222.72 Q136.575 1224.62 134.468 1227.21 Q133.89 1227.88 130.788 1231.1 Q127.686 1234.3 122.038 1240.06 Z" fill="#000000" fill-rule="evenodd" fill-opacity="1" /><path clip-path="url(#clip940)" d="M148.172 1238.12 L153.056 1238.12 L153.056 1244 L148.172 1244 L148.172 1238.12 Z" fill="#000000" fill-rule="evenodd" fill-opacity="1" /><path clip-path="url(#clip940)" d="M163.288 1209.44 L181.644 1209.44 L181.644 1213.37 L167.57 1213.37 L167.57 1221.84 Q168.589 1221.5 169.607 1221.33 Q170.626 1221.15 171.644 1221.15 Q177.431 1221.15 180.811 1224.32 Q184.19 1227.49 184.19 1232.91 Q184.19 1238.49 180.718 1241.59 Q177.246 1244.67 170.927 1244.67 Q168.751 1244.67 166.482 1244.3 Q164.237 1243.93 161.829 1243.19 L161.829 1238.49 Q163.913 1239.62 166.135 1240.18 Q168.357 1240.73 170.834 1240.73 Q174.839 1240.73 177.176 1238.62 Q179.514 1236.52 179.514 1232.91 Q179.514 1229.3 177.176 1227.19 Q174.839 1225.08 170.834 1225.08 Q168.959 1225.08 167.084 1225.5 Q165.232 1225.92 163.288 1226.8 L163.288 1209.44 Z" fill="#000000" fill-rule="evenodd" fill-opacity="1" /><path clip-path="url(#clip940)" d="M131.181 1017.64 Q134.538 1018.35 136.413 1020.62 Q138.311 1022.89 138.311 1026.22 Q138.311 1031.34 134.792 1034.14 Q131.274 1036.94 124.793 1036.94 Q122.617 1036.94 120.302 1036.5 Q118.01 1036.09 115.556 1035.23 L115.556 1030.71 Q117.501 1031.85 119.816 1032.43 Q122.13 1033.01 124.654 1033.01 Q129.052 1033.01 131.343 1031.27 Q133.658 1029.53 133.658 1026.22 Q133.658 1023.17 131.505 1021.46 Q129.376 1019.72 125.556 1019.72 L121.529 1019.72 L121.529 1015.88 L125.742 1015.88 Q129.191 1015.88 131.019 1014.51 Q132.848 1013.12 132.848 1010.53 Q132.848 1007.87 130.95 1006.46 Q129.075 1005.02 125.556 1005.02 Q123.635 1005.02 121.436 1005.44 Q119.237 1005.85 116.598 1006.73 L116.598 1002.57 Q119.26 1001.83 121.575 1001.46 Q123.913 1001.09 125.973 1001.09 Q131.297 1001.09 134.399 1003.52 Q137.501 1005.92 137.501 1010.04 Q137.501 1012.91 135.857 1014.9 Q134.214 1016.87 131.181 1017.64 Z" fill="#000000" fill-rule="evenodd" fill-opacity="1" /><path clip-path="url(#clip940)" d="M147.177 1030.39 L152.061 1030.39 L152.061 1036.27 L147.177 1036.27 L147.177 1030.39 Z" fill="#000000" fill-rule="evenodd" fill-opacity="1" /><path clip-path="url(#clip940)" d="M172.246 1004.79 Q168.635 1004.79 166.806 1008.35 Q165.001 1011.9 165.001 1019.02 Q165.001 1026.13 166.806 1029.7 Q168.635 1033.24 172.246 1033.24 Q175.88 1033.24 177.686 1029.7 Q179.514 1026.13 179.514 1019.02 Q179.514 1011.9 177.686 1008.35 Q175.88 1004.79 172.246 1004.79 M172.246 1001.09 Q178.056 1001.09 181.112 1005.69 Q184.19 1010.28 184.19 1019.02 Q184.19 1027.75 181.112 1032.36 Q178.056 1036.94 172.246 1036.94 Q166.436 1036.94 163.357 1032.36 Q160.302 1027.75 160.302 1019.02 Q160.302 1010.28 163.357 1005.69 Q166.436 1001.09 172.246 1001.09 Z" fill="#000000" fill-rule="evenodd" fill-opacity="1" /><path clip-path="url(#clip940)" d="M132.177 809.911 Q135.533 810.629 137.408 812.897 Q139.306 815.166 139.306 818.499 Q139.306 823.615 135.788 826.416 Q132.269 829.217 125.788 829.217 Q123.612 829.217 121.297 828.777 Q119.006 828.36 116.552 827.504 L116.552 822.99 Q118.496 824.124 120.811 824.703 Q123.126 825.281 125.649 825.281 Q130.047 825.281 132.339 823.545 Q134.654 821.809 134.654 818.499 Q134.654 815.443 132.501 813.731 Q130.371 811.994 126.552 811.994 L122.524 811.994 L122.524 808.152 L126.737 808.152 Q130.186 808.152 132.015 806.786 Q133.843 805.397 133.843 802.805 Q133.843 800.143 131.945 798.731 Q130.07 797.295 126.552 797.295 Q124.63 797.295 122.431 797.712 Q120.232 798.129 117.593 799.008 L117.593 794.842 Q120.255 794.101 122.57 793.731 Q124.908 793.36 126.968 793.36 Q132.292 793.36 135.394 795.791 Q138.496 798.198 138.496 802.319 Q138.496 805.189 136.853 807.18 Q135.209 809.147 132.177 809.911 Z" fill="#000000" fill-rule="evenodd" fill-opacity="1" /><path clip-path="url(#clip940)" d="M148.172 822.666 L153.056 822.666 L153.056 828.545 L148.172 828.545 L148.172 822.666 Z" fill="#000000" fill-rule="evenodd" fill-opacity="1" /><path clip-path="url(#clip940)" d="M163.288 793.985 L181.644 793.985 L181.644 797.92 L167.57 797.92 L167.57 806.393 Q168.589 806.045 169.607 805.883 Q170.626 805.698 171.644 805.698 Q177.431 805.698 180.811 808.869 Q184.19 812.041 184.19 817.457 Q184.19 823.036 180.718 826.138 Q177.246 829.217 170.927 829.217 Q168.751 829.217 166.482 828.846 Q164.237 828.476 161.829 827.735 L161.829 823.036 Q163.913 824.17 166.135 824.726 Q168.357 825.281 170.834 825.281 Q174.839 825.281 177.176 823.175 Q179.514 821.068 179.514 817.457 Q179.514 813.846 177.176 811.74 Q174.839 809.633 170.834 809.633 Q168.959 809.633 167.084 810.05 Q165.232 810.467 163.288 811.346 L163.288 793.985 Z" fill="#000000" fill-rule="evenodd" fill-opacity="1" /><path clip-path="url(#clip940)" d="M129.862 590.334 L118.056 608.783 L129.862 608.783 L129.862 590.334 M128.635 586.26 L134.515 586.26 L134.515 608.783 L139.445 608.783 L139.445 612.672 L134.515 612.672 L134.515 620.82 L129.862 620.82 L129.862 612.672 L114.26 612.672 L114.26 608.158 L128.635 586.26 Z" fill="#000000" fill-rule="evenodd" fill-opacity="1" /><path clip-path="url(#clip940)" d="M147.177 614.941 L152.061 614.941 L152.061 620.82 L147.177 620.82 L147.177 614.941 Z" fill="#000000" fill-rule="evenodd" fill-opacity="1" /><path clip-path="url(#clip940)" d="M172.246 589.339 Q168.635 589.339 166.806 592.904 Q165.001 596.445 165.001 603.575 Q165.001 610.681 166.806 614.246 Q168.635 617.788 172.246 617.788 Q175.88 617.788 177.686 614.246 Q179.514 610.681 179.514 603.575 Q179.514 596.445 177.686 592.904 Q175.88 589.339 172.246 589.339 M172.246 585.635 Q178.056 585.635 181.112 590.242 Q184.19 594.825 184.19 603.575 Q184.19 612.302 181.112 616.908 Q178.056 621.492 172.246 621.492 Q166.436 621.492 163.357 616.908 Q160.302 612.302 160.302 603.575 Q160.302 594.825 163.357 590.242 Q166.436 585.635 172.246 585.635 Z" fill="#000000" fill-rule="evenodd" fill-opacity="1" /><path clip-path="url(#clip940)" d="M130.857 382.609 L119.052 401.058 L130.857 401.058 L130.857 382.609 M129.63 378.535 L135.51 378.535 L135.51 401.058 L140.441 401.058 L140.441 404.947 L135.51 404.947 L135.51 413.095 L130.857 413.095 L130.857 404.947 L115.256 404.947 L115.256 400.433 L129.63 378.535 Z" fill="#000000" fill-rule="evenodd" fill-opacity="1" /><path clip-path="url(#clip940)" d="M148.172 407.216 L153.056 407.216 L153.056 413.095 L148.172 413.095 L148.172 407.216 Z" fill="#000000" fill-rule="evenodd" fill-opacity="1" /><path clip-path="url(#clip940)" d="M163.288 378.535 L181.644 378.535 L181.644 382.47 L167.57 382.47 L167.57 390.943 Q168.589 390.595 169.607 390.433 Q170.626 390.248 171.644 390.248 Q177.431 390.248 180.811 393.419 Q184.19 396.591 184.19 402.007 Q184.19 407.586 180.718 410.688 Q177.246 413.767 170.927 413.767 Q168.751 413.767 166.482 413.396 Q164.237 413.026 161.829 412.285 L161.829 407.586 Q163.913 408.72 166.135 409.276 Q168.357 409.831 170.834 409.831 Q174.839 409.831 177.176 407.725 Q179.514 405.618 179.514 402.007 Q179.514 398.396 177.176 396.29 Q174.839 394.183 170.834 394.183 Q168.959 394.183 167.084 394.6 Q165.232 395.017 163.288 395.896 L163.288 378.535 Z" fill="#000000" fill-rule="evenodd" fill-opacity="1" /><path clip-path="url(#clip940)" d="M117.061 170.81 L135.417 170.81 L135.417 174.745 L121.343 174.745 L121.343 183.218 Q122.362 182.87 123.38 182.708 Q124.399 182.523 125.418 182.523 Q131.205 182.523 134.584 185.694 Q137.964 188.866 137.964 194.282 Q137.964 199.861 134.492 202.963 Q131.019 206.042 124.7 206.042 Q122.524 206.042 120.255 205.671 Q118.01 205.301 115.603 204.56 L115.603 199.861 Q117.686 200.995 119.908 201.551 Q122.13 202.106 124.607 202.106 Q128.612 202.106 130.95 200 Q133.288 197.893 133.288 194.282 Q133.288 190.671 130.95 188.565 Q128.612 186.458 124.607 186.458 Q122.732 186.458 120.857 186.875 Q119.006 187.292 117.061 188.171 L117.061 170.81 Z" fill="#000000" fill-rule="evenodd" fill-opacity="1" /><path clip-path="url(#clip940)" d="M147.177 199.491 L152.061 199.491 L152.061 205.37 L147.177 205.37 L147.177 199.491 Z" fill="#000000" fill-rule="evenodd" fill-opacity="1" /><path clip-path="url(#clip940)" d="M172.246 173.889 Q168.635 173.889 166.806 177.454 Q165.001 180.995 165.001 188.125 Q165.001 195.231 166.806 198.796 Q168.635 202.338 172.246 202.338 Q175.88 202.338 177.686 198.796 Q179.514 195.231 179.514 188.125 Q179.514 180.995 177.686 177.454 Q175.88 173.889 172.246 173.889 M172.246 170.185 Q178.056 170.185 181.112 174.792 Q184.19 179.375 184.19 188.125 Q184.19 196.852 181.112 201.458 Q178.056 206.042 172.246 206.042 Q166.436 206.042 163.357 201.458 Q160.302 196.852 160.302 188.125 Q160.302 179.375 163.357 174.792 Q166.436 170.185 172.246 170.185 Z" fill="#000000" fill-rule="evenodd" fill-opacity="1" /><path clip-path="url(#clip940)" d="M22.818 978.129 L46.4666 986.85 L46.4666 969.376 L22.818 978.129 M16.4842 981.757 L16.4842 974.468 L64.0042 956.358 L64.0042 963.042 L51.8138 967.371 L51.8138 988.791 L64.0042 993.12 L64.0042 999.899 L16.4842 981.757 Z" fill="#000000" fill-rule="evenodd" fill-opacity="1" /><path clip-path="url(#clip940)" d="M28.3562 957.695 L28.3562 951.488 L58.275 940.348 L28.3562 929.208 L28.3562 923.002 L64.0042 936.37 L64.0042 944.327 L28.3562 957.695 Z" fill="#000000" fill-rule="evenodd" fill-opacity="1" /><path clip-path="url(#clip940)" d="M44.7161 884.425 L47.5806 884.425 L47.5806 911.352 Q53.6281 910.97 56.8109 907.724 Q59.9619 904.446 59.9619 898.621 Q59.9619 895.247 59.1344 892.096 Q58.3069 888.913 56.6518 885.794 L62.1899 885.794 Q63.5267 888.945 64.227 892.255 Q64.9272 895.565 64.9272 898.971 Q64.9272 907.501 59.9619 912.498 Q54.9967 917.463 46.5303 917.463 Q37.7774 917.463 32.6531 912.753 Q27.4968 908.01 27.4968 899.99 Q27.4968 892.796 32.1438 888.627 Q36.7589 884.425 44.7161 884.425 M42.9973 890.282 Q38.1912 890.346 35.3266 892.987 Q32.4621 895.597 32.4621 899.926 Q32.4621 904.828 35.2312 907.788 Q38.0002 910.716 43.0292 911.161 L42.9973 890.282 Z" fill="#000000" fill-rule="evenodd" fill-opacity="1" /><path clip-path="url(#clip940)" d="M33.8307 854.157 Q33.2578 855.143 33.0032 856.321 Q32.7167 857.467 32.7167 858.867 Q32.7167 863.832 35.9632 866.506 Q39.1779 869.148 45.2253 869.148 L64.0042 869.148 L64.0042 875.036 L28.3562 875.036 L28.3562 869.148 L33.8944 869.148 Q30.6479 867.302 29.0883 864.342 Q27.4968 861.382 27.4968 857.148 Q27.4968 856.544 27.5923 855.812 Q27.656 855.08 27.8151 854.188 L33.8307 854.157 Z" fill="#000000" fill-rule="evenodd" fill-opacity="1" /><path clip-path="url(#clip940)" d="M46.0847 831.813 Q46.0847 838.911 47.7079 841.648 Q49.3312 844.385 53.2461 844.385 Q56.3653 844.385 58.2114 842.348 Q60.0256 840.279 60.0256 836.746 Q60.0256 831.877 56.5881 828.948 Q53.1188 825.988 47.3897 825.988 L46.0847 825.988 L46.0847 831.813 M43.6657 820.132 L64.0042 820.132 L64.0042 825.988 L58.5933 825.988 Q61.8398 827.993 63.3994 830.985 Q64.9272 833.977 64.9272 838.306 Q64.9272 843.78 61.8716 847.027 Q58.7843 850.242 53.6281 850.242 Q47.6125 850.242 44.5569 846.231 Q41.5014 842.189 41.5014 834.2 L41.5014 825.988 L40.9285 825.988 Q36.8862 825.988 34.6901 828.662 Q32.4621 831.304 32.4621 836.11 Q32.4621 839.165 33.1941 842.062 Q33.9262 844.958 35.3903 847.632 L29.9795 847.632 Q28.7381 844.417 28.1334 841.393 Q27.4968 838.37 27.4968 835.505 Q27.4968 827.771 31.5072 823.951 Q35.5176 820.132 43.6657 820.132 Z" fill="#000000" fill-rule="evenodd" fill-opacity="1" /><path clip-path="url(#clip940)" d="M45.7664 784.611 Q39.4007 784.611 35.8996 787.253 Q32.3984 789.863 32.3984 794.605 Q32.3984 799.316 35.8996 801.958 Q39.4007 804.568 45.7664 804.568 Q52.1003 804.568 55.6014 801.958 Q59.1026 799.316 59.1026 794.605 Q59.1026 789.863 55.6014 787.253 Q52.1003 784.611 45.7664 784.611 M59.58 778.755 Q68.683 778.755 73.1071 782.797 Q77.5631 786.839 77.5631 795.178 Q77.5631 798.266 77.0857 801.003 Q76.6401 803.74 75.6852 806.318 L69.9879 806.318 Q71.3884 803.74 72.0568 801.226 Q72.7252 798.711 72.7252 796.101 Q72.7252 790.34 69.7015 787.476 Q66.7096 784.611 60.6303 784.611 L57.7339 784.611 Q60.885 786.425 62.4446 789.258 Q64.0042 792.091 64.0042 796.038 Q64.0042 802.594 59.0071 806.605 Q54.01 810.615 45.7664 810.615 Q37.491 810.615 32.4939 806.605 Q27.4968 802.594 27.4968 796.038 Q27.4968 792.091 29.0564 789.258 Q30.616 786.425 33.7671 784.611 L28.3562 784.611 L28.3562 778.755 L59.58 778.755 Z" fill="#000000" fill-rule="evenodd" fill-opacity="1" /><path clip-path="url(#clip940)" d="M44.7161 736.2 L47.5806 736.2 L47.5806 763.127 Q53.6281 762.745 56.8109 759.498 Q59.9619 756.22 59.9619 750.395 Q59.9619 747.022 59.1344 743.871 Q58.3069 740.688 56.6518 737.569 L62.1899 737.569 Q63.5267 740.72 64.227 744.03 Q64.9272 747.34 64.9272 750.746 Q64.9272 759.276 59.9619 764.273 Q54.9967 769.238 46.5303 769.238 Q37.7774 769.238 32.6531 764.527 Q27.4968 759.785 27.4968 751.764 Q27.4968 744.571 32.1438 740.401 Q36.7589 736.2 44.7161 736.2 M42.9973 742.056 Q38.1912 742.12 35.3266 744.762 Q32.4621 747.372 32.4621 751.7 Q32.4621 756.602 35.2312 759.562 Q38.0002 762.49 43.0292 762.936 L42.9973 742.056 Z" fill="#000000" fill-rule="evenodd" fill-opacity="1" /><path clip-path="url(#clip940)" d="M64.0042 693.359 L16.4842 711.501 L16.4842 704.785 L56.4926 689.73 L16.4842 674.644 L16.4842 667.96 L64.0042 686.07 L64.0042 693.359 Z" fill="#000000" fill-rule="evenodd" fill-opacity="1" /><path clip-path="url(#clip940)" d="M44.7161 635.845 L47.5806 635.845 L47.5806 662.772 Q53.6281 662.39 56.8109 659.143 Q59.9619 655.865 59.9619 650.04 Q59.9619 646.666 59.1344 643.515 Q58.3069 640.332 56.6518 637.213 L62.1899 637.213 Q63.5267 640.364 64.227 643.674 Q64.9272 646.985 64.9272 650.39 Q64.9272 658.92 59.9619 663.917 Q54.9967 668.883 46.5303 668.883 Q37.7774 668.883 32.6531 664.172 Q27.4968 659.43 27.4968 651.409 Q27.4968 644.215 32.1438 640.046 Q36.7589 635.845 44.7161 635.845 M42.9973 641.701 Q38.1912 641.765 35.3266 644.406 Q32.4621 647.016 32.4621 651.345 Q32.4621 656.247 35.2312 659.207 Q38.0002 662.135 43.0292 662.581 L42.9973 641.701 Z" fill="#000000" fill-rule="evenodd" fill-opacity="1" /><path clip-path="url(#clip940)" d="M14.479 626.232 L14.479 620.376 L64.0042 620.376 L64.0042 626.232 L14.479 626.232 Z" fill="#000000" fill-rule="evenodd" fill-opacity="1" /><path clip-path="url(#clip940)" d="M32.4621 594.308 Q32.4621 599.019 36.1542 601.756 Q39.8145 604.493 46.212 604.493 Q52.6095 604.493 56.3017 601.788 Q59.9619 599.051 59.9619 594.308 Q59.9619 589.63 56.2698 586.892 Q52.5777 584.155 46.212 584.155 Q39.8781 584.155 36.186 586.892 Q32.4621 589.63 32.4621 594.308 M27.4968 594.308 Q27.4968 586.67 32.4621 582.309 Q37.4273 577.948 46.212 577.948 Q54.9649 577.948 59.9619 582.309 Q64.9272 586.67 64.9272 594.308 Q64.9272 601.979 59.9619 606.34 Q54.9649 610.668 46.212 610.668 Q37.4273 610.668 32.4621 606.34 Q27.4968 601.979 27.4968 594.308 Z" fill="#000000" fill-rule="evenodd" fill-opacity="1" /><path clip-path="url(#clip940)" d="M29.7248 542.587 L35.1993 542.587 Q33.8307 545.07 33.1623 547.584 Q32.4621 550.067 32.4621 552.613 Q32.4621 558.31 36.0905 561.461 Q39.6872 564.612 46.212 564.612 Q52.7369 564.612 56.3653 561.461 Q59.9619 558.31 59.9619 552.613 Q59.9619 550.067 59.2935 547.584 Q58.5933 545.07 57.2247 542.587 L62.6355 542.587 Q63.7814 545.038 64.3543 547.68 Q64.9272 550.289 64.9272 553.25 Q64.9272 561.302 59.8664 566.045 Q54.8057 570.787 46.212 570.787 Q37.491 570.787 32.4939 566.013 Q27.4968 561.207 27.4968 552.868 Q27.4968 550.162 28.0697 547.584 Q28.6108 545.006 29.7248 542.587 Z" fill="#000000" fill-rule="evenodd" fill-opacity="1" /><path clip-path="url(#clip940)" d="M28.3562 532.402 L28.3562 526.545 L64.0042 526.545 L64.0042 532.402 L28.3562 532.402 M14.479 532.402 L14.479 526.545 L21.895 526.545 L21.895 532.402 L14.479 532.402 Z" fill="#000000" fill-rule="evenodd" fill-opacity="1" /><path clip-path="url(#clip940)" d="M18.2347 508.499 L28.3562 508.499 L28.3562 496.436 L32.9077 496.436 L32.9077 508.499 L52.2594 508.499 Q56.6199 508.499 57.8613 507.321 Q59.1026 506.111 59.1026 502.451 L59.1026 496.436 L64.0042 496.436 L64.0042 502.451 Q64.0042 509.231 61.4897 511.809 Q58.9434 514.387 52.2594 514.387 L32.9077 514.387 L32.9077 518.684 L28.3562 518.684 L28.3562 514.387 L18.2347 514.387 L18.2347 508.499 Z" fill="#000000" fill-rule="evenodd" fill-opacity="1" /><path clip-path="url(#clip940)" d="M67.3143 473.901 Q73.68 476.384 75.6216 478.739 Q77.5631 481.094 77.5631 485.041 L77.5631 489.72 L72.6615 489.72 L72.6615 486.282 Q72.6615 483.863 71.5157 482.527 Q70.3699 481.19 66.1048 479.566 L63.4312 478.516 L28.3562 492.934 L28.3562 486.728 L56.238 475.588 L28.3562 464.448 L28.3562 458.241 L67.3143 473.901 Z" fill="#000000" fill-rule="evenodd" fill-opacity="1" /><polyline clip-path="url(#clip942)" style="stroke:#009af9; stroke-linecap:round; stroke-linejoin:round; stroke-width:4; stroke-opacity:1; fill:none" points="
  348.058,85.838 361.56,301.409 375.063,1236.24 388.565,691.44 402.067,1156.1 415.57,1339.29 429.072,1325.46 442.575,1372.3 456.077,1297.15 469.579,1189.75 
  483.082,1211.45 496.584,1207.05 510.086,1172.81 523.589,1170.66 537.091,1273.16 550.594,1245.83 564.096,1111.55 577.598,1161.98 591.101,1190.35 604.603,1141.17 
  618.105,1151.23 631.608,1130.12 645.11,1180.09 658.613,1168.28 672.115,1171.75 685.617,1158.13 699.12,1099.7 712.622,1100.88 726.124,1140.38 739.627,1120.04 
  753.129,1115.73 766.632,1140.26 780.134,1108.17 793.636,1115.45 807.139,1089.03 820.641,1095.21 834.143,1118.88 847.646,1096.02 861.148,1125.91 874.651,1186.52 
  888.153,1099.58 901.655,1136.68 915.158,1130.45 928.66,1135.64 942.162,1105.43 955.665,1058.56 969.167,1082.94 982.67,1085.04 996.172,1073.41 1009.67,1095.07 
  1023.18,1140.46 1036.68,1151.58 1050.18,1131.14 1063.68,1093.17 1077.19,1098.18 1090.69,1083.16 1104.19,1111.19 1117.69,1121.99 1131.2,1088.96 1144.7,1116.86 
  1158.2,1101.74 1171.7,1093.83 1185.21,1127.54 1198.71,1089.21 1212.21,1054.54 1225.71,1104.34 1239.21,1104.7 1252.72,1107.57 1266.22,1064.01 1279.72,1083.59 
  1293.22,1153.62 1306.73,1136.07 1320.23,1166.1 1333.73,1104.99 1347.23,1093.44 1360.74,1098.1 1374.24,1066.94 1387.74,1062.01 1401.24,1077.59 1414.75,1103.21 
  1428.25,1105.01 1441.75,1089.5 1455.25,1089.1 1468.76,1093.05 1482.26,1090.19 1495.76,1106.85 1509.26,1112.55 1522.76,1109.99 1536.27,1089.79 1549.77,1128.34 
  1563.27,1140.93 1576.77,1086.67 1590.28,1100.62 1603.78,1111.1 1617.28,1111.14 1630.78,1102.42 1644.29,1128.99 1657.79,1122.48 1671.29,1099.25 1684.79,1089.41 
  1698.3,1200.81 1711.8,1185.99 1725.3,1169.9 1738.8,1247.26 1752.31,1209.6 1765.81,1078.31 1779.31,1149.32 1792.81,1107.79 1806.31,1192.78 1819.82,1183.67 
  1833.32,1092.5 1846.82,1111.91 1860.32,1155.93 1873.83,1120.97 1887.33,1053.84 1900.83,1092.99 1914.33,1076.65 1927.84,1105.26 1941.34,1070.92 1954.84,1091.77 
  1968.34,1072.68 1981.85,1083.75 1995.35,1107.92 2008.85,1076.76 2022.35,1108.9 2035.86,1095.24 2049.36,1060.52 2062.86,1033.57 2076.36,1069.82 2089.86,1035.03 
  2103.37,1036.97 2116.87,1076.32 2130.37,1073.13 2143.87,1092.09 2157.38,1096.39 2170.88,1077.93 2184.38,1129.23 2197.88,1087.63 2211.39,1100.47 2224.89,1095.15 
  2238.39,1077.12 2251.89,1067.35 2265.4,1037.52 2278.9,1091.24 2292.4,1058.88 
  "/>
</svg>
