<?xml version="1.0" encoding="utf-8"?>
<svg xmlns="http://www.w3.org/2000/svg" xmlns:xlink="http://www.w3.org/1999/xlink" width="600" height="400" viewBox="0 0 2400 1600">
<defs>
  <clipPath id="clip780">
    <rect x="0" y="0" width="2400" height="1600"/>
  </clipPath>
</defs>
<path clip-path="url(#clip780)" d="
M0 1600 L2400 1600 L2400 0 L0 0  Z
  " fill="#ffffff" fill-rule="evenodd" fill-opacity="1"/>
<defs>
  <clipPath id="clip781">
    <rect x="480" y="0" width="1681" height="1600"/>
  </clipPath>
</defs>
<path clip-path="url(#clip780)" d="
M232.389 1410.9 L2352.76 1410.9 L2352.76 47.2441 L232.389 47.2441  Z
  " fill="#ffffff" fill-rule="evenodd" fill-opacity="1"/>
<defs>
  <clipPath id="clip782">
    <rect x="232" y="47" width="2121" height="1365"/>
  </clipPath>
</defs>
<polyline clip-path="url(#clip782)" style="stroke:#000000; stroke-linecap:round; stroke-linejoin:round; stroke-width:2; stroke-opacity:0.1; fill:none" points="
  278.975,1410.9 278.975,47.2441 
  "/>
<polyline clip-path="url(#clip782)" style="stroke:#000000; stroke-linecap:round; stroke-linejoin:round; stroke-width:2; stroke-opacity:0.1; fill:none" points="
  950.232,1410.9 950.232,47.2441 
  "/>
<polyline clip-path="url(#clip782)" style="stroke:#000000; stroke-linecap:round; stroke-linejoin:round; stroke-width:2; stroke-opacity:0.1; fill:none" points="
  1621.49,1410.9 1621.49,47.2441 
  "/>
<polyline clip-path="url(#clip782)" style="stroke:#000000; stroke-linecap:round; stroke-linejoin:round; stroke-width:2; stroke-opacity:0.1; fill:none" points="
  2292.75,1410.9 2292.75,47.2441 
  "/>
<polyline clip-path="url(#clip780)" style="stroke:#000000; stroke-linecap:round; stroke-linejoin:round; stroke-width:4; stroke-opacity:1; fill:none" points="
  232.389,1410.9 2352.76,1410.9 
  "/>
<polyline clip-path="url(#clip780)" style="stroke:#000000; stroke-linecap:round; stroke-linejoin:round; stroke-width:4; stroke-opacity:1; fill:none" points="
  278.975,1410.9 278.975,1392 
  "/>
<polyline clip-path="url(#clip780)" style="stroke:#000000; stroke-linecap:round; stroke-linejoin:round; stroke-width:4; stroke-opacity:1; fill:none" points="
  950.232,1410.9 950.232,1392 
  "/>
<polyline clip-path="url(#clip780)" style="stroke:#000000; stroke-linecap:round; stroke-linejoin:round; stroke-width:4; stroke-opacity:1; fill:none" points="
  1621.49,1410.9 1621.49,1392 
  "/>
<polyline clip-path="url(#clip780)" style="stroke:#000000; stroke-linecap:round; stroke-linejoin:round; stroke-width:4; stroke-opacity:1; fill:none" points="
  2292.75,1410.9 2292.75,1392 
  "/>
<path clip-path="url(#clip780)" d="M278.975 1441.82 Q275.363 1441.82 273.535 1445.38 Q271.729 1448.92 271.729 1456.05 Q271.729 1463.16 273.535 1466.72 Q275.363 1470.26 278.975 1470.26 Q282.609 1470.26 284.414 1466.72 Q286.243 1463.16 286.243 1456.05 Q286.243 1448.92 284.414 1445.38 Q282.609 1441.82 278.975 1441.82 M278.975 1438.11 Q284.785 1438.11 287.84 1442.72 Q290.919 1447.3 290.919 1456.05 Q290.919 1464.78 287.84 1469.38 Q284.785 1473.97 278.975 1473.97 Q273.164 1473.97 270.086 1469.38 Q267.03 1464.78 267.03 1456.05 Q267.03 1447.3 270.086 1442.72 Q273.164 1438.11 278.975 1438.11 Z" fill="#000000" fill-rule="evenodd" fill-opacity="1" /><path clip-path="url(#clip780)" d="M843.208 1454.4 L861.565 1454.4 L861.565 1458.33 L847.491 1458.33 L847.491 1466.8 Q848.509 1466.46 849.528 1466.29 Q850.546 1466.11 851.565 1466.11 Q857.352 1466.11 860.731 1469.28 Q864.111 1472.45 864.111 1477.87 Q864.111 1483.45 860.639 1486.55 Q857.166 1489.63 850.847 1489.63 Q848.671 1489.63 846.403 1489.26 Q844.157 1488.89 841.75 1488.15 L841.75 1483.45 Q843.833 1484.58 846.055 1485.14 Q848.278 1485.69 850.754 1485.69 Q854.759 1485.69 857.097 1483.59 Q859.435 1481.48 859.435 1477.87 Q859.435 1474.26 857.097 1472.15 Q854.759 1470.04 850.754 1470.04 Q848.879 1470.04 847.004 1470.46 Q845.153 1470.88 843.208 1471.76 L843.208 1454.4 Z" fill="#000000" fill-rule="evenodd" fill-opacity="1" /><path clip-path="url(#clip780)" d="M873.324 1483.08 L878.208 1483.08 L878.208 1488.96 L873.324 1488.96 L873.324 1483.08 Z" fill="#000000" fill-rule="evenodd" fill-opacity="1" /><path clip-path="url(#clip780)" d="M898.393 1457.48 Q894.782 1457.48 892.953 1461.04 Q891.148 1464.58 891.148 1471.71 Q891.148 1478.82 892.953 1482.38 Q894.782 1485.92 898.393 1485.92 Q902.027 1485.92 903.833 1482.38 Q905.661 1478.82 905.661 1471.71 Q905.661 1464.58 903.833 1461.04 Q902.027 1457.48 898.393 1457.48 M898.393 1453.77 Q904.203 1453.77 907.259 1458.38 Q910.337 1462.96 910.337 1471.71 Q910.337 1480.44 907.259 1485.04 Q904.203 1489.63 898.393 1489.63 Q892.583 1489.63 889.504 1485.04 Q886.449 1480.44 886.449 1471.71 Q886.449 1462.96 889.504 1458.38 Q892.583 1453.77 898.393 1453.77 Z" fill="#000000" fill-rule="evenodd" fill-opacity="1" /><path clip-path="url(#clip780)" d="M928.555 1457.48 Q924.944 1457.48 923.115 1461.04 Q921.31 1464.58 921.31 1471.71 Q921.31 1478.82 923.115 1482.38 Q924.944 1485.92 928.555 1485.92 Q932.189 1485.92 933.995 1482.38 Q935.823 1478.82 935.823 1471.71 Q935.823 1464.58 933.995 1461.04 Q932.189 1457.48 928.555 1457.48 M928.555 1453.77 Q934.365 1453.77 937.421 1458.38 Q940.499 1462.96 940.499 1471.71 Q940.499 1480.44 937.421 1485.04 Q934.365 1489.63 928.555 1489.63 Q922.745 1489.63 919.666 1485.04 Q916.611 1480.44 916.611 1471.71 Q916.611 1462.96 919.666 1458.38 Q922.745 1453.77 928.555 1453.77 Z" fill="#000000" fill-rule="evenodd" fill-opacity="1" /><path clip-path="url(#clip780)" d="M976.888 1463.49 L966.309 1474.12 L976.888 1484.7 L974.133 1487.5 L963.508 1476.87 L952.883 1487.5 L950.152 1484.7 L960.707 1474.12 L950.152 1463.49 L952.883 1460.69 L963.508 1471.32 L974.133 1460.69 L976.888 1463.49 Z" fill="#000000" fill-rule="evenodd" fill-opacity="1" /><path clip-path="url(#clip780)" d="M989.249 1485.02 L996.888 1485.02 L996.888 1458.66 L988.578 1460.32 L988.578 1456.06 L996.842 1454.4 L1001.52 1454.4 L1001.52 1485.02 L1009.16 1485.02 L1009.16 1488.96 L989.249 1488.96 L989.249 1485.02 Z" fill="#000000" fill-rule="evenodd" fill-opacity="1" /><path clip-path="url(#clip780)" d="M1028.6 1457.48 Q1024.99 1457.48 1023.16 1461.04 Q1021.36 1464.58 1021.36 1471.71 Q1021.36 1478.82 1023.16 1482.38 Q1024.99 1485.92 1028.6 1485.92 Q1032.23 1485.92 1034.04 1482.38 Q1035.87 1478.82 1035.87 1471.71 Q1035.87 1464.58 1034.04 1461.04 Q1032.23 1457.48 1028.6 1457.48 M1028.6 1453.77 Q1034.41 1453.77 1037.47 1458.38 Q1040.55 1462.96 1040.55 1471.71 Q1040.55 1480.44 1037.47 1485.04 Q1034.41 1489.63 1028.6 1489.63 Q1022.79 1489.63 1019.71 1485.04 Q1016.66 1480.44 1016.66 1471.71 Q1016.66 1462.96 1019.71 1458.38 Q1022.79 1453.77 1028.6 1453.77 Z" fill="#000000" fill-rule="evenodd" fill-opacity="1" /><path clip-path="url(#clip780)" d="M1041.73 1433.47 L1056.64 1433.47 L1056.64 1436.66 L1045.21 1436.66 L1045.21 1443.55 Q1046.04 1443.27 1046.86 1443.13 Q1047.69 1442.98 1048.52 1442.98 Q1053.22 1442.98 1055.97 1445.56 Q1058.71 1448.14 1058.71 1452.54 Q1058.71 1457.07 1055.89 1459.59 Q1053.07 1462.09 1047.94 1462.09 Q1046.17 1462.09 1044.33 1461.79 Q1042.5 1461.49 1040.55 1460.89 L1040.55 1457.07 Q1042.24 1457.99 1044.04 1458.44 Q1045.85 1458.89 1047.86 1458.89 Q1051.11 1458.89 1053.01 1457.18 Q1054.91 1455.47 1054.91 1452.54 Q1054.91 1449.6 1053.01 1447.89 Q1051.11 1446.18 1047.86 1446.18 Q1046.34 1446.18 1044.81 1446.52 Q1043.31 1446.86 1041.73 1447.57 L1041.73 1433.47 Z" fill="#000000" fill-rule="evenodd" fill-opacity="1" /><path clip-path="url(#clip780)" d="M1513.84 1485.02 L1521.48 1485.02 L1521.48 1458.66 L1513.17 1460.32 L1513.17 1456.06 L1521.43 1454.4 L1526.11 1454.4 L1526.11 1485.02 L1533.75 1485.02 L1533.75 1488.96 L1513.84 1488.96 L1513.84 1485.02 Z" fill="#000000" fill-rule="evenodd" fill-opacity="1" /><path clip-path="url(#clip780)" d="M1543.19 1483.08 L1548.08 1483.08 L1548.08 1488.96 L1543.19 1488.96 L1543.19 1483.08 Z" fill="#000000" fill-rule="evenodd" fill-opacity="1" /><path clip-path="url(#clip780)" d="M1568.26 1457.48 Q1564.65 1457.48 1562.82 1461.04 Q1561.02 1464.58 1561.02 1471.71 Q1561.02 1478.82 1562.82 1482.38 Q1564.65 1485.92 1568.26 1485.92 Q1571.9 1485.92 1573.7 1482.38 Q1575.53 1478.82 1575.53 1471.71 Q1575.53 1464.58 1573.7 1461.04 Q1571.9 1457.48 1568.26 1457.48 M1568.26 1453.77 Q1574.07 1453.77 1577.13 1458.38 Q1580.21 1462.96 1580.21 1471.71 Q1580.21 1480.44 1577.13 1485.04 Q1574.07 1489.63 1568.26 1489.63 Q1562.45 1489.63 1559.37 1485.04 Q1556.32 1480.44 1556.32 1471.71 Q1556.32 1462.96 1559.37 1458.38 Q1562.45 1453.77 1568.26 1453.77 Z" fill="#000000" fill-rule="evenodd" fill-opacity="1" /><path clip-path="url(#clip780)" d="M1598.43 1457.48 Q1594.81 1457.48 1592.99 1461.04 Q1591.18 1464.58 1591.18 1471.71 Q1591.18 1478.82 1592.99 1482.38 Q1594.81 1485.92 1598.43 1485.92 Q1602.06 1485.92 1603.86 1482.38 Q1605.69 1478.82 1605.69 1471.71 Q1605.69 1464.58 1603.86 1461.04 Q1602.06 1457.48 1598.43 1457.48 M1598.43 1453.77 Q1604.24 1453.77 1607.29 1458.38 Q1610.37 1462.96 1610.37 1471.71 Q1610.37 1480.44 1607.29 1485.04 Q1604.24 1489.63 1598.43 1489.63 Q1592.62 1489.63 1589.54 1485.04 Q1586.48 1480.44 1586.48 1471.71 Q1586.48 1462.96 1589.54 1458.38 Q1592.62 1453.77 1598.43 1453.77 Z" fill="#000000" fill-rule="evenodd" fill-opacity="1" /><path clip-path="url(#clip780)" d="M1646.76 1463.49 L1636.18 1474.12 L1646.76 1484.7 L1644 1487.5 L1633.38 1476.87 L1622.75 1487.5 L1620.02 1484.7 L1630.58 1474.12 L1620.02 1463.49 L1622.75 1460.69 L1633.38 1471.32 L1644 1460.69 L1646.76 1463.49 Z" fill="#000000" fill-rule="evenodd" fill-opacity="1" /><path clip-path="url(#clip780)" d="M1659.12 1485.02 L1666.76 1485.02 L1666.76 1458.66 L1658.45 1460.32 L1658.45 1456.06 L1666.71 1454.4 L1671.39 1454.4 L1671.39 1485.02 L1679.03 1485.02 L1679.03 1488.96 L1659.12 1488.96 L1659.12 1485.02 Z" fill="#000000" fill-rule="evenodd" fill-opacity="1" /><path clip-path="url(#clip780)" d="M1698.47 1457.48 Q1694.86 1457.48 1693.03 1461.04 Q1691.23 1464.58 1691.23 1471.71 Q1691.23 1478.82 1693.03 1482.38 Q1694.86 1485.92 1698.47 1485.92 Q1702.11 1485.92 1703.91 1482.38 Q1705.74 1478.82 1705.74 1471.71 Q1705.74 1464.58 1703.91 1461.04 Q1702.11 1457.48 1698.47 1457.48 M1698.47 1453.77 Q1704.28 1453.77 1707.34 1458.38 Q1710.42 1462.96 1710.42 1471.71 Q1710.42 1480.44 1707.34 1485.04 Q1704.28 1489.63 1698.47 1489.63 Q1692.66 1489.63 1689.58 1485.04 Q1686.53 1480.44 1686.53 1471.71 Q1686.53 1462.96 1689.58 1458.38 Q1692.66 1453.77 1698.47 1453.77 Z" fill="#000000" fill-rule="evenodd" fill-opacity="1" /><path clip-path="url(#clip780)" d="M1720.44 1445.99 Q1717.88 1445.99 1716.38 1447.74 Q1714.89 1449.49 1714.89 1452.54 Q1714.89 1455.57 1716.38 1457.33 Q1717.88 1459.08 1720.44 1459.08 Q1723 1459.08 1724.48 1457.33 Q1725.99 1455.57 1725.99 1452.54 Q1725.99 1449.49 1724.48 1447.74 Q1723 1445.99 1720.44 1445.99 M1727.98 1434.09 L1727.98 1437.55 Q1726.55 1436.87 1725.09 1436.51 Q1723.64 1436.16 1722.21 1436.16 Q1718.45 1436.16 1716.45 1438.69 Q1714.48 1441.23 1714.2 1446.37 Q1715.31 1444.73 1716.98 1443.87 Q1718.65 1442.98 1720.67 1442.98 Q1724.9 1442.98 1727.34 1445.56 Q1729.81 1448.12 1729.81 1452.54 Q1729.81 1456.86 1727.25 1459.48 Q1724.69 1462.09 1720.44 1462.09 Q1715.57 1462.09 1712.99 1458.37 Q1710.42 1454.62 1710.42 1447.53 Q1710.42 1440.88 1713.58 1436.93 Q1716.73 1432.96 1722.06 1432.96 Q1723.49 1432.96 1724.93 1433.24 Q1726.4 1433.52 1727.98 1434.09 Z" fill="#000000" fill-rule="evenodd" fill-opacity="1" /><path clip-path="url(#clip780)" d="M2185.1 1485.02 L2192.74 1485.02 L2192.74 1458.66 L2184.43 1460.32 L2184.43 1456.06 L2192.69 1454.4 L2197.37 1454.4 L2197.37 1485.02 L2205.01 1485.02 L2205.01 1488.96 L2185.1 1488.96 L2185.1 1485.02 Z" fill="#000000" fill-rule="evenodd" fill-opacity="1" /><path clip-path="url(#clip780)" d="M2214.45 1483.08 L2219.34 1483.08 L2219.34 1488.96 L2214.45 1488.96 L2214.45 1483.08 Z" fill="#000000" fill-rule="evenodd" fill-opacity="1" /><path clip-path="url(#clip780)" d="M2229.57 1454.4 L2247.92 1454.4 L2247.92 1458.33 L2233.85 1458.33 L2233.85 1466.8 Q2234.87 1466.46 2235.89 1466.29 Q2236.9 1466.11 2237.92 1466.11 Q2243.71 1466.11 2247.09 1469.28 Q2250.47 1472.45 2250.47 1477.87 Q2250.47 1483.45 2247 1486.55 Q2243.52 1489.63 2237.21 1489.63 Q2235.03 1489.63 2232.76 1489.26 Q2230.52 1488.89 2228.11 1488.15 L2228.11 1483.45 Q2230.19 1484.58 2232.41 1485.14 Q2234.64 1485.69 2237.11 1485.69 Q2241.12 1485.69 2243.46 1483.59 Q2245.79 1481.48 2245.79 1477.87 Q2245.79 1474.26 2243.46 1472.15 Q2241.12 1470.04 2237.11 1470.04 Q2235.24 1470.04 2233.36 1470.46 Q2231.51 1470.88 2229.57 1471.76 L2229.57 1454.4 Z" fill="#000000" fill-rule="evenodd" fill-opacity="1" /><path clip-path="url(#clip780)" d="M2269.68 1457.48 Q2266.07 1457.48 2264.24 1461.04 Q2262.44 1464.58 2262.44 1471.71 Q2262.44 1478.82 2264.24 1482.38 Q2266.07 1485.92 2269.68 1485.92 Q2273.32 1485.92 2275.12 1482.38 Q2276.95 1478.82 2276.95 1471.71 Q2276.95 1464.58 2275.12 1461.04 Q2273.32 1457.48 2269.68 1457.48 M2269.68 1453.77 Q2275.49 1453.77 2278.55 1458.38 Q2281.63 1462.96 2281.63 1471.71 Q2281.63 1480.44 2278.55 1485.04 Q2275.49 1489.63 2269.68 1489.63 Q2263.87 1489.63 2260.79 1485.04 Q2257.74 1480.44 2257.74 1471.71 Q2257.74 1462.96 2260.79 1458.38 Q2263.87 1453.77 2269.68 1453.77 Z" fill="#000000" fill-rule="evenodd" fill-opacity="1" /><path clip-path="url(#clip780)" d="M2318.02 1463.49 L2307.44 1474.12 L2318.02 1484.7 L2315.26 1487.5 L2304.64 1476.87 L2294.01 1487.5 L2291.28 1484.7 L2301.83 1474.12 L2291.28 1463.49 L2294.01 1460.69 L2304.64 1471.32 L2315.26 1460.69 L2318.02 1463.49 Z" fill="#000000" fill-rule="evenodd" fill-opacity="1" /><path clip-path="url(#clip780)" d="M2330.38 1485.02 L2338.02 1485.02 L2338.02 1458.66 L2329.7 1460.32 L2329.7 1456.06 L2337.97 1454.4 L2342.64 1454.4 L2342.64 1485.02 L2350.28 1485.02 L2350.28 1488.96 L2330.38 1488.96 L2330.38 1485.02 Z" fill="#000000" fill-rule="evenodd" fill-opacity="1" /><path clip-path="url(#clip780)" d="M2369.73 1457.48 Q2366.12 1457.48 2364.29 1461.04 Q2362.48 1464.58 2362.48 1471.71 Q2362.48 1478.82 2364.29 1482.38 Q2366.12 1485.92 2369.73 1485.92 Q2373.36 1485.92 2375.17 1482.38 Q2377 1478.82 2377 1471.71 Q2377 1464.58 2375.17 1461.04 Q2373.36 1457.48 2369.73 1457.48 M2369.73 1453.77 Q2375.54 1453.77 2378.59 1458.38 Q2381.67 1462.96 2381.67 1471.71 Q2381.67 1480.44 2378.59 1485.04 Q2375.54 1489.63 2369.73 1489.63 Q2363.92 1489.63 2360.84 1485.04 Q2357.78 1480.44 2357.78 1471.71 Q2357.78 1462.96 2360.84 1458.38 Q2363.92 1453.77 2369.73 1453.77 Z" fill="#000000" fill-rule="evenodd" fill-opacity="1" /><path clip-path="url(#clip780)" d="M2391.7 1445.99 Q2389.14 1445.99 2387.63 1447.74 Q2386.15 1449.49 2386.15 1452.54 Q2386.15 1455.57 2387.63 1457.33 Q2389.14 1459.08 2391.7 1459.08 Q2394.25 1459.08 2395.74 1457.33 Q2397.25 1455.57 2397.25 1452.54 Q2397.25 1449.49 2395.74 1447.74 Q2394.25 1445.99 2391.7 1445.99 M2399.24 1434.09 L2399.24 1437.55 Q2397.81 1436.87 2396.34 1436.51 Q2394.89 1436.16 2393.46 1436.16 Q2389.7 1436.16 2387.71 1438.69 Q2385.73 1441.23 2385.45 1446.37 Q2386.56 1444.73 2388.24 1443.87 Q2389.91 1442.98 2391.92 1442.98 Q2396.15 1442.98 2398.6 1445.56 Q2401.06 1448.12 2401.06 1452.54 Q2401.06 1456.86 2398.51 1459.48 Q2395.95 1462.09 2391.7 1462.09 Q2386.83 1462.09 2384.25 1458.37 Q2381.67 1454.62 2381.67 1447.53 Q2381.67 1440.88 2384.83 1436.93 Q2387.99 1432.96 2393.31 1432.96 Q2394.74 1432.96 2396.19 1433.24 Q2397.66 1433.52 2399.24 1434.09 Z" fill="#000000" fill-rule="evenodd" fill-opacity="1" /><path clip-path="url(#clip780)" d="M1142.14 1526.67 L1148.56 1526.67 L1148.56 1574.19 L1142.14 1574.19 L1142.14 1526.67 Z" fill="#000000" fill-rule="evenodd" fill-opacity="1" /><path clip-path="url(#clip780)" d="M1166.9 1528.42 L1166.9 1538.54 L1178.96 1538.54 L1178.96 1543.09 L1166.9 1543.09 L1166.9 1562.44 Q1166.9 1566.8 1168.08 1568.04 Q1169.28 1569.28 1172.95 1569.28 L1178.96 1569.28 L1178.96 1574.19 L1172.95 1574.19 Q1166.17 1574.19 1163.59 1571.67 Q1161.01 1569.12 1161.01 1562.44 L1161.01 1543.09 L1156.71 1543.09 L1156.71 1538.54 L1161.01 1538.54 L1161.01 1528.42 L1166.9 1528.42 Z" fill="#000000" fill-rule="evenodd" fill-opacity="1" /><path clip-path="url(#clip780)" d="M1217.15 1554.9 L1217.15 1557.76 L1190.23 1557.76 Q1190.61 1563.81 1193.86 1566.99 Q1197.13 1570.14 1202.96 1570.14 Q1206.33 1570.14 1209.48 1569.32 Q1212.67 1568.49 1215.79 1566.83 L1215.79 1572.37 Q1212.64 1573.71 1209.33 1574.41 Q1206.01 1575.11 1202.61 1575.11 Q1194.08 1575.11 1189.08 1570.14 Q1184.12 1565.18 1184.12 1556.71 Q1184.12 1547.96 1188.83 1542.83 Q1193.57 1537.68 1201.59 1537.68 Q1208.78 1537.68 1212.95 1542.33 Q1217.15 1546.94 1217.15 1554.9 M1211.3 1553.18 Q1211.23 1548.37 1208.59 1545.51 Q1205.98 1542.64 1201.65 1542.64 Q1196.75 1542.64 1193.79 1545.41 Q1190.86 1548.18 1190.42 1553.21 L1211.3 1553.18 Z" fill="#000000" fill-rule="evenodd" fill-opacity="1" /><path clip-path="url(#clip780)" d="M1247.42 1544.01 Q1246.44 1543.44 1245.26 1543.18 Q1244.11 1542.9 1242.71 1542.9 Q1237.75 1542.9 1235.07 1546.14 Q1232.43 1549.36 1232.43 1555.41 L1232.43 1574.19 L1226.54 1574.19 L1226.54 1538.54 L1232.43 1538.54 L1232.43 1544.08 Q1234.28 1540.83 1237.24 1539.27 Q1240.2 1537.68 1244.43 1537.68 Q1245.04 1537.68 1245.77 1537.77 Q1246.5 1537.84 1247.39 1538 L1247.42 1544.01 Z" fill="#000000" fill-rule="evenodd" fill-opacity="1" /><path clip-path="url(#clip780)" d="M1269.77 1556.27 Q1262.67 1556.27 1259.93 1557.89 Q1257.2 1559.51 1257.2 1563.43 Q1257.2 1566.55 1259.23 1568.39 Q1261.3 1570.21 1264.83 1570.21 Q1269.7 1570.21 1272.63 1566.77 Q1275.59 1563.3 1275.59 1557.57 L1275.59 1556.27 L1269.77 1556.27 M1281.45 1553.85 L1281.45 1574.19 L1275.59 1574.19 L1275.59 1568.77 Q1273.59 1572.02 1270.6 1573.58 Q1267.6 1575.11 1263.27 1575.11 Q1257.8 1575.11 1254.55 1572.05 Q1251.34 1568.97 1251.34 1563.81 Q1251.34 1557.79 1255.35 1554.74 Q1259.39 1551.68 1267.38 1551.68 L1275.59 1551.68 L1275.59 1551.11 Q1275.59 1547.07 1272.92 1544.87 Q1270.28 1542.64 1265.47 1542.64 Q1262.42 1542.64 1259.52 1543.38 Q1256.62 1544.11 1253.95 1545.57 L1253.95 1540.16 Q1257.16 1538.92 1260.19 1538.31 Q1263.21 1537.68 1266.08 1537.68 Q1273.81 1537.68 1277.63 1541.69 Q1281.45 1545.7 1281.45 1553.85 Z" fill="#000000" fill-rule="evenodd" fill-opacity="1" /><path clip-path="url(#clip780)" d="M1299.3 1528.42 L1299.3 1538.54 L1311.37 1538.54 L1311.37 1543.09 L1299.3 1543.09 L1299.3 1562.44 Q1299.3 1566.8 1300.48 1568.04 Q1301.69 1569.28 1305.35 1569.28 L1311.37 1569.28 L1311.37 1574.19 L1305.35 1574.19 Q1298.57 1574.19 1295.99 1571.67 Q1293.42 1569.12 1293.42 1562.44 L1293.42 1543.09 L1289.12 1543.09 L1289.12 1538.54 L1293.42 1538.54 L1293.42 1528.42 L1299.3 1528.42 Z" fill="#000000" fill-rule="evenodd" fill-opacity="1" /><path clip-path="url(#clip780)" d="M1319.07 1538.54 L1324.93 1538.54 L1324.93 1574.19 L1319.07 1574.19 L1319.07 1538.54 M1319.07 1524.66 L1324.93 1524.66 L1324.93 1532.08 L1319.07 1532.08 L1319.07 1524.66 Z" fill="#000000" fill-rule="evenodd" fill-opacity="1" /><path clip-path="url(#clip780)" d="M1350.99 1542.64 Q1346.28 1542.64 1343.55 1546.34 Q1340.81 1550 1340.81 1556.39 Q1340.81 1562.79 1343.51 1566.48 Q1346.25 1570.14 1350.99 1570.14 Q1355.67 1570.14 1358.41 1566.45 Q1361.15 1562.76 1361.15 1556.39 Q1361.15 1550.06 1358.41 1546.37 Q1355.67 1542.64 1350.99 1542.64 M1350.99 1537.68 Q1358.63 1537.68 1362.99 1542.64 Q1367.35 1547.61 1367.35 1556.39 Q1367.35 1565.15 1362.99 1570.14 Q1358.63 1575.11 1350.99 1575.11 Q1343.32 1575.11 1338.96 1570.14 Q1334.63 1565.15 1334.63 1556.39 Q1334.63 1547.61 1338.96 1542.64 Q1343.32 1537.68 1350.99 1537.68 Z" fill="#000000" fill-rule="evenodd" fill-opacity="1" /><path clip-path="url(#clip780)" d="M1406.69 1552.67 L1406.69 1574.19 L1400.84 1574.19 L1400.84 1552.86 Q1400.84 1547.8 1398.86 1545.29 Q1396.89 1542.77 1392.94 1542.77 Q1388.2 1542.77 1385.46 1545.79 Q1382.73 1548.82 1382.73 1554.04 L1382.73 1574.19 L1376.84 1574.19 L1376.84 1538.54 L1382.73 1538.54 L1382.73 1544.08 Q1384.83 1540.86 1387.66 1539.27 Q1390.52 1537.68 1394.25 1537.68 Q1400.39 1537.68 1403.54 1541.5 Q1406.69 1545.29 1406.69 1552.67 Z" fill="#000000" fill-rule="evenodd" fill-opacity="1" /><path clip-path="url(#clip780)" d="M1441.1 1539.59 L1441.1 1545.13 Q1438.62 1543.85 1435.94 1543.22 Q1433.27 1542.58 1430.41 1542.58 Q1426.05 1542.58 1423.85 1543.92 Q1421.69 1545.25 1421.69 1547.93 Q1421.69 1549.96 1423.24 1551.14 Q1424.8 1552.29 1429.51 1553.34 L1431.52 1553.78 Q1437.76 1555.12 1440.37 1557.57 Q1443.01 1559.99 1443.01 1564.35 Q1443.01 1569.32 1439.06 1572.21 Q1435.15 1575.11 1428.27 1575.11 Q1425.41 1575.11 1422.29 1574.54 Q1419.2 1573.99 1415.76 1572.88 L1415.76 1566.83 Q1419.01 1568.52 1422.16 1569.38 Q1425.31 1570.21 1428.4 1570.21 Q1432.54 1570.21 1434.77 1568.81 Q1436.99 1567.37 1436.99 1564.8 Q1436.99 1562.41 1435.37 1561.14 Q1433.78 1559.86 1428.34 1558.68 L1426.3 1558.21 Q1420.86 1557.06 1418.44 1554.71 Q1416.02 1552.32 1416.02 1548.18 Q1416.02 1543.15 1419.58 1540.42 Q1423.15 1537.68 1429.71 1537.68 Q1432.95 1537.68 1435.82 1538.16 Q1438.68 1538.63 1441.1 1539.59 Z" fill="#000000" fill-rule="evenodd" fill-opacity="1" /><polyline clip-path="url(#clip782)" style="stroke:#000000; stroke-linecap:round; stroke-linejoin:round; stroke-width:2; stroke-opacity:0.1; fill:none" points="
  232.389,1233.72 2352.76,1233.72 
  "/>
<polyline clip-path="url(#clip782)" style="stroke:#000000; stroke-linecap:round; stroke-linejoin:round; stroke-width:2; stroke-opacity:0.1; fill:none" points="
  232.389,857.799 2352.76,857.799 
  "/>
<polyline clip-path="url(#clip782)" style="stroke:#000000; stroke-linecap:round; stroke-linejoin:round; stroke-width:2; stroke-opacity:0.1; fill:none" points="
  232.389,481.878 2352.76,481.878 
  "/>
<polyline clip-path="url(#clip782)" style="stroke:#000000; stroke-linecap:round; stroke-linejoin:round; stroke-width:2; stroke-opacity:0.1; fill:none" points="
  232.389,105.957 2352.76,105.957 
  "/>
<polyline clip-path="url(#clip780)" style="stroke:#000000; stroke-linecap:round; stroke-linejoin:round; stroke-width:4; stroke-opacity:1; fill:none" points="
  232.389,1410.9 232.389,47.2441 
  "/>
<polyline clip-path="url(#clip780)" style="stroke:#000000; stroke-linecap:round; stroke-linejoin:round; stroke-width:4; stroke-opacity:1; fill:none" points="
  232.389,1233.72 251.287,1233.72 
  "/>
<polyline clip-path="url(#clip780)" style="stroke:#000000; stroke-linecap:round; stroke-linejoin:round; stroke-width:4; stroke-opacity:1; fill:none" points="
  232.389,857.799 251.287,857.799 
  "/>
<polyline clip-path="url(#clip780)" style="stroke:#000000; stroke-linecap:round; stroke-linejoin:round; stroke-width:4; stroke-opacity:1; fill:none" points="
  232.389,481.878 251.287,481.878 
  "/>
<polyline clip-path="url(#clip780)" style="stroke:#000000; stroke-linecap:round; stroke-linejoin:round; stroke-width:4; stroke-opacity:1; fill:none" points="
  232.389,105.957 251.287,105.957 
  "/>
<path clip-path="url(#clip780)" d="M184.445 1219.52 Q180.834 1219.52 179.005 1223.08 Q177.2 1226.63 177.2 1233.75 Q177.2 1240.86 179.005 1244.43 Q180.834 1247.97 184.445 1247.97 Q188.079 1247.97 189.885 1244.43 Q191.713 1240.86 191.713 1233.75 Q191.713 1226.63 189.885 1223.08 Q188.079 1219.52 184.445 1219.52 M184.445 1215.81 Q190.255 1215.81 193.311 1220.42 Q196.389 1225 196.389 1233.75 Q196.389 1242.48 193.311 1247.09 Q190.255 1251.67 184.445 1251.67 Q178.635 1251.67 175.556 1247.09 Q172.501 1242.48 172.501 1233.75 Q172.501 1225 175.556 1220.42 Q178.635 1215.81 184.445 1215.81 Z" fill="#000000" fill-rule="evenodd" fill-opacity="1" /><path clip-path="url(#clip780)" d="M144.329 840.519 L162.686 840.519 L162.686 844.454 L148.612 844.454 L148.612 852.926 Q149.63 852.579 150.649 852.417 Q151.667 852.232 152.686 852.232 Q158.473 852.232 161.852 855.403 Q165.232 858.574 165.232 863.991 Q165.232 869.57 161.76 872.672 Q158.288 875.75 151.968 875.75 Q149.792 875.75 147.524 875.38 Q145.279 875.01 142.871 874.269 L142.871 869.57 Q144.954 870.704 147.177 871.26 Q149.399 871.815 151.876 871.815 Q155.88 871.815 158.218 869.709 Q160.556 867.602 160.556 863.991 Q160.556 860.38 158.218 858.274 Q155.88 856.167 151.876 856.167 Q150.001 856.167 148.126 856.584 Q146.274 857 144.329 857.88 L144.329 840.519 Z" fill="#000000" fill-rule="evenodd" fill-opacity="1" /><path clip-path="url(#clip780)" d="M184.445 843.598 Q180.834 843.598 179.005 847.163 Q177.2 850.704 177.2 857.834 Q177.2 864.94 179.005 868.505 Q180.834 872.047 184.445 872.047 Q188.079 872.047 189.885 868.505 Q191.713 864.94 191.713 857.834 Q191.713 850.704 189.885 847.163 Q188.079 843.598 184.445 843.598 M184.445 839.894 Q190.255 839.894 193.311 844.5 Q196.389 849.084 196.389 857.834 Q196.389 866.561 193.311 871.167 Q190.255 875.75 184.445 875.75 Q178.635 875.75 175.556 871.167 Q172.501 866.561 172.501 857.834 Q172.501 849.084 175.556 844.5 Q178.635 839.894 184.445 839.894 Z" fill="#000000" fill-rule="evenodd" fill-opacity="1" /><path clip-path="url(#clip780)" d="M114.931 495.223 L122.57 495.223 L122.57 468.857 L114.26 470.524 L114.26 466.265 L122.524 464.598 L127.2 464.598 L127.2 495.223 L134.839 495.223 L134.839 499.158 L114.931 499.158 L114.931 495.223 Z" fill="#000000" fill-rule="evenodd" fill-opacity="1" /><path clip-path="url(#clip780)" d="M154.283 467.677 Q150.672 467.677 148.843 471.242 Q147.038 474.783 147.038 481.913 Q147.038 489.019 148.843 492.584 Q150.672 496.126 154.283 496.126 Q157.917 496.126 159.723 492.584 Q161.552 489.019 161.552 481.913 Q161.552 474.783 159.723 471.242 Q157.917 467.677 154.283 467.677 M154.283 463.973 Q160.093 463.973 163.149 468.58 Q166.227 473.163 166.227 481.913 Q166.227 490.64 163.149 495.246 Q160.093 499.829 154.283 499.829 Q148.473 499.829 145.394 495.246 Q142.339 490.64 142.339 481.913 Q142.339 473.163 145.394 468.58 Q148.473 463.973 154.283 463.973 Z" fill="#000000" fill-rule="evenodd" fill-opacity="1" /><path clip-path="url(#clip780)" d="M184.445 467.677 Q180.834 467.677 179.005 471.242 Q177.2 474.783 177.2 481.913 Q177.2 489.019 179.005 492.584 Q180.834 496.126 184.445 496.126 Q188.079 496.126 189.885 492.584 Q191.713 489.019 191.713 481.913 Q191.713 474.783 189.885 471.242 Q188.079 467.677 184.445 467.677 M184.445 463.973 Q190.255 463.973 193.311 468.58 Q196.389 473.163 196.389 481.913 Q196.389 490.64 193.311 495.246 Q190.255 499.829 184.445 499.829 Q178.635 499.829 175.556 495.246 Q172.501 490.64 172.501 481.913 Q172.501 473.163 175.556 468.58 Q178.635 463.973 184.445 463.973 Z" fill="#000000" fill-rule="evenodd" fill-opacity="1" /><path clip-path="url(#clip780)" d="M114.931 119.302 L122.57 119.302 L122.57 92.9366 L114.26 94.6032 L114.26 90.344 L122.524 88.6773 L127.2 88.6773 L127.2 119.302 L134.839 119.302 L134.839 123.237 L114.931 123.237 L114.931 119.302 Z" fill="#000000" fill-rule="evenodd" fill-opacity="1" /><path clip-path="url(#clip780)" d="M144.329 88.6773 L162.686 88.6773 L162.686 92.6125 L148.612 92.6125 L148.612 101.085 Q149.63 100.737 150.649 100.575 Q151.667 100.39 152.686 100.39 Q158.473 100.39 161.852 103.561 Q165.232 106.733 165.232 112.149 Q165.232 117.728 161.76 120.83 Q158.288 123.909 151.968 123.909 Q149.792 123.909 147.524 123.538 Q145.279 123.168 142.871 122.427 L142.871 117.728 Q144.954 118.862 147.177 119.418 Q149.399 119.973 151.876 119.973 Q155.88 119.973 158.218 117.867 Q160.556 115.761 160.556 112.149 Q160.556 108.538 158.218 106.432 Q155.88 104.325 151.876 104.325 Q150.001 104.325 148.126 104.742 Q146.274 105.159 144.329 106.038 L144.329 88.6773 Z" fill="#000000" fill-rule="evenodd" fill-opacity="1" /><path clip-path="url(#clip780)" d="M184.445 91.756 Q180.834 91.756 179.005 95.3208 Q177.2 98.8624 177.2 105.992 Q177.2 113.098 179.005 116.663 Q180.834 120.205 184.445 120.205 Q188.079 120.205 189.885 116.663 Q191.713 113.098 191.713 105.992 Q191.713 98.8624 189.885 95.3208 Q188.079 91.756 184.445 91.756 M184.445 88.0523 Q190.255 88.0523 193.311 92.6588 Q196.389 97.2421 196.389 105.992 Q196.389 114.719 193.311 119.325 Q190.255 123.909 184.445 123.909 Q178.635 123.909 175.556 119.325 Q172.501 114.719 172.501 105.992 Q172.501 97.2421 175.556 92.6588 Q178.635 88.0523 184.445 88.0523 Z" fill="#000000" fill-rule="evenodd" fill-opacity="1" /><path clip-path="url(#clip780)" d="M41.7242 821.755 Q42.4244 819.686 44.7161 817.745 Q47.0077 815.771 51.0181 813.798 L64.0042 807.273 L64.0042 814.18 L51.8138 820.259 Q47.0395 822.614 45.48 824.842 Q43.9204 827.039 43.9204 830.858 L43.9204 837.86 L64.0042 837.86 L64.0042 844.29 L16.4842 844.29 L16.4842 829.776 Q16.4842 821.628 19.8898 817.617 Q23.2955 813.607 30.1704 813.607 Q34.6582 813.607 37.6183 815.708 Q40.5784 817.776 41.7242 821.755 M21.7677 837.86 L38.6368 837.86 L38.6368 829.776 Q38.6368 825.129 36.5043 822.774 Q34.34 820.386 30.1704 820.386 Q26.0009 820.386 23.9002 822.774 Q21.7677 825.129 21.7677 829.776 L21.7677 837.86 Z" fill="#000000" fill-rule="evenodd" fill-opacity="1" /><path clip-path="url(#clip780)" d="M44.7161 771.689 L47.5806 771.689 L47.5806 798.616 Q53.6281 798.234 56.8109 794.987 Q59.9619 791.709 59.9619 785.884 Q59.9619 782.51 59.1344 779.359 Q58.3069 776.177 56.6518 773.057 L62.1899 773.057 Q63.5267 776.208 64.227 779.519 Q64.9272 782.829 64.9272 786.234 Q64.9272 794.764 59.9619 799.762 Q54.9967 804.727 46.5303 804.727 Q37.7774 804.727 32.6531 800.016 Q27.4968 795.274 27.4968 787.253 Q27.4968 780.06 32.1438 775.89 Q36.7589 771.689 44.7161 771.689 M42.9973 777.545 Q38.1912 777.609 35.3266 780.251 Q32.4621 782.861 32.4621 787.189 Q32.4621 792.091 35.2312 795.051 Q38.0002 797.979 43.0292 798.425 L42.9973 777.545 Z" fill="#000000" fill-rule="evenodd" fill-opacity="1" /><path clip-path="url(#clip780)" d="M28.3562 765.482 L28.3562 759.626 L56.1743 752.305 L28.3562 745.016 L28.3562 738.11 L56.1743 730.789 L28.3562 723.5 L28.3562 717.644 L64.0042 726.97 L64.0042 733.876 L34.7856 741.547 L64.0042 749.25 L64.0042 756.156 L28.3562 765.482 Z" fill="#000000" fill-rule="evenodd" fill-opacity="1" /><path clip-path="url(#clip780)" d="M46.0847 692.563 Q46.0847 699.661 47.7079 702.398 Q49.3312 705.135 53.2461 705.135 Q56.3653 705.135 58.2114 703.098 Q60.0256 701.029 60.0256 697.496 Q60.0256 692.627 56.5881 689.698 Q53.1188 686.738 47.3897 686.738 L46.0847 686.738 L46.0847 692.563 M43.6657 680.882 L64.0042 680.882 L64.0042 686.738 L58.5933 686.738 Q61.8398 688.744 63.3994 691.735 Q64.9272 694.727 64.9272 699.056 Q64.9272 704.531 61.8716 707.777 Q58.7843 710.992 53.6281 710.992 Q47.6125 710.992 44.5569 706.981 Q41.5014 702.939 41.5014 694.95 L41.5014 686.738 L40.9285 686.738 Q36.8862 686.738 34.6901 689.412 Q32.4621 692.054 32.4621 696.86 Q32.4621 699.915 33.1941 702.812 Q33.9262 705.708 35.3903 708.382 L29.9795 708.382 Q28.7381 705.167 28.1334 702.143 Q27.4968 699.12 27.4968 696.255 Q27.4968 688.521 31.5072 684.701 Q35.5176 680.882 43.6657 680.882 Z" fill="#000000" fill-rule="evenodd" fill-opacity="1" /><path clip-path="url(#clip780)" d="M33.8307 648.162 Q33.2578 649.149 33.0032 650.327 Q32.7167 651.472 32.7167 652.873 Q32.7167 657.838 35.9632 660.512 Q39.1779 663.153 45.2253 663.153 L64.0042 663.153 L64.0042 669.042 L28.3562 669.042 L28.3562 663.153 L33.8944 663.153 Q30.6479 661.307 29.0883 658.347 Q27.4968 655.387 27.4968 651.154 Q27.4968 650.549 27.5923 649.817 Q27.656 649.085 27.8151 648.194 L33.8307 648.162 Z" fill="#000000" fill-rule="evenodd" fill-opacity="1" /><path clip-path="url(#clip780)" d="M33.7671 619.708 L14.479 619.708 L14.479 613.851 L64.0042 613.851 L64.0042 619.708 L58.657 619.708 Q61.8398 621.554 63.3994 624.386 Q64.9272 627.187 64.9272 631.134 Q64.9272 637.595 59.771 641.669 Q54.6147 645.711 46.212 645.711 Q37.8093 645.711 32.6531 641.669 Q27.4968 637.595 27.4968 631.134 Q27.4968 627.187 29.0564 624.386 Q30.5842 621.554 33.7671 619.708 M46.212 639.664 Q52.6732 639.664 56.3653 637.022 Q60.0256 634.349 60.0256 629.702 Q60.0256 625.055 56.3653 622.381 Q52.6732 619.708 46.212 619.708 Q39.7508 619.708 36.0905 622.381 Q32.3984 625.055 32.3984 629.702 Q32.3984 634.349 36.0905 637.022 Q39.7508 639.664 46.212 639.664 Z" fill="#000000" fill-rule="evenodd" fill-opacity="1" /><polyline clip-path="url(#clip782)" style="stroke:#009af9; stroke-linecap:round; stroke-linejoin:round; stroke-width:4; stroke-opacity:1; fill:none" points="
  292.4,1372.3 305.825,1356.15 319.25,1286.86 332.675,1226.04 346.1,1194.07 359.525,1118.76 372.951,1117.46 386.376,1059.28 399.801,966.249 413.226,855.247 
  426.651,600.642 440.076,480.956 453.501,373.606 466.927,359.852 480.352,377.654 493.777,249.358 507.202,216.733 520.627,215.532 534.052,170.942 547.477,232.044 
  560.903,187.589 574.328,233.197 587.753,163.429 601.178,151.297 614.603,183.691 628.028,183.817 641.453,175.685 654.878,108.866 668.304,153.778 681.729,132.968 
  695.154,154.496 708.579,149.13 722.004,121.956 735.429,164.919 748.854,138.736 762.28,173.03 775.705,173.358 789.13,128.964 802.555,129.183 815.98,152.324 
  829.405,111.329 842.83,129.321 856.256,146.026 869.681,115.071 883.106,147.296 896.531,123.268 909.956,172.721 923.381,143.746 936.806,117.181 950.232,146.008 
  963.657,188.815 977.082,166.783 990.507,130.278 1003.93,176.572 1017.36,124.107 1030.78,129.794 1044.21,128.418 1057.63,164.121 1071.06,121.047 1084.48,121.372 
  1097.91,133.809 1111.33,112.522 1124.76,121.518 1138.18,118.442 1151.61,111.058 1165.03,151.086 1178.46,130.991 1191.88,133.405 1205.31,120.626 1218.73,170.162 
  1232.16,97.7109 1245.58,114.709 1259.01,90.4303 1272.43,96.6788 1285.86,117.042 1299.29,92.8807 1312.71,85.838 1326.14,118.178 1339.56,125.044 1352.99,178.842 
  1366.41,133.449 1379.84,162.217 1393.26,171.54 1406.69,131.878 1420.11,115.858 1433.54,118.263 1446.96,157.069 1460.39,169.741 1473.81,167.252 1487.24,177.106 
  1500.66,151.42 1514.09,109.838 1527.51,115.926 1540.94,110.656 1554.36,146.141 1567.79,122.113 1581.21,140.61 1594.64,166.437 1608.06,219.876 1621.49,168.625 
  1634.91,163.902 1648.34,144.536 1661.76,139.669 1675.19,156.224 1688.61,176.143 1702.04,159.146 1715.46,149.209 1728.89,199.509 1742.31,143.373 1755.74,170.793 
  1769.17,186.078 1782.59,158.318 1796.02,171 1809.44,137.112 1822.87,154.167 1836.29,135.115 1849.72,145.839 1863.14,122.496 1876.57,139.85 1889.99,169.407 
  1903.42,135.366 1916.84,173.57 1930.27,189.126 1943.69,187.261 1957.12,118.214 1970.54,162.755 1983.97,153.666 1997.39,163.219 2010.82,170.33 2024.24,132.578 
  2037.67,174.971 2051.09,211.486 2064.52,175.115 2077.94,153.384 2091.37,257.014 2104.79,222.611 2118.22,232.973 2131.64,198.455 2145.07,197.125 2158.49,151.245 
  2171.92,190.067 2185.34,162.659 2198.77,192.281 2212.19,255.875 2225.62,221.393 2239.04,194.706 2252.47,221.233 2265.9,211.355 2279.32,140.745 2292.75,197.682 
  
  "/>
</svg>
