<?xml version="1.0" encoding="utf-8"?>
<svg xmlns="http://www.w3.org/2000/svg" xmlns:xlink="http://www.w3.org/1999/xlink" width="600" height="400" viewBox="0 0 2400 1600">
<defs>
  <clipPath id="clip150">
    <rect x="0" y="0" width="2400" height="1600"/>
  </clipPath>
</defs>
<path clip-path="url(#clip150)" d="
M0 1600 L2400 1600 L2400 0 L0 0  Z
  " fill="#ffffff" fill-rule="evenodd" fill-opacity="1"/>
<defs>
  <clipPath id="clip151">
    <rect x="480" y="0" width="1681" height="1600"/>
  </clipPath>
</defs>
<path clip-path="url(#clip150)" d="
M220.19 1410.9 L2352.76 1410.9 L2352.76 47.2441 L220.19 47.2441  Z
  " fill="#ffffff" fill-rule="evenodd" fill-opacity="1"/>
<defs>
  <clipPath id="clip152">
    <rect x="220" y="47" width="2134" height="1365"/>
  </clipPath>
</defs>
<polyline clip-path="url(#clip152)" style="stroke:#000000; stroke-linecap:round; stroke-linejoin:round; stroke-width:2; stroke-opacity:0.1; fill:none" points="
  267.044,1410.9 267.044,47.2441 
  "/>
<polyline clip-path="url(#clip152)" style="stroke:#000000; stroke-linecap:round; stroke-linejoin:round; stroke-width:2; stroke-opacity:0.1; fill:none" points="
  942.162,1410.9 942.162,47.2441 
  "/>
<polyline clip-path="url(#clip152)" style="stroke:#000000; stroke-linecap:round; stroke-linejoin:round; stroke-width:2; stroke-opacity:0.1; fill:none" points="
  1617.28,1410.9 1617.28,47.2441 
  "/>
<polyline clip-path="url(#clip152)" style="stroke:#000000; stroke-linecap:round; stroke-linejoin:round; stroke-width:2; stroke-opacity:0.1; fill:none" points="
  2292.4,1410.9 2292.4,47.2441 
  "/>
<polyline clip-path="url(#clip150)" style="stroke:#000000; stroke-linecap:round; stroke-linejoin:round; stroke-width:4; stroke-opacity:1; fill:none" points="
  220.19,1410.9 2352.76,1410.9 
  "/>
<polyline clip-path="url(#clip150)" style="stroke:#000000; stroke-linecap:round; stroke-linejoin:round; stroke-width:4; stroke-opacity:1; fill:none" points="
  267.044,1410.9 267.044,1392 
  "/>
<polyline clip-path="url(#clip150)" style="stroke:#000000; stroke-linecap:round; stroke-linejoin:round; stroke-width:4; stroke-opacity:1; fill:none" points="
  942.162,1410.9 942.162,1392 
  "/>
<polyline clip-path="url(#clip150)" style="stroke:#000000; stroke-linecap:round; stroke-linejoin:round; stroke-width:4; stroke-opacity:1; fill:none" points="
  1617.28,1410.9 1617.28,1392 
  "/>
<polyline clip-path="url(#clip150)" style="stroke:#000000; stroke-linecap:round; stroke-linejoin:round; stroke-width:4; stroke-opacity:1; fill:none" points="
  2292.4,1410.9 2292.4,1392 
  "/>
<path clip-path="url(#clip150)" d="M267.044 1441.82 Q263.432 1441.82 261.604 1445.38 Q259.798 1448.92 259.798 1456.05 Q259.798 1463.16 261.604 1466.72 Q263.432 1470.26 267.044 1470.26 Q270.678 1470.26 272.483 1466.72 Q274.312 1463.16 274.312 1456.05 Q274.312 1448.92 272.483 1445.38 Q270.678 1441.82 267.044 1441.82 M267.044 1438.11 Q272.854 1438.11 275.909 1442.72 Q278.988 1447.3 278.988 1456.05 Q278.988 1464.78 275.909 1469.38 Q272.854 1473.97 267.044 1473.97 Q261.233 1473.97 258.155 1469.38 Q255.099 1464.78 255.099 1456.05 Q255.099 1447.3 258.155 1442.72 Q261.233 1438.11 267.044 1438.11 Z" fill="#000000" fill-rule="evenodd" fill-opacity="1" /><path clip-path="url(#clip150)" d="M835.139 1454.4 L853.495 1454.4 L853.495 1458.33 L839.421 1458.33 L839.421 1466.8 Q840.44 1466.46 841.458 1466.29 Q842.477 1466.11 843.495 1466.11 Q849.282 1466.11 852.662 1469.28 Q856.042 1472.45 856.042 1477.87 Q856.042 1483.45 852.57 1486.55 Q849.097 1489.63 842.778 1489.63 Q840.602 1489.63 838.333 1489.26 Q836.088 1488.89 833.681 1488.15 L833.681 1483.45 Q835.764 1484.58 837.986 1485.14 Q840.208 1485.69 842.685 1485.69 Q846.69 1485.69 849.028 1483.59 Q851.366 1481.48 851.366 1477.87 Q851.366 1474.26 849.028 1472.15 Q846.69 1470.04 842.685 1470.04 Q840.81 1470.04 838.935 1470.46 Q837.083 1470.88 835.139 1471.76 L835.139 1454.4 Z" fill="#000000" fill-rule="evenodd" fill-opacity="1" /><path clip-path="url(#clip150)" d="M865.255 1483.08 L870.139 1483.08 L870.139 1488.96 L865.255 1488.96 L865.255 1483.08 Z" fill="#000000" fill-rule="evenodd" fill-opacity="1" /><path clip-path="url(#clip150)" d="M890.324 1457.48 Q886.713 1457.48 884.884 1461.04 Q883.079 1464.58 883.079 1471.71 Q883.079 1478.82 884.884 1482.38 Q886.713 1485.92 890.324 1485.92 Q893.958 1485.92 895.764 1482.38 Q897.592 1478.82 897.592 1471.71 Q897.592 1464.58 895.764 1461.04 Q893.958 1457.48 890.324 1457.48 M890.324 1453.77 Q896.134 1453.77 899.19 1458.38 Q902.268 1462.96 902.268 1471.71 Q902.268 1480.44 899.19 1485.04 Q896.134 1489.63 890.324 1489.63 Q884.514 1489.63 881.435 1485.04 Q878.38 1480.44 878.38 1471.71 Q878.38 1462.96 881.435 1458.38 Q884.514 1453.77 890.324 1453.77 Z" fill="#000000" fill-rule="evenodd" fill-opacity="1" /><path clip-path="url(#clip150)" d="M920.486 1457.48 Q916.875 1457.48 915.046 1461.04 Q913.24 1464.58 913.24 1471.71 Q913.24 1478.82 915.046 1482.38 Q916.875 1485.92 920.486 1485.92 Q924.12 1485.92 925.926 1482.38 Q927.754 1478.82 927.754 1471.71 Q927.754 1464.58 925.926 1461.04 Q924.12 1457.48 920.486 1457.48 M920.486 1453.77 Q926.296 1453.77 929.352 1458.38 Q932.43 1462.96 932.43 1471.71 Q932.43 1480.44 929.352 1485.04 Q926.296 1489.63 920.486 1489.63 Q914.676 1489.63 911.597 1485.04 Q908.541 1480.44 908.541 1471.71 Q908.541 1462.96 911.597 1458.38 Q914.676 1453.77 920.486 1453.77 Z" fill="#000000" fill-rule="evenodd" fill-opacity="1" /><path clip-path="url(#clip150)" d="M968.819 1463.49 L958.24 1474.12 L968.819 1484.7 L966.064 1487.5 L955.439 1476.87 L944.814 1487.5 L942.083 1484.7 L952.638 1474.12 L942.083 1463.49 L944.814 1460.69 L955.439 1471.32 L966.064 1460.69 L968.819 1463.49 Z" fill="#000000" fill-rule="evenodd" fill-opacity="1" /><path clip-path="url(#clip150)" d="M981.18 1485.02 L988.819 1485.02 L988.819 1458.66 L980.509 1460.32 L980.509 1456.06 L988.772 1454.4 L993.448 1454.4 L993.448 1485.02 L1001.09 1485.02 L1001.09 1488.96 L981.18 1488.96 L981.18 1485.02 Z" fill="#000000" fill-rule="evenodd" fill-opacity="1" /><path clip-path="url(#clip150)" d="M1020.53 1457.48 Q1016.92 1457.48 1015.09 1461.04 Q1013.29 1464.58 1013.29 1471.71 Q1013.29 1478.82 1015.09 1482.38 Q1016.92 1485.92 1020.53 1485.92 Q1024.17 1485.92 1025.97 1482.38 Q1027.8 1478.82 1027.8 1471.71 Q1027.8 1464.58 1025.97 1461.04 Q1024.17 1457.48 1020.53 1457.48 M1020.53 1453.77 Q1026.34 1453.77 1029.4 1458.38 Q1032.48 1462.96 1032.48 1471.71 Q1032.48 1480.44 1029.4 1485.04 Q1026.34 1489.63 1020.53 1489.63 Q1014.72 1489.63 1011.64 1485.04 Q1008.59 1480.44 1008.59 1471.71 Q1008.59 1462.96 1011.64 1458.38 Q1014.72 1453.77 1020.53 1453.77 Z" fill="#000000" fill-rule="evenodd" fill-opacity="1" /><path clip-path="url(#clip150)" d="M1033.66 1433.47 L1048.58 1433.47 L1048.58 1436.66 L1037.14 1436.66 L1037.14 1443.55 Q1037.97 1443.27 1038.8 1443.13 Q1039.62 1442.98 1040.45 1442.98 Q1045.15 1442.98 1047.9 1445.56 Q1050.64 1448.14 1050.64 1452.54 Q1050.64 1457.07 1047.82 1459.59 Q1045 1462.09 1039.87 1462.09 Q1038.1 1462.09 1036.26 1461.79 Q1034.43 1461.49 1032.48 1460.89 L1032.48 1457.07 Q1034.17 1457.99 1035.97 1458.44 Q1037.78 1458.89 1039.79 1458.89 Q1043.05 1458.89 1044.95 1457.18 Q1046.85 1455.47 1046.85 1452.54 Q1046.85 1449.6 1044.95 1447.89 Q1043.05 1446.18 1039.79 1446.18 Q1038.27 1446.18 1036.75 1446.52 Q1035.24 1446.86 1033.66 1447.57 L1033.66 1433.47 Z" fill="#000000" fill-rule="evenodd" fill-opacity="1" /><path clip-path="url(#clip150)" d="M1509.64 1485.02 L1517.27 1485.02 L1517.27 1458.66 L1508.96 1460.32 L1508.96 1456.06 L1517.23 1454.4 L1521.9 1454.4 L1521.9 1485.02 L1529.54 1485.02 L1529.54 1488.96 L1509.64 1488.96 L1509.64 1485.02 Z" fill="#000000" fill-rule="evenodd" fill-opacity="1" /><path clip-path="url(#clip150)" d="M1538.99 1483.08 L1543.87 1483.08 L1543.87 1488.96 L1538.99 1488.96 L1538.99 1483.08 Z" fill="#000000" fill-rule="evenodd" fill-opacity="1" /><path clip-path="url(#clip150)" d="M1564.06 1457.48 Q1560.45 1457.48 1558.62 1461.04 Q1556.81 1464.58 1556.81 1471.71 Q1556.81 1478.82 1558.62 1482.38 Q1560.45 1485.92 1564.06 1485.92 Q1567.69 1485.92 1569.5 1482.38 Q1571.32 1478.82 1571.32 1471.71 Q1571.32 1464.58 1569.5 1461.04 Q1567.69 1457.48 1564.06 1457.48 M1564.06 1453.77 Q1569.87 1453.77 1572.92 1458.38 Q1576 1462.96 1576 1471.71 Q1576 1480.44 1572.92 1485.04 Q1569.87 1489.63 1564.06 1489.63 Q1558.25 1489.63 1555.17 1485.04 Q1552.11 1480.44 1552.11 1471.71 Q1552.11 1462.96 1555.17 1458.38 Q1558.25 1453.77 1564.06 1453.77 Z" fill="#000000" fill-rule="evenodd" fill-opacity="1" /><path clip-path="url(#clip150)" d="M1594.22 1457.48 Q1590.61 1457.48 1588.78 1461.04 Q1586.97 1464.58 1586.97 1471.71 Q1586.97 1478.82 1588.78 1482.38 Q1590.61 1485.92 1594.22 1485.92 Q1597.85 1485.92 1599.66 1482.38 Q1601.49 1478.82 1601.49 1471.71 Q1601.49 1464.58 1599.66 1461.04 Q1597.85 1457.48 1594.22 1457.48 M1594.22 1453.77 Q1600.03 1453.77 1603.08 1458.38 Q1606.16 1462.96 1606.16 1471.71 Q1606.16 1480.44 1603.08 1485.04 Q1600.03 1489.63 1594.22 1489.63 Q1588.41 1489.63 1585.33 1485.04 Q1582.27 1480.44 1582.27 1471.71 Q1582.27 1462.96 1585.33 1458.38 Q1588.41 1453.77 1594.22 1453.77 Z" fill="#000000" fill-rule="evenodd" fill-opacity="1" /><path clip-path="url(#clip150)" d="M1642.55 1463.49 L1631.97 1474.12 L1642.55 1484.7 L1639.8 1487.5 L1629.17 1476.87 L1618.55 1487.5 L1615.82 1484.7 L1626.37 1474.12 L1615.82 1463.49 L1618.55 1460.69 L1629.17 1471.32 L1639.8 1460.69 L1642.55 1463.49 Z" fill="#000000" fill-rule="evenodd" fill-opacity="1" /><path clip-path="url(#clip150)" d="M1654.91 1485.02 L1662.55 1485.02 L1662.55 1458.66 L1654.24 1460.32 L1654.24 1456.06 L1662.5 1454.4 L1667.18 1454.4 L1667.18 1485.02 L1674.82 1485.02 L1674.82 1488.96 L1654.91 1488.96 L1654.91 1485.02 Z" fill="#000000" fill-rule="evenodd" fill-opacity="1" /><path clip-path="url(#clip150)" d="M1694.26 1457.48 Q1690.65 1457.48 1688.82 1461.04 Q1687.02 1464.58 1687.02 1471.71 Q1687.02 1478.82 1688.82 1482.38 Q1690.65 1485.92 1694.26 1485.92 Q1697.9 1485.92 1699.7 1482.38 Q1701.53 1478.82 1701.53 1471.71 Q1701.53 1464.58 1699.7 1461.04 Q1697.9 1457.48 1694.26 1457.48 M1694.26 1453.77 Q1700.07 1453.77 1703.13 1458.38 Q1706.21 1462.96 1706.21 1471.71 Q1706.21 1480.44 1703.13 1485.04 Q1700.07 1489.63 1694.26 1489.63 Q1688.45 1489.63 1685.37 1485.04 Q1682.32 1480.44 1682.32 1471.71 Q1682.32 1462.96 1685.37 1458.38 Q1688.45 1453.77 1694.26 1453.77 Z" fill="#000000" fill-rule="evenodd" fill-opacity="1" /><path clip-path="url(#clip150)" d="M1716.23 1445.99 Q1713.67 1445.99 1712.17 1447.74 Q1710.68 1449.49 1710.68 1452.54 Q1710.68 1455.57 1712.17 1457.33 Q1713.67 1459.08 1716.23 1459.08 Q1718.79 1459.08 1720.28 1457.33 Q1721.78 1455.57 1721.78 1452.54 Q1721.78 1449.49 1720.28 1447.74 Q1718.79 1445.99 1716.23 1445.99 M1723.77 1434.09 L1723.77 1437.55 Q1722.35 1436.87 1720.88 1436.51 Q1719.43 1436.16 1718 1436.16 Q1714.24 1436.16 1712.25 1438.69 Q1710.27 1441.23 1709.99 1446.37 Q1711.1 1444.73 1712.77 1443.87 Q1714.45 1442.98 1716.46 1442.98 Q1720.69 1442.98 1723.14 1445.56 Q1725.6 1448.12 1725.6 1452.54 Q1725.6 1456.86 1723.04 1459.48 Q1720.48 1462.09 1716.23 1462.09 Q1711.36 1462.09 1708.78 1458.37 Q1706.21 1454.62 1706.21 1447.53 Q1706.21 1440.88 1709.37 1436.93 Q1712.53 1432.96 1717.85 1432.96 Q1719.28 1432.96 1720.73 1433.24 Q1722.19 1433.52 1723.77 1434.09 Z" fill="#000000" fill-rule="evenodd" fill-opacity="1" /><path clip-path="url(#clip150)" d="M2184.75 1485.02 L2192.39 1485.02 L2192.39 1458.66 L2184.08 1460.32 L2184.08 1456.06 L2192.35 1454.4 L2197.02 1454.4 L2197.02 1485.02 L2204.66 1485.02 L2204.66 1488.96 L2184.75 1488.96 L2184.75 1485.02 Z" fill="#000000" fill-rule="evenodd" fill-opacity="1" /><path clip-path="url(#clip150)" d="M2214.11 1483.08 L2218.99 1483.08 L2218.99 1488.96 L2214.11 1488.96 L2214.11 1483.08 Z" fill="#000000" fill-rule="evenodd" fill-opacity="1" /><path clip-path="url(#clip150)" d="M2229.22 1454.4 L2247.58 1454.4 L2247.58 1458.33 L2233.5 1458.33 L2233.5 1466.8 Q2234.52 1466.46 2235.54 1466.29 Q2236.56 1466.11 2237.58 1466.11 Q2243.36 1466.11 2246.74 1469.28 Q2250.12 1472.45 2250.12 1477.87 Q2250.12 1483.45 2246.65 1486.55 Q2243.18 1489.63 2236.86 1489.63 Q2234.68 1489.63 2232.42 1489.26 Q2230.17 1488.89 2227.76 1488.15 L2227.76 1483.45 Q2229.85 1484.58 2232.07 1485.14 Q2234.29 1485.69 2236.77 1485.69 Q2240.77 1485.69 2243.11 1483.59 Q2245.45 1481.48 2245.45 1477.87 Q2245.45 1474.26 2243.11 1472.15 Q2240.77 1470.04 2236.77 1470.04 Q2234.89 1470.04 2233.02 1470.46 Q2231.17 1470.88 2229.22 1471.76 L2229.22 1454.4 Z" fill="#000000" fill-rule="evenodd" fill-opacity="1" /><path clip-path="url(#clip150)" d="M2269.34 1457.48 Q2265.73 1457.48 2263.9 1461.04 Q2262.09 1464.58 2262.09 1471.71 Q2262.09 1478.82 2263.9 1482.38 Q2265.73 1485.92 2269.34 1485.92 Q2272.97 1485.92 2274.78 1482.38 Q2276.61 1478.82 2276.61 1471.71 Q2276.61 1464.58 2274.78 1461.04 Q2272.97 1457.48 2269.34 1457.48 M2269.34 1453.77 Q2275.15 1453.77 2278.2 1458.38 Q2281.28 1462.96 2281.28 1471.71 Q2281.28 1480.44 2278.2 1485.04 Q2275.15 1489.63 2269.34 1489.63 Q2263.53 1489.63 2260.45 1485.04 Q2257.39 1480.44 2257.39 1471.71 Q2257.39 1462.96 2260.45 1458.38 Q2263.53 1453.77 2269.34 1453.77 Z" fill="#000000" fill-rule="evenodd" fill-opacity="1" /><path clip-path="url(#clip150)" d="M2317.67 1463.49 L2307.09 1474.12 L2317.67 1484.7 L2314.92 1487.5 L2304.29 1476.87 L2293.67 1487.5 L2290.93 1484.7 L2301.49 1474.12 L2290.93 1463.49 L2293.67 1460.69 L2304.29 1471.32 L2314.92 1460.69 L2317.67 1463.49 Z" fill="#000000" fill-rule="evenodd" fill-opacity="1" /><path clip-path="url(#clip150)" d="M2330.03 1485.02 L2337.67 1485.02 L2337.67 1458.66 L2329.36 1460.32 L2329.36 1456.06 L2337.62 1454.4 L2342.3 1454.4 L2342.3 1485.02 L2349.94 1485.02 L2349.94 1488.96 L2330.03 1488.96 L2330.03 1485.02 Z" fill="#000000" fill-rule="evenodd" fill-opacity="1" /><path clip-path="url(#clip150)" d="M2369.38 1457.48 Q2365.77 1457.48 2363.94 1461.04 Q2362.14 1464.58 2362.14 1471.71 Q2362.14 1478.82 2363.94 1482.38 Q2365.77 1485.92 2369.38 1485.92 Q2373.02 1485.92 2374.82 1482.38 Q2376.65 1478.82 2376.65 1471.71 Q2376.65 1464.58 2374.82 1461.04 Q2373.02 1457.48 2369.38 1457.48 M2369.38 1453.77 Q2375.19 1453.77 2378.25 1458.38 Q2381.33 1462.96 2381.33 1471.71 Q2381.33 1480.44 2378.25 1485.04 Q2375.19 1489.63 2369.38 1489.63 Q2363.57 1489.63 2360.49 1485.04 Q2357.44 1480.44 2357.44 1471.71 Q2357.44 1462.96 2360.49 1458.38 Q2363.57 1453.77 2369.38 1453.77 Z" fill="#000000" fill-rule="evenodd" fill-opacity="1" /><path clip-path="url(#clip150)" d="M2391.35 1445.99 Q2388.79 1445.99 2387.29 1447.74 Q2385.8 1449.49 2385.8 1452.54 Q2385.8 1455.57 2387.29 1457.33 Q2388.79 1459.08 2391.35 1459.08 Q2393.91 1459.08 2395.4 1457.33 Q2396.9 1455.57 2396.9 1452.54 Q2396.9 1449.49 2395.4 1447.74 Q2393.91 1445.99 2391.35 1445.99 M2398.89 1434.09 L2398.89 1437.55 Q2397.46 1436.87 2396 1436.51 Q2394.55 1436.16 2393.12 1436.16 Q2389.36 1436.16 2387.36 1438.69 Q2385.39 1441.23 2385.11 1446.37 Q2386.22 1444.73 2387.89 1443.87 Q2389.56 1442.98 2391.58 1442.98 Q2395.81 1442.98 2398.25 1445.56 Q2400.72 1448.12 2400.72 1452.54 Q2400.72 1456.86 2398.16 1459.48 Q2395.6 1462.09 2391.35 1462.09 Q2386.48 1462.09 2383.9 1458.37 Q2381.33 1454.62 2381.33 1447.53 Q2381.33 1440.88 2384.49 1436.93 Q2387.65 1432.96 2392.97 1432.96 Q2394.4 1432.96 2395.85 1433.24 Q2397.31 1433.52 2398.89 1434.09 Z" fill="#000000" fill-rule="evenodd" fill-opacity="1" /><path clip-path="url(#clip150)" d="M1136.04 1526.67 L1142.46 1526.67 L1142.46 1574.19 L1136.04 1574.19 L1136.04 1526.67 Z" fill="#000000" fill-rule="evenodd" fill-opacity="1" /><path clip-path="url(#clip150)" d="M1160.8 1528.42 L1160.8 1538.54 L1172.86 1538.54 L1172.86 1543.09 L1160.8 1543.09 L1160.8 1562.44 Q1160.8 1566.8 1161.98 1568.04 Q1163.19 1569.28 1166.85 1569.28 L1172.86 1569.28 L1172.86 1574.19 L1166.85 1574.19 Q1160.07 1574.19 1157.49 1571.67 Q1154.91 1569.12 1154.91 1562.44 L1154.91 1543.09 L1150.61 1543.09 L1150.61 1538.54 L1154.91 1538.54 L1154.91 1528.42 L1160.8 1528.42 Z" fill="#000000" fill-rule="evenodd" fill-opacity="1" /><path clip-path="url(#clip150)" d="M1211.06 1554.9 L1211.06 1557.76 L1184.13 1557.76 Q1184.51 1563.81 1187.76 1566.99 Q1191.04 1570.14 1196.86 1570.14 Q1200.23 1570.14 1203.38 1569.32 Q1206.57 1568.49 1209.69 1566.83 L1209.69 1572.37 Q1206.54 1573.71 1203.23 1574.41 Q1199.92 1575.11 1196.51 1575.11 Q1187.98 1575.11 1182.98 1570.14 Q1178.02 1565.18 1178.02 1556.71 Q1178.02 1547.96 1182.73 1542.83 Q1187.47 1537.68 1195.49 1537.68 Q1202.68 1537.68 1206.85 1542.33 Q1211.06 1546.94 1211.06 1554.9 M1205.2 1553.18 Q1205.14 1548.37 1202.49 1545.51 Q1199.88 1542.64 1195.55 1542.64 Q1190.65 1542.64 1187.69 1545.41 Q1184.77 1548.18 1184.32 1553.21 L1205.2 1553.18 Z" fill="#000000" fill-rule="evenodd" fill-opacity="1" /><path clip-path="url(#clip150)" d="M1241.32 1544.01 Q1240.34 1543.44 1239.16 1543.18 Q1238.01 1542.9 1236.61 1542.9 Q1231.65 1542.9 1228.97 1546.14 Q1226.33 1549.36 1226.33 1555.41 L1226.33 1574.19 L1220.44 1574.19 L1220.44 1538.54 L1226.33 1538.54 L1226.33 1544.08 Q1228.18 1540.83 1231.14 1539.27 Q1234.1 1537.68 1238.33 1537.68 Q1238.94 1537.68 1239.67 1537.77 Q1240.4 1537.84 1241.29 1538 L1241.32 1544.01 Z" fill="#000000" fill-rule="evenodd" fill-opacity="1" /><path clip-path="url(#clip150)" d="M1263.67 1556.27 Q1256.57 1556.27 1253.83 1557.89 Q1251.1 1559.51 1251.1 1563.43 Q1251.1 1566.55 1253.13 1568.39 Q1255.2 1570.21 1258.73 1570.21 Q1263.6 1570.21 1266.53 1566.77 Q1269.49 1563.3 1269.49 1557.57 L1269.49 1556.27 L1263.67 1556.27 M1275.35 1553.85 L1275.35 1574.19 L1269.49 1574.19 L1269.49 1568.77 Q1267.49 1572.02 1264.5 1573.58 Q1261.5 1575.11 1257.17 1575.11 Q1251.7 1575.11 1248.45 1572.05 Q1245.24 1568.97 1245.24 1563.81 Q1245.24 1557.79 1249.25 1554.74 Q1253.29 1551.68 1261.28 1551.68 L1269.49 1551.68 L1269.49 1551.11 Q1269.49 1547.07 1266.82 1544.87 Q1264.18 1542.64 1259.37 1542.64 Q1256.32 1542.64 1253.42 1543.38 Q1250.52 1544.11 1247.85 1545.57 L1247.85 1540.16 Q1251.06 1538.92 1254.09 1538.31 Q1257.11 1537.68 1259.98 1537.68 Q1267.71 1537.68 1271.53 1541.69 Q1275.35 1545.7 1275.35 1553.85 Z" fill="#000000" fill-rule="evenodd" fill-opacity="1" /><path clip-path="url(#clip150)" d="M1293.2 1528.42 L1293.2 1538.54 L1305.27 1538.54 L1305.27 1543.09 L1293.2 1543.09 L1293.2 1562.44 Q1293.2 1566.8 1294.38 1568.04 Q1295.59 1569.28 1299.25 1569.28 L1305.27 1569.28 L1305.27 1574.19 L1299.25 1574.19 Q1292.47 1574.19 1289.89 1571.67 Q1287.32 1569.12 1287.32 1562.44 L1287.32 1543.09 L1283.02 1543.09 L1283.02 1538.54 L1287.32 1538.54 L1287.32 1528.42 L1293.2 1528.42 Z" fill="#000000" fill-rule="evenodd" fill-opacity="1" /><path clip-path="url(#clip150)" d="M1312.97 1538.54 L1318.83 1538.54 L1318.83 1574.19 L1312.97 1574.19 L1312.97 1538.54 M1312.97 1524.66 L1318.83 1524.66 L1318.83 1532.08 L1312.97 1532.08 L1312.97 1524.66 Z" fill="#000000" fill-rule="evenodd" fill-opacity="1" /><path clip-path="url(#clip150)" d="M1344.89 1542.64 Q1340.18 1542.64 1337.45 1546.34 Q1334.71 1550 1334.71 1556.39 Q1334.71 1562.79 1337.41 1566.48 Q1340.15 1570.14 1344.89 1570.14 Q1349.57 1570.14 1352.31 1566.45 Q1355.05 1562.76 1355.05 1556.39 Q1355.05 1550.06 1352.31 1546.37 Q1349.57 1542.64 1344.89 1542.64 M1344.89 1537.68 Q1352.53 1537.68 1356.89 1542.64 Q1361.25 1547.61 1361.25 1556.39 Q1361.25 1565.15 1356.89 1570.14 Q1352.53 1575.11 1344.89 1575.11 Q1337.22 1575.11 1332.86 1570.14 Q1328.53 1565.15 1328.53 1556.39 Q1328.53 1547.61 1332.86 1542.64 Q1337.22 1537.68 1344.89 1537.68 Z" fill="#000000" fill-rule="evenodd" fill-opacity="1" /><path clip-path="url(#clip150)" d="M1400.59 1552.67 L1400.59 1574.19 L1394.74 1574.19 L1394.74 1552.86 Q1394.74 1547.8 1392.76 1545.29 Q1390.79 1542.77 1386.84 1542.77 Q1382.1 1542.77 1379.36 1545.79 Q1376.63 1548.82 1376.63 1554.04 L1376.63 1574.19 L1370.74 1574.19 L1370.74 1538.54 L1376.63 1538.54 L1376.63 1544.08 Q1378.73 1540.86 1381.56 1539.27 Q1384.43 1537.68 1388.15 1537.68 Q1394.29 1537.68 1397.44 1541.5 Q1400.59 1545.29 1400.59 1552.67 Z" fill="#000000" fill-rule="evenodd" fill-opacity="1" /><path clip-path="url(#clip150)" d="M1435 1539.59 L1435 1545.13 Q1432.52 1543.85 1429.84 1543.22 Q1427.17 1542.58 1424.31 1542.58 Q1419.95 1542.58 1417.75 1543.92 Q1415.59 1545.25 1415.59 1547.93 Q1415.59 1549.96 1417.15 1551.14 Q1418.7 1552.29 1423.42 1553.34 L1425.42 1553.78 Q1431.66 1555.12 1434.27 1557.57 Q1436.91 1559.99 1436.91 1564.35 Q1436.91 1569.32 1432.96 1572.21 Q1429.05 1575.11 1422.17 1575.11 Q1419.31 1575.11 1416.19 1574.54 Q1413.1 1573.99 1409.67 1572.88 L1409.67 1566.83 Q1412.91 1568.52 1416.06 1569.38 Q1419.21 1570.21 1422.3 1570.21 Q1426.44 1570.21 1428.67 1568.81 Q1430.9 1567.37 1430.9 1564.8 Q1430.9 1562.41 1429.27 1561.14 Q1427.68 1559.86 1422.24 1558.68 L1420.2 1558.21 Q1414.76 1557.06 1412.34 1554.71 Q1409.92 1552.32 1409.92 1548.18 Q1409.92 1543.15 1413.48 1540.42 Q1417.05 1537.68 1423.61 1537.68 Q1426.85 1537.68 1429.72 1538.16 Q1432.58 1538.63 1435 1539.59 Z" fill="#000000" fill-rule="evenodd" fill-opacity="1" /><polyline clip-path="url(#clip152)" style="stroke:#000000; stroke-linecap:round; stroke-linejoin:round; stroke-width:2; stroke-opacity:0.1; fill:none" points="
  220.19,1301.81 2352.76,1301.81 
  "/>
<polyline clip-path="url(#clip152)" style="stroke:#000000; stroke-linecap:round; stroke-linejoin:round; stroke-width:2; stroke-opacity:0.1; fill:none" points="
  220.19,1101.65 2352.76,1101.65 
  "/>
<polyline clip-path="url(#clip152)" style="stroke:#000000; stroke-linecap:round; stroke-linejoin:round; stroke-width:2; stroke-opacity:0.1; fill:none" points="
  220.19,901.484 2352.76,901.484 
  "/>
<polyline clip-path="url(#clip152)" style="stroke:#000000; stroke-linecap:round; stroke-linejoin:round; stroke-width:2; stroke-opacity:0.1; fill:none" points="
  220.19,701.321 2352.76,701.321 
  "/>
<polyline clip-path="url(#clip152)" style="stroke:#000000; stroke-linecap:round; stroke-linejoin:round; stroke-width:2; stroke-opacity:0.1; fill:none" points="
  220.19,501.157 2352.76,501.157 
  "/>
<polyline clip-path="url(#clip152)" style="stroke:#000000; stroke-linecap:round; stroke-linejoin:round; stroke-width:2; stroke-opacity:0.1; fill:none" points="
  220.19,300.994 2352.76,300.994 
  "/>
<polyline clip-path="url(#clip152)" style="stroke:#000000; stroke-linecap:round; stroke-linejoin:round; stroke-width:2; stroke-opacity:0.1; fill:none" points="
  220.19,100.83 2352.76,100.83 
  "/>
<polyline clip-path="url(#clip150)" style="stroke:#000000; stroke-linecap:round; stroke-linejoin:round; stroke-width:4; stroke-opacity:1; fill:none" points="
  220.19,1410.9 220.19,47.2441 
  "/>
<polyline clip-path="url(#clip150)" style="stroke:#000000; stroke-linecap:round; stroke-linejoin:round; stroke-width:4; stroke-opacity:1; fill:none" points="
  220.19,1301.81 239.088,1301.81 
  "/>
<polyline clip-path="url(#clip150)" style="stroke:#000000; stroke-linecap:round; stroke-linejoin:round; stroke-width:4; stroke-opacity:1; fill:none" points="
  220.19,1101.65 239.088,1101.65 
  "/>
<polyline clip-path="url(#clip150)" style="stroke:#000000; stroke-linecap:round; stroke-linejoin:round; stroke-width:4; stroke-opacity:1; fill:none" points="
  220.19,901.484 239.088,901.484 
  "/>
<polyline clip-path="url(#clip150)" style="stroke:#000000; stroke-linecap:round; stroke-linejoin:round; stroke-width:4; stroke-opacity:1; fill:none" points="
  220.19,701.321 239.088,701.321 
  "/>
<polyline clip-path="url(#clip150)" style="stroke:#000000; stroke-linecap:round; stroke-linejoin:round; stroke-width:4; stroke-opacity:1; fill:none" points="
  220.19,501.157 239.088,501.157 
  "/>
<polyline clip-path="url(#clip150)" style="stroke:#000000; stroke-linecap:round; stroke-linejoin:round; stroke-width:4; stroke-opacity:1; fill:none" points="
  220.19,300.994 239.088,300.994 
  "/>
<polyline clip-path="url(#clip150)" style="stroke:#000000; stroke-linecap:round; stroke-linejoin:round; stroke-width:4; stroke-opacity:1; fill:none" points="
  220.19,100.83 239.088,100.83 
  "/>
<path clip-path="url(#clip150)" d="M131.181 1300.46 Q134.538 1301.17 136.413 1303.44 Q138.311 1305.71 138.311 1309.05 Q138.311 1314.16 134.792 1316.96 Q131.274 1319.76 124.793 1319.76 Q122.617 1319.76 120.302 1319.32 Q118.01 1318.91 115.556 1318.05 L115.556 1313.54 Q117.501 1314.67 119.816 1315.25 Q122.13 1315.83 124.654 1315.83 Q129.052 1315.83 131.343 1314.09 Q133.658 1312.36 133.658 1309.05 Q133.658 1305.99 131.505 1304.28 Q129.376 1302.54 125.556 1302.54 L121.529 1302.54 L121.529 1298.7 L125.742 1298.7 Q129.191 1298.7 131.019 1297.33 Q132.848 1295.94 132.848 1293.35 Q132.848 1290.69 130.95 1289.28 Q129.075 1287.84 125.556 1287.84 Q123.635 1287.84 121.436 1288.26 Q119.237 1288.67 116.598 1289.55 L116.598 1285.39 Q119.26 1284.65 121.575 1284.28 Q123.913 1283.91 125.973 1283.91 Q131.297 1283.91 134.399 1286.34 Q137.501 1288.74 137.501 1292.86 Q137.501 1295.73 135.857 1297.73 Q134.214 1299.69 131.181 1300.46 Z" fill="#000000" fill-rule="evenodd" fill-opacity="1" /><path clip-path="url(#clip150)" d="M147.177 1313.21 L152.061 1313.21 L152.061 1319.09 L147.177 1319.09 L147.177 1313.21 Z" fill="#000000" fill-rule="evenodd" fill-opacity="1" /><path clip-path="url(#clip150)" d="M172.246 1287.61 Q168.635 1287.61 166.806 1291.17 Q165.001 1294.72 165.001 1301.85 Q165.001 1308.95 166.806 1312.52 Q168.635 1316.06 172.246 1316.06 Q175.88 1316.06 177.686 1312.52 Q179.514 1308.95 179.514 1301.85 Q179.514 1294.72 177.686 1291.17 Q175.88 1287.61 172.246 1287.61 M172.246 1283.91 Q178.056 1283.91 181.112 1288.51 Q184.19 1293.1 184.19 1301.85 Q184.19 1310.57 181.112 1315.18 Q178.056 1319.76 172.246 1319.76 Q166.436 1319.76 163.357 1315.18 Q160.302 1310.57 160.302 1301.85 Q160.302 1293.1 163.357 1288.51 Q166.436 1283.91 172.246 1283.91 Z" fill="#000000" fill-rule="evenodd" fill-opacity="1" /><path clip-path="url(#clip150)" d="M132.177 1100.29 Q135.533 1101.01 137.408 1103.28 Q139.306 1105.55 139.306 1108.88 Q139.306 1114 135.788 1116.8 Q132.269 1119.6 125.788 1119.6 Q123.612 1119.6 121.297 1119.16 Q119.006 1118.74 116.552 1117.89 L116.552 1113.37 Q118.496 1114.51 120.811 1115.09 Q123.126 1115.66 125.649 1115.66 Q130.047 1115.66 132.339 1113.93 Q134.654 1112.19 134.654 1108.88 Q134.654 1105.83 132.501 1104.11 Q130.371 1102.38 126.552 1102.38 L122.524 1102.38 L122.524 1098.53 L126.737 1098.53 Q130.186 1098.53 132.015 1097.17 Q133.843 1095.78 133.843 1093.19 Q133.843 1090.53 131.945 1089.11 Q130.07 1087.68 126.552 1087.68 Q124.63 1087.68 122.431 1088.09 Q120.232 1088.51 117.593 1089.39 L117.593 1085.22 Q120.255 1084.48 122.57 1084.11 Q124.908 1083.74 126.968 1083.74 Q132.292 1083.74 135.394 1086.17 Q138.496 1088.58 138.496 1092.7 Q138.496 1095.57 136.853 1097.56 Q135.209 1099.53 132.177 1100.29 Z" fill="#000000" fill-rule="evenodd" fill-opacity="1" /><path clip-path="url(#clip150)" d="M148.172 1113.05 L153.056 1113.05 L153.056 1118.93 L148.172 1118.93 L148.172 1113.05 Z" fill="#000000" fill-rule="evenodd" fill-opacity="1" /><path clip-path="url(#clip150)" d="M163.288 1084.37 L181.644 1084.37 L181.644 1088.3 L167.57 1088.3 L167.57 1096.78 Q168.589 1096.43 169.607 1096.27 Q170.626 1096.08 171.644 1096.08 Q177.431 1096.08 180.811 1099.25 Q184.19 1102.42 184.19 1107.84 Q184.19 1113.42 180.718 1116.52 Q177.246 1119.6 170.927 1119.6 Q168.751 1119.6 166.482 1119.23 Q164.237 1118.86 161.829 1118.12 L161.829 1113.42 Q163.913 1114.55 166.135 1115.11 Q168.357 1115.66 170.834 1115.66 Q174.839 1115.66 177.176 1113.56 Q179.514 1111.45 179.514 1107.84 Q179.514 1104.23 177.176 1102.12 Q174.839 1100.02 170.834 1100.02 Q168.959 1100.02 167.084 1100.43 Q165.232 1100.85 163.288 1101.73 L163.288 1084.37 Z" fill="#000000" fill-rule="evenodd" fill-opacity="1" /><path clip-path="url(#clip150)" d="M129.862 888.278 L118.056 906.727 L129.862 906.727 L129.862 888.278 M128.635 884.204 L134.515 884.204 L134.515 906.727 L139.445 906.727 L139.445 910.616 L134.515 910.616 L134.515 918.764 L129.862 918.764 L129.862 910.616 L114.26 910.616 L114.26 906.102 L128.635 884.204 Z" fill="#000000" fill-rule="evenodd" fill-opacity="1" /><path clip-path="url(#clip150)" d="M147.177 912.885 L152.061 912.885 L152.061 918.764 L147.177 918.764 L147.177 912.885 Z" fill="#000000" fill-rule="evenodd" fill-opacity="1" /><path clip-path="url(#clip150)" d="M172.246 887.283 Q168.635 887.283 166.806 890.848 Q165.001 894.389 165.001 901.519 Q165.001 908.625 166.806 912.19 Q168.635 915.732 172.246 915.732 Q175.88 915.732 177.686 912.19 Q179.514 908.625 179.514 901.519 Q179.514 894.389 177.686 890.848 Q175.88 887.283 172.246 887.283 M172.246 883.579 Q178.056 883.579 181.112 888.186 Q184.19 892.769 184.19 901.519 Q184.19 910.246 181.112 914.852 Q178.056 919.436 172.246 919.436 Q166.436 919.436 163.357 914.852 Q160.302 910.246 160.302 901.519 Q160.302 892.769 163.357 888.186 Q166.436 883.579 172.246 883.579 Z" fill="#000000" fill-rule="evenodd" fill-opacity="1" /><path clip-path="url(#clip150)" d="M130.857 688.115 L119.052 706.564 L130.857 706.564 L130.857 688.115 M129.63 684.041 L135.51 684.041 L135.51 706.564 L140.441 706.564 L140.441 710.453 L135.51 710.453 L135.51 718.601 L130.857 718.601 L130.857 710.453 L115.256 710.453 L115.256 705.939 L129.63 684.041 Z" fill="#000000" fill-rule="evenodd" fill-opacity="1" /><path clip-path="url(#clip150)" d="M148.172 712.721 L153.056 712.721 L153.056 718.601 L148.172 718.601 L148.172 712.721 Z" fill="#000000" fill-rule="evenodd" fill-opacity="1" /><path clip-path="url(#clip150)" d="M163.288 684.041 L181.644 684.041 L181.644 687.976 L167.57 687.976 L167.57 696.448 Q168.589 696.101 169.607 695.939 Q170.626 695.754 171.644 695.754 Q177.431 695.754 180.811 698.925 Q184.19 702.096 184.19 707.513 Q184.19 713.092 180.718 716.193 Q177.246 719.272 170.927 719.272 Q168.751 719.272 166.482 718.902 Q164.237 718.531 161.829 717.791 L161.829 713.092 Q163.913 714.226 166.135 714.781 Q168.357 715.337 170.834 715.337 Q174.839 715.337 177.176 713.23 Q179.514 711.124 179.514 707.513 Q179.514 703.902 177.176 701.795 Q174.839 699.689 170.834 699.689 Q168.959 699.689 167.084 700.106 Q165.232 700.522 163.288 701.402 L163.288 684.041 Z" fill="#000000" fill-rule="evenodd" fill-opacity="1" /><path clip-path="url(#clip150)" d="M117.061 483.877 L135.417 483.877 L135.417 487.813 L121.343 487.813 L121.343 496.285 Q122.362 495.937 123.38 495.775 Q124.399 495.59 125.418 495.59 Q131.205 495.59 134.584 498.762 Q137.964 501.933 137.964 507.349 Q137.964 512.928 134.492 516.03 Q131.019 519.109 124.7 519.109 Q122.524 519.109 120.255 518.738 Q118.01 518.368 115.603 517.627 L115.603 512.928 Q117.686 514.062 119.908 514.618 Q122.13 515.173 124.607 515.173 Q128.612 515.173 130.95 513.067 Q133.288 510.961 133.288 507.349 Q133.288 503.738 130.95 501.632 Q128.612 499.525 124.607 499.525 Q122.732 499.525 120.857 499.942 Q119.006 500.359 117.061 501.238 L117.061 483.877 Z" fill="#000000" fill-rule="evenodd" fill-opacity="1" /><path clip-path="url(#clip150)" d="M147.177 512.558 L152.061 512.558 L152.061 518.437 L147.177 518.437 L147.177 512.558 Z" fill="#000000" fill-rule="evenodd" fill-opacity="1" /><path clip-path="url(#clip150)" d="M172.246 486.956 Q168.635 486.956 166.806 490.521 Q165.001 494.062 165.001 501.192 Q165.001 508.299 166.806 511.863 Q168.635 515.405 172.246 515.405 Q175.88 515.405 177.686 511.863 Q179.514 508.299 179.514 501.192 Q179.514 494.062 177.686 490.521 Q175.88 486.956 172.246 486.956 M172.246 483.252 Q178.056 483.252 181.112 487.859 Q184.19 492.442 184.19 501.192 Q184.19 509.919 181.112 514.525 Q178.056 519.109 172.246 519.109 Q166.436 519.109 163.357 514.525 Q160.302 509.919 160.302 501.192 Q160.302 492.442 163.357 487.859 Q166.436 483.252 172.246 483.252 Z" fill="#000000" fill-rule="evenodd" fill-opacity="1" /><path clip-path="url(#clip150)" d="M118.056 283.714 L136.413 283.714 L136.413 287.649 L122.339 287.649 L122.339 296.121 Q123.357 295.774 124.376 295.612 Q125.394 295.427 126.413 295.427 Q132.2 295.427 135.579 298.598 Q138.959 301.769 138.959 307.186 Q138.959 312.765 135.487 315.866 Q132.015 318.945 125.695 318.945 Q123.519 318.945 121.251 318.575 Q119.006 318.204 116.598 317.464 L116.598 312.765 Q118.681 313.899 120.904 314.454 Q123.126 315.01 125.603 315.01 Q129.607 315.01 131.945 312.904 Q134.283 310.797 134.283 307.186 Q134.283 303.575 131.945 301.468 Q129.607 299.362 125.603 299.362 Q123.728 299.362 121.853 299.779 Q120.001 300.195 118.056 301.075 L118.056 283.714 Z" fill="#000000" fill-rule="evenodd" fill-opacity="1" /><path clip-path="url(#clip150)" d="M148.172 312.394 L153.056 312.394 L153.056 318.274 L148.172 318.274 L148.172 312.394 Z" fill="#000000" fill-rule="evenodd" fill-opacity="1" /><path clip-path="url(#clip150)" d="M163.288 283.714 L181.644 283.714 L181.644 287.649 L167.57 287.649 L167.57 296.121 Q168.589 295.774 169.607 295.612 Q170.626 295.427 171.644 295.427 Q177.431 295.427 180.811 298.598 Q184.19 301.769 184.19 307.186 Q184.19 312.765 180.718 315.866 Q177.246 318.945 170.927 318.945 Q168.751 318.945 166.482 318.575 Q164.237 318.204 161.829 317.464 L161.829 312.765 Q163.913 313.899 166.135 314.454 Q168.357 315.01 170.834 315.01 Q174.839 315.01 177.176 312.904 Q179.514 310.797 179.514 307.186 Q179.514 303.575 177.176 301.468 Q174.839 299.362 170.834 299.362 Q168.959 299.362 167.084 299.779 Q165.232 300.195 163.288 301.075 L163.288 283.714 Z" fill="#000000" fill-rule="evenodd" fill-opacity="1" /><path clip-path="url(#clip150)" d="M127.593 98.967 Q124.445 98.967 122.593 101.12 Q120.765 103.272 120.765 107.022 Q120.765 110.749 122.593 112.925 Q124.445 115.078 127.593 115.078 Q130.742 115.078 132.57 112.925 Q134.422 110.749 134.422 107.022 Q134.422 103.272 132.57 101.12 Q130.742 98.967 127.593 98.967 M136.876 84.3143 L136.876 88.5735 Q135.117 87.7402 133.311 87.3004 Q131.529 86.8605 129.769 86.8605 Q125.14 86.8605 122.686 89.9855 Q120.255 93.1105 119.908 99.4299 Q121.274 97.416 123.334 96.3512 Q125.394 95.2633 127.871 95.2633 Q133.08 95.2633 136.089 98.4346 Q139.121 101.583 139.121 107.022 Q139.121 112.347 135.973 115.564 Q132.825 118.782 127.593 118.782 Q121.598 118.782 118.427 114.198 Q115.256 109.592 115.256 100.865 Q115.256 92.6707 119.144 87.8096 Q123.033 82.9254 129.584 82.9254 Q131.343 82.9254 133.126 83.2726 Q134.931 83.6198 136.876 84.3143 Z" fill="#000000" fill-rule="evenodd" fill-opacity="1" /><path clip-path="url(#clip150)" d="M147.177 112.231 L152.061 112.231 L152.061 118.11 L147.177 118.11 L147.177 112.231 Z" fill="#000000" fill-rule="evenodd" fill-opacity="1" /><path clip-path="url(#clip150)" d="M172.246 86.6291 Q168.635 86.6291 166.806 90.1939 Q165.001 93.7355 165.001 100.865 Q165.001 107.972 166.806 111.536 Q168.635 115.078 172.246 115.078 Q175.88 115.078 177.686 111.536 Q179.514 107.972 179.514 100.865 Q179.514 93.7355 177.686 90.1939 Q175.88 86.6291 172.246 86.6291 M172.246 82.9254 Q178.056 82.9254 181.112 87.5318 Q184.19 92.1151 184.19 100.865 Q184.19 109.592 181.112 114.198 Q178.056 118.782 172.246 118.782 Q166.436 118.782 163.357 114.198 Q160.302 109.592 160.302 100.865 Q160.302 92.1151 163.357 87.5318 Q166.436 82.9254 172.246 82.9254 Z" fill="#000000" fill-rule="evenodd" fill-opacity="1" /><path clip-path="url(#clip150)" d="M22.818 978.129 L46.4666 986.85 L46.4666 969.376 L22.818 978.129 M16.4842 981.757 L16.4842 974.468 L64.0042 956.358 L64.0042 963.042 L51.8138 967.371 L51.8138 988.791 L64.0042 993.12 L64.0042 999.899 L16.4842 981.757 Z" fill="#000000" fill-rule="evenodd" fill-opacity="1" /><path clip-path="url(#clip150)" d="M28.3562 957.695 L28.3562 951.488 L58.275 940.348 L28.3562 929.208 L28.3562 923.002 L64.0042 936.37 L64.0042 944.327 L28.3562 957.695 Z" fill="#000000" fill-rule="evenodd" fill-opacity="1" /><path clip-path="url(#clip150)" d="M44.7161 884.425 L47.5806 884.425 L47.5806 911.352 Q53.6281 910.97 56.8109 907.724 Q59.9619 904.446 59.9619 898.621 Q59.9619 895.247 59.1344 892.096 Q58.3069 888.913 56.6518 885.794 L62.1899 885.794 Q63.5267 888.945 64.227 892.255 Q64.9272 895.565 64.9272 898.971 Q64.9272 907.501 59.9619 912.498 Q54.9967 917.463 46.5303 917.463 Q37.7774 917.463 32.6531 912.753 Q27.4968 908.01 27.4968 899.99 Q27.4968 892.796 32.1438 888.627 Q36.7589 884.425 44.7161 884.425 M42.9973 890.282 Q38.1912 890.346 35.3266 892.987 Q32.4621 895.597 32.4621 899.926 Q32.4621 904.828 35.2312 907.788 Q38.0002 910.716 43.0292 911.161 L42.9973 890.282 Z" fill="#000000" fill-rule="evenodd" fill-opacity="1" /><path clip-path="url(#clip150)" d="M33.8307 854.157 Q33.2578 855.143 33.0032 856.321 Q32.7167 857.467 32.7167 858.867 Q32.7167 863.832 35.9632 866.506 Q39.1779 869.148 45.2253 869.148 L64.0042 869.148 L64.0042 875.036 L28.3562 875.036 L28.3562 869.148 L33.8944 869.148 Q30.6479 867.302 29.0883 864.342 Q27.4968 861.382 27.4968 857.148 Q27.4968 856.544 27.5923 855.812 Q27.656 855.08 27.8151 854.188 L33.8307 854.157 Z" fill="#000000" fill-rule="evenodd" fill-opacity="1" /><path clip-path="url(#clip150)" d="M46.0847 831.813 Q46.0847 838.911 47.7079 841.648 Q49.3312 844.385 53.2461 844.385 Q56.3653 844.385 58.2114 842.348 Q60.0256 840.279 60.0256 836.746 Q60.0256 831.877 56.5881 828.948 Q53.1188 825.988 47.3897 825.988 L46.0847 825.988 L46.0847 831.813 M43.6657 820.132 L64.0042 820.132 L64.0042 825.988 L58.5933 825.988 Q61.8398 827.993 63.3994 830.985 Q64.9272 833.977 64.9272 838.306 Q64.9272 843.78 61.8716 847.027 Q58.7843 850.242 53.6281 850.242 Q47.6125 850.242 44.5569 846.231 Q41.5014 842.189 41.5014 834.2 L41.5014 825.988 L40.9285 825.988 Q36.8862 825.988 34.6901 828.662 Q32.4621 831.304 32.4621 836.11 Q32.4621 839.165 33.1941 842.062 Q33.9262 844.958 35.3903 847.632 L29.9795 847.632 Q28.7381 844.417 28.1334 841.393 Q27.4968 838.37 27.4968 835.505 Q27.4968 827.771 31.5072 823.951 Q35.5176 820.132 43.6657 820.132 Z" fill="#000000" fill-rule="evenodd" fill-opacity="1" /><path clip-path="url(#clip150)" d="M45.7664 784.611 Q39.4007 784.611 35.8996 787.253 Q32.3984 789.863 32.3984 794.605 Q32.3984 799.316 35.8996 801.958 Q39.4007 804.568 45.7664 804.568 Q52.1003 804.568 55.6014 801.958 Q59.1026 799.316 59.1026 794.605 Q59.1026 789.863 55.6014 787.253 Q52.1003 784.611 45.7664 784.611 M59.58 778.755 Q68.683 778.755 73.1071 782.797 Q77.5631 786.839 77.5631 795.178 Q77.5631 798.266 77.0857 801.003 Q76.6401 803.74 75.6852 806.318 L69.9879 806.318 Q71.3884 803.74 72.0568 801.226 Q72.7252 798.711 72.7252 796.101 Q72.7252 790.34 69.7015 787.476 Q66.7096 784.611 60.6303 784.611 L57.7339 784.611 Q60.885 786.425 62.4446 789.258 Q64.0042 792.091 64.0042 796.038 Q64.0042 802.594 59.0071 806.605 Q54.01 810.615 45.7664 810.615 Q37.491 810.615 32.4939 806.605 Q27.4968 802.594 27.4968 796.038 Q27.4968 792.091 29.0564 789.258 Q30.616 786.425 33.7671 784.611 L28.3562 784.611 L28.3562 778.755 L59.58 778.755 Z" fill="#000000" fill-rule="evenodd" fill-opacity="1" /><path clip-path="url(#clip150)" d="M44.7161 736.2 L47.5806 736.2 L47.5806 763.127 Q53.6281 762.745 56.8109 759.498 Q59.9619 756.22 59.9619 750.395 Q59.9619 747.022 59.1344 743.871 Q58.3069 740.688 56.6518 737.569 L62.1899 737.569 Q63.5267 740.72 64.227 744.03 Q64.9272 747.34 64.9272 750.746 Q64.9272 759.276 59.9619 764.273 Q54.9967 769.238 46.5303 769.238 Q37.7774 769.238 32.6531 764.527 Q27.4968 759.785 27.4968 751.764 Q27.4968 744.571 32.1438 740.401 Q36.7589 736.2 44.7161 736.2 M42.9973 742.056 Q38.1912 742.12 35.3266 744.762 Q32.4621 747.372 32.4621 751.7 Q32.4621 756.602 35.2312 759.562 Q38.0002 762.49 43.0292 762.936 L42.9973 742.056 Z" fill="#000000" fill-rule="evenodd" fill-opacity="1" /><path clip-path="url(#clip150)" d="M64.0042 693.359 L16.4842 711.501 L16.4842 704.785 L56.4926 689.73 L16.4842 674.644 L16.4842 667.96 L64.0042 686.07 L64.0042 693.359 Z" fill="#000000" fill-rule="evenodd" fill-opacity="1" /><path clip-path="url(#clip150)" d="M44.7161 635.845 L47.5806 635.845 L47.5806 662.772 Q53.6281 662.39 56.8109 659.143 Q59.9619 655.865 59.9619 650.04 Q59.9619 646.666 59.1344 643.515 Q58.3069 640.332 56.6518 637.213 L62.1899 637.213 Q63.5267 640.364 64.227 643.674 Q64.9272 646.985 64.9272 650.39 Q64.9272 658.92 59.9619 663.917 Q54.9967 668.883 46.5303 668.883 Q37.7774 668.883 32.6531 664.172 Q27.4968 659.43 27.4968 651.409 Q27.4968 644.215 32.1438 640.046 Q36.7589 635.845 44.7161 635.845 M42.9973 641.701 Q38.1912 641.765 35.3266 644.406 Q32.4621 647.016 32.4621 651.345 Q32.4621 656.247 35.2312 659.207 Q38.0002 662.135 43.0292 662.581 L42.9973 641.701 Z" fill="#000000" fill-rule="evenodd" fill-opacity="1" /><path clip-path="url(#clip150)" d="M14.479 626.232 L14.479 620.376 L64.0042 620.376 L64.0042 626.232 L14.479 626.232 Z" fill="#000000" fill-rule="evenodd" fill-opacity="1" /><path clip-path="url(#clip150)" d="M32.4621 594.308 Q32.4621 599.019 36.1542 601.756 Q39.8145 604.493 46.212 604.493 Q52.6095 604.493 56.3017 601.788 Q59.9619 599.051 59.9619 594.308 Q59.9619 589.63 56.2698 586.892 Q52.5777 584.155 46.212 584.155 Q39.8781 584.155 36.186 586.892 Q32.4621 589.63 32.4621 594.308 M27.4968 594.308 Q27.4968 586.67 32.4621 582.309 Q37.4273 577.948 46.212 577.948 Q54.9649 577.948 59.9619 582.309 Q64.9272 586.67 64.9272 594.308 Q64.9272 601.979 59.9619 606.34 Q54.9649 610.668 46.212 610.668 Q37.4273 610.668 32.4621 606.34 Q27.4968 601.979 27.4968 594.308 Z" fill="#000000" fill-rule="evenodd" fill-opacity="1" /><path clip-path="url(#clip150)" d="M29.7248 542.587 L35.1993 542.587 Q33.8307 545.07 33.1623 547.584 Q32.4621 550.067 32.4621 552.613 Q32.4621 558.31 36.0905 561.461 Q39.6872 564.612 46.212 564.612 Q52.7369 564.612 56.3653 561.461 Q59.9619 558.31 59.9619 552.613 Q59.9619 550.067 59.2935 547.584 Q58.5933 545.07 57.2247 542.587 L62.6355 542.587 Q63.7814 545.038 64.3543 547.68 Q64.9272 550.289 64.9272 553.25 Q64.9272 561.302 59.8664 566.045 Q54.8057 570.787 46.212 570.787 Q37.491 570.787 32.4939 566.013 Q27.4968 561.207 27.4968 552.868 Q27.4968 550.162 28.0697 547.584 Q28.6108 545.006 29.7248 542.587 Z" fill="#000000" fill-rule="evenodd" fill-opacity="1" /><path clip-path="url(#clip150)" d="M28.3562 532.402 L28.3562 526.545 L64.0042 526.545 L64.0042 532.402 L28.3562 532.402 M14.479 532.402 L14.479 526.545 L21.895 526.545 L21.895 532.402 L14.479 532.402 Z" fill="#000000" fill-rule="evenodd" fill-opacity="1" /><path clip-path="url(#clip150)" d="M18.2347 508.499 L28.3562 508.499 L28.3562 496.436 L32.9077 496.436 L32.9077 508.499 L52.2594 508.499 Q56.6199 508.499 57.8613 507.321 Q59.1026 506.111 59.1026 502.451 L59.1026 496.436 L64.0042 496.436 L64.0042 502.451 Q64.0042 509.231 61.4897 511.809 Q58.9434 514.387 52.2594 514.387 L32.9077 514.387 L32.9077 518.684 L28.3562 518.684 L28.3562 514.387 L18.2347 514.387 L18.2347 508.499 Z" fill="#000000" fill-rule="evenodd" fill-opacity="1" /><path clip-path="url(#clip150)" d="M67.3143 473.901 Q73.68 476.384 75.6216 478.739 Q77.5631 481.094 77.5631 485.041 L77.5631 489.72 L72.6615 489.72 L72.6615 486.282 Q72.6615 483.863 71.5157 482.527 Q70.3699 481.19 66.1048 479.566 L63.4312 478.516 L28.3562 492.934 L28.3562 486.728 L56.238 475.588 L28.3562 464.448 L28.3562 458.241 L67.3143 473.901 Z" fill="#000000" fill-rule="evenodd" fill-opacity="1" /><polyline clip-path="url(#clip152)" style="stroke:#009af9; stroke-linecap:round; stroke-linejoin:round; stroke-width:4; stroke-opacity:1; fill:none" points="
  280.546,1372.3 294.048,1100.82 307.551,986.508 321.053,873.829 334.555,818.698 348.058,801.4 361.56,644.612 375.063,719.101 388.565,692.633 402.067,595.482 
  415.57,700.563 429.072,644.103 442.575,512.414 456.077,586.066 469.579,481.996 483.082,635.633 496.584,646.873 510.086,586.062 523.589,537.853 537.091,517.803 
  550.594,451.011 564.096,551.792 577.598,570.812 591.101,405.397 604.603,501.122 618.105,481.078 631.608,418.817 645.11,432.8 658.613,448.465 672.115,438.044 
  685.617,383.304 699.12,426.729 712.622,483.648 726.124,463.481 739.627,526.991 753.129,416.322 766.632,474.277 780.134,431.835 793.636,554.279 807.139,443.567 
  820.641,428.632 834.143,502.456 847.646,397.254 861.148,338.53 874.651,343.354 888.153,378.961 901.655,260.451 915.158,390.659 928.66,354.186 942.162,317.84 
  955.665,321.76 969.167,196.023 982.67,219.642 996.172,302.099 1009.67,420.135 1023.18,309.656 1036.68,398.19 1050.18,329.007 1063.68,292.536 1077.19,226.364 
  1090.69,379.132 1104.19,161.496 1117.69,400.23 1131.2,308.51 1144.7,235.479 1158.2,177.871 1171.7,342.769 1185.21,329.78 1198.71,289.034 1212.21,180.981 
  1225.71,351.204 1239.21,314.872 1252.72,387.745 1266.22,247.486 1279.72,298.019 1293.22,275.215 1306.73,397.462 1320.23,332.53 1333.73,413.705 1347.23,313.614 
  1360.74,308.657 1374.24,321.862 1387.74,406.751 1401.24,304.283 1414.75,291.934 1428.25,338.786 1441.75,321.599 1455.25,230.757 1468.76,384.703 1482.26,339.822 
  1495.76,324.53 1509.26,478.877 1522.76,307.01 1536.27,341.885 1549.77,359.531 1563.27,426.443 1576.77,268.301 1590.28,247.336 1603.78,300.134 1617.28,324.814 
  1630.78,224.696 1644.29,220.031 1657.79,284.162 1671.29,218.278 1684.79,219.169 1698.3,233.974 1711.8,214.458 1725.3,368.314 1738.8,475.87 1752.31,388.37 
  1765.81,337.184 1779.31,166.91 1792.81,114.017 1806.31,310.548 1819.82,310.139 1833.32,260.247 1846.82,131.795 1860.32,253.98 1873.83,231.132 1887.33,156.815 
  1900.83,220.692 1914.33,307.516 1927.84,118.916 1941.34,161.429 1954.84,227.171 1968.34,231.295 1981.85,85.838 1995.35,189.564 2008.85,179.119 2022.35,251.694 
  2035.86,304.571 2049.36,303.475 2062.86,268.226 2076.36,277.461 2089.86,137.849 2103.37,152.488 2116.87,196.934 2130.37,300.293 2143.87,200.883 2157.38,194.429 
  2170.88,148.665 2184.38,279.983 2197.88,185.727 2211.39,224.396 2224.89,258.116 2238.39,155.32 2251.89,203.979 2265.4,196.943 2278.9,204.219 2292.4,263.118 
  
  "/>
</svg>
