<?xml version="1.0" encoding="utf-8"?>
<svg xmlns="http://www.w3.org/2000/svg" xmlns:xlink="http://www.w3.org/1999/xlink" width="600" height="400" viewBox="0 0 2400 1600">
<defs>
  <clipPath id="clip990">
    <rect x="0" y="0" width="2400" height="1600"/>
  </clipPath>
</defs>
<path clip-path="url(#clip990)" d="
M0 1600 L2400 1600 L2400 0 L0 0  Z
  " fill="#ffffff" fill-rule="evenodd" fill-opacity="1"/>
<defs>
  <clipPath id="clip991">
    <rect x="480" y="0" width="1681" height="1600"/>
  </clipPath>
</defs>
<path clip-path="url(#clip990)" d="
M249.357 1410.9 L2352.76 1410.9 L2352.76 47.2441 L249.357 47.2441  Z
  " fill="#ffffff" fill-rule="evenodd" fill-opacity="1"/>
<defs>
  <clipPath id="clip992">
    <rect x="249" y="47" width="2104" height="1365"/>
  </clipPath>
</defs>
<polyline clip-path="url(#clip992)" style="stroke:#000000; stroke-linecap:round; stroke-linejoin:round; stroke-width:2; stroke-opacity:0.1; fill:none" points="
  295.569,1410.9 295.569,47.2441 
  "/>
<polyline clip-path="url(#clip992)" style="stroke:#000000; stroke-linecap:round; stroke-linejoin:round; stroke-width:2; stroke-opacity:0.1; fill:none" points="
  961.455,1410.9 961.455,47.2441 
  "/>
<polyline clip-path="url(#clip992)" style="stroke:#000000; stroke-linecap:round; stroke-linejoin:round; stroke-width:2; stroke-opacity:0.1; fill:none" points="
  1627.34,1410.9 1627.34,47.2441 
  "/>
<polyline clip-path="url(#clip992)" style="stroke:#000000; stroke-linecap:round; stroke-linejoin:round; stroke-width:2; stroke-opacity:0.1; fill:none" points="
  2293.23,1410.9 2293.23,47.2441 
  "/>
<polyline clip-path="url(#clip990)" style="stroke:#000000; stroke-linecap:round; stroke-linejoin:round; stroke-width:4; stroke-opacity:1; fill:none" points="
  249.357,1410.9 2352.76,1410.9 
  "/>
<polyline clip-path="url(#clip990)" style="stroke:#000000; stroke-linecap:round; stroke-linejoin:round; stroke-width:4; stroke-opacity:1; fill:none" points="
  295.569,1410.9 295.569,1392 
  "/>
<polyline clip-path="url(#clip990)" style="stroke:#000000; stroke-linecap:round; stroke-linejoin:round; stroke-width:4; stroke-opacity:1; fill:none" points="
  961.455,1410.9 961.455,1392 
  "/>
<polyline clip-path="url(#clip990)" style="stroke:#000000; stroke-linecap:round; stroke-linejoin:round; stroke-width:4; stroke-opacity:1; fill:none" points="
  1627.34,1410.9 1627.34,1392 
  "/>
<polyline clip-path="url(#clip990)" style="stroke:#000000; stroke-linecap:round; stroke-linejoin:round; stroke-width:4; stroke-opacity:1; fill:none" points="
  2293.23,1410.9 2293.23,1392 
  "/>
<path clip-path="url(#clip990)" d="M295.569 1441.82 Q291.958 1441.82 290.13 1445.38 Q288.324 1448.92 288.324 1456.05 Q288.324 1463.16 290.13 1466.72 Q291.958 1470.26 295.569 1470.26 Q299.204 1470.26 301.009 1466.72 Q302.838 1463.16 302.838 1456.05 Q302.838 1448.92 301.009 1445.38 Q299.204 1441.82 295.569 1441.82 M295.569 1438.11 Q301.379 1438.11 304.435 1442.72 Q307.514 1447.3 307.514 1456.05 Q307.514 1464.78 304.435 1469.38 Q301.379 1473.97 295.569 1473.97 Q289.759 1473.97 286.68 1469.38 Q283.625 1464.78 283.625 1456.05 Q283.625 1447.3 286.68 1442.72 Q289.759 1438.11 295.569 1438.11 Z" fill="#000000" fill-rule="evenodd" fill-opacity="1" /><path clip-path="url(#clip990)" d="M854.431 1454.4 L872.788 1454.4 L872.788 1458.33 L858.714 1458.33 L858.714 1466.8 Q859.732 1466.46 860.751 1466.29 Q861.769 1466.11 862.788 1466.11 Q868.575 1466.11 871.954 1469.28 Q875.334 1472.45 875.334 1477.87 Q875.334 1483.45 871.862 1486.55 Q868.39 1489.63 862.07 1489.63 Q859.894 1489.63 857.626 1489.26 Q855.38 1488.89 852.973 1488.15 L852.973 1483.45 Q855.056 1484.58 857.279 1485.14 Q859.501 1485.69 861.978 1485.69 Q865.982 1485.69 868.32 1483.59 Q870.658 1481.48 870.658 1477.87 Q870.658 1474.26 868.32 1472.15 Q865.982 1470.04 861.978 1470.04 Q860.103 1470.04 858.228 1470.46 Q856.376 1470.88 854.431 1471.76 L854.431 1454.4 Z" fill="#000000" fill-rule="evenodd" fill-opacity="1" /><path clip-path="url(#clip990)" d="M884.547 1483.08 L889.431 1483.08 L889.431 1488.96 L884.547 1488.96 L884.547 1483.08 Z" fill="#000000" fill-rule="evenodd" fill-opacity="1" /><path clip-path="url(#clip990)" d="M909.616 1457.48 Q906.005 1457.48 904.176 1461.04 Q902.371 1464.58 902.371 1471.71 Q902.371 1478.82 904.176 1482.38 Q906.005 1485.92 909.616 1485.92 Q913.25 1485.92 915.056 1482.38 Q916.885 1478.82 916.885 1471.71 Q916.885 1464.58 915.056 1461.04 Q913.25 1457.48 909.616 1457.48 M909.616 1453.77 Q915.426 1453.77 918.482 1458.38 Q921.561 1462.96 921.561 1471.71 Q921.561 1480.44 918.482 1485.04 Q915.426 1489.63 909.616 1489.63 Q903.806 1489.63 900.727 1485.04 Q897.672 1480.44 897.672 1471.71 Q897.672 1462.96 900.727 1458.38 Q903.806 1453.77 909.616 1453.77 Z" fill="#000000" fill-rule="evenodd" fill-opacity="1" /><path clip-path="url(#clip990)" d="M939.778 1457.48 Q936.167 1457.48 934.338 1461.04 Q932.533 1464.58 932.533 1471.71 Q932.533 1478.82 934.338 1482.38 Q936.167 1485.92 939.778 1485.92 Q943.412 1485.92 945.218 1482.38 Q947.047 1478.82 947.047 1471.71 Q947.047 1464.58 945.218 1461.04 Q943.412 1457.48 939.778 1457.48 M939.778 1453.77 Q945.588 1453.77 948.644 1458.38 Q951.722 1462.96 951.722 1471.71 Q951.722 1480.44 948.644 1485.04 Q945.588 1489.63 939.778 1489.63 Q933.968 1489.63 930.889 1485.04 Q927.834 1480.44 927.834 1471.71 Q927.834 1462.96 930.889 1458.38 Q933.968 1453.77 939.778 1453.77 Z" fill="#000000" fill-rule="evenodd" fill-opacity="1" /><path clip-path="url(#clip990)" d="M988.111 1463.49 L977.533 1474.12 L988.111 1484.7 L985.357 1487.5 L974.732 1476.87 L964.107 1487.5 L961.375 1484.7 L971.931 1474.12 L961.375 1463.49 L964.107 1460.69 L974.732 1471.32 L985.357 1460.69 L988.111 1463.49 Z" fill="#000000" fill-rule="evenodd" fill-opacity="1" /><path clip-path="url(#clip990)" d="M1000.47 1485.02 L1008.11 1485.02 L1008.11 1458.66 L999.801 1460.32 L999.801 1456.06 L1008.06 1454.4 L1012.74 1454.4 L1012.74 1485.02 L1020.38 1485.02 L1020.38 1488.96 L1000.47 1488.96 L1000.47 1485.02 Z" fill="#000000" fill-rule="evenodd" fill-opacity="1" /><path clip-path="url(#clip990)" d="M1039.82 1457.48 Q1036.21 1457.48 1034.38 1461.04 Q1032.58 1464.58 1032.58 1471.71 Q1032.58 1478.82 1034.38 1482.38 Q1036.21 1485.92 1039.82 1485.92 Q1043.46 1485.92 1045.26 1482.38 Q1047.09 1478.82 1047.09 1471.71 Q1047.09 1464.58 1045.26 1461.04 Q1043.46 1457.48 1039.82 1457.48 M1039.82 1453.77 Q1045.63 1453.77 1048.69 1458.38 Q1051.77 1462.96 1051.77 1471.71 Q1051.77 1480.44 1048.69 1485.04 Q1045.63 1489.63 1039.82 1489.63 Q1034.01 1489.63 1030.94 1485.04 Q1027.88 1480.44 1027.88 1471.71 Q1027.88 1462.96 1030.94 1458.38 Q1034.01 1453.77 1039.82 1453.77 Z" fill="#000000" fill-rule="evenodd" fill-opacity="1" /><path clip-path="url(#clip990)" d="M1052.95 1433.47 L1067.87 1433.47 L1067.87 1436.66 L1056.43 1436.66 L1056.43 1443.55 Q1057.26 1443.27 1058.09 1443.13 Q1058.92 1442.98 1059.74 1442.98 Q1064.44 1442.98 1067.19 1445.56 Q1069.94 1448.14 1069.94 1452.54 Q1069.94 1457.07 1067.12 1459.59 Q1064.29 1462.09 1059.16 1462.09 Q1057.39 1462.09 1055.55 1461.79 Q1053.72 1461.49 1051.77 1460.89 L1051.77 1457.07 Q1053.46 1457.99 1055.27 1458.44 Q1057.07 1458.89 1059.08 1458.89 Q1062.34 1458.89 1064.24 1457.18 Q1066.14 1455.47 1066.14 1452.54 Q1066.14 1449.6 1064.24 1447.89 Q1062.34 1446.18 1059.08 1446.18 Q1057.56 1446.18 1056.04 1446.52 Q1054.53 1446.86 1052.95 1447.57 L1052.95 1433.47 Z" fill="#000000" fill-rule="evenodd" fill-opacity="1" /><path clip-path="url(#clip990)" d="M1519.69 1485.02 L1527.33 1485.02 L1527.33 1458.66 L1519.02 1460.32 L1519.02 1456.06 L1527.29 1454.4 L1531.96 1454.4 L1531.96 1485.02 L1539.6 1485.02 L1539.6 1488.96 L1519.69 1488.96 L1519.69 1485.02 Z" fill="#000000" fill-rule="evenodd" fill-opacity="1" /><path clip-path="url(#clip990)" d="M1549.05 1483.08 L1553.93 1483.08 L1553.93 1488.96 L1549.05 1488.96 L1549.05 1483.08 Z" fill="#000000" fill-rule="evenodd" fill-opacity="1" /><path clip-path="url(#clip990)" d="M1574.11 1457.48 Q1570.5 1457.48 1568.68 1461.04 Q1566.87 1464.58 1566.87 1471.71 Q1566.87 1478.82 1568.68 1482.38 Q1570.5 1485.92 1574.11 1485.92 Q1577.75 1485.92 1579.55 1482.38 Q1581.38 1478.82 1581.38 1471.71 Q1581.38 1464.58 1579.55 1461.04 Q1577.75 1457.48 1574.11 1457.48 M1574.11 1453.77 Q1579.93 1453.77 1582.98 1458.38 Q1586.06 1462.96 1586.06 1471.71 Q1586.06 1480.44 1582.98 1485.04 Q1579.93 1489.63 1574.11 1489.63 Q1568.3 1489.63 1565.23 1485.04 Q1562.17 1480.44 1562.17 1471.71 Q1562.17 1462.96 1565.23 1458.38 Q1568.3 1453.77 1574.11 1453.77 Z" fill="#000000" fill-rule="evenodd" fill-opacity="1" /><path clip-path="url(#clip990)" d="M1604.28 1457.48 Q1600.67 1457.48 1598.84 1461.04 Q1597.03 1464.58 1597.03 1471.71 Q1597.03 1478.82 1598.84 1482.38 Q1600.67 1485.92 1604.28 1485.92 Q1607.91 1485.92 1609.72 1482.38 Q1611.55 1478.82 1611.55 1471.71 Q1611.55 1464.58 1609.72 1461.04 Q1607.91 1457.48 1604.28 1457.48 M1604.28 1453.77 Q1610.09 1453.77 1613.14 1458.38 Q1616.22 1462.96 1616.22 1471.71 Q1616.22 1480.44 1613.14 1485.04 Q1610.09 1489.63 1604.28 1489.63 Q1598.47 1489.63 1595.39 1485.04 Q1592.33 1480.44 1592.33 1471.71 Q1592.33 1462.96 1595.39 1458.38 Q1598.47 1453.77 1604.28 1453.77 Z" fill="#000000" fill-rule="evenodd" fill-opacity="1" /><path clip-path="url(#clip990)" d="M1652.61 1463.49 L1642.03 1474.12 L1652.61 1484.7 L1649.86 1487.5 L1639.23 1476.87 L1628.61 1487.5 L1625.87 1484.7 L1636.43 1474.12 L1625.87 1463.49 L1628.61 1460.69 L1639.23 1471.32 L1649.86 1460.69 L1652.61 1463.49 Z" fill="#000000" fill-rule="evenodd" fill-opacity="1" /><path clip-path="url(#clip990)" d="M1664.97 1485.02 L1672.61 1485.02 L1672.61 1458.66 L1664.3 1460.32 L1664.3 1456.06 L1672.56 1454.4 L1677.24 1454.4 L1677.24 1485.02 L1684.88 1485.02 L1684.88 1488.96 L1664.97 1488.96 L1664.97 1485.02 Z" fill="#000000" fill-rule="evenodd" fill-opacity="1" /><path clip-path="url(#clip990)" d="M1704.32 1457.48 Q1700.71 1457.48 1698.88 1461.04 Q1697.08 1464.58 1697.08 1471.71 Q1697.08 1478.82 1698.88 1482.38 Q1700.71 1485.92 1704.32 1485.92 Q1707.96 1485.92 1709.76 1482.38 Q1711.59 1478.82 1711.59 1471.71 Q1711.59 1464.58 1709.76 1461.04 Q1707.96 1457.48 1704.32 1457.48 M1704.32 1453.77 Q1710.13 1453.77 1713.19 1458.38 Q1716.27 1462.96 1716.27 1471.71 Q1716.27 1480.44 1713.19 1485.04 Q1710.13 1489.63 1704.32 1489.63 Q1698.51 1489.63 1695.43 1485.04 Q1692.38 1480.44 1692.38 1471.71 Q1692.38 1462.96 1695.43 1458.38 Q1698.51 1453.77 1704.32 1453.77 Z" fill="#000000" fill-rule="evenodd" fill-opacity="1" /><path clip-path="url(#clip990)" d="M1726.29 1445.99 Q1723.73 1445.99 1722.23 1447.74 Q1720.74 1449.49 1720.74 1452.54 Q1720.74 1455.57 1722.23 1457.33 Q1723.73 1459.08 1726.29 1459.08 Q1728.85 1459.08 1730.34 1457.33 Q1731.84 1455.57 1731.84 1452.54 Q1731.84 1449.49 1730.34 1447.74 Q1728.85 1445.99 1726.29 1445.99 M1733.83 1434.09 L1733.83 1437.55 Q1732.4 1436.87 1730.94 1436.51 Q1729.49 1436.16 1728.06 1436.16 Q1724.3 1436.16 1722.3 1438.69 Q1720.33 1441.23 1720.05 1446.37 Q1721.16 1444.73 1722.83 1443.87 Q1724.5 1442.98 1726.52 1442.98 Q1730.75 1442.98 1733.19 1445.56 Q1735.66 1448.12 1735.66 1452.54 Q1735.66 1456.86 1733.1 1459.48 Q1730.54 1462.09 1726.29 1462.09 Q1721.42 1462.09 1718.84 1458.37 Q1716.27 1454.62 1716.27 1447.53 Q1716.27 1440.88 1719.43 1436.93 Q1722.59 1432.96 1727.91 1432.96 Q1729.34 1432.96 1730.79 1433.24 Q1732.25 1433.52 1733.83 1434.09 Z" fill="#000000" fill-rule="evenodd" fill-opacity="1" /><path clip-path="url(#clip990)" d="M2185.58 1485.02 L2193.22 1485.02 L2193.22 1458.66 L2184.91 1460.32 L2184.91 1456.06 L2193.17 1454.4 L2197.85 1454.4 L2197.85 1485.02 L2205.49 1485.02 L2205.49 1488.96 L2185.58 1488.96 L2185.58 1485.02 Z" fill="#000000" fill-rule="evenodd" fill-opacity="1" /><path clip-path="url(#clip990)" d="M2214.93 1483.08 L2219.82 1483.08 L2219.82 1488.96 L2214.93 1488.96 L2214.93 1483.08 Z" fill="#000000" fill-rule="evenodd" fill-opacity="1" /><path clip-path="url(#clip990)" d="M2230.05 1454.4 L2248.4 1454.4 L2248.4 1458.33 L2234.33 1458.33 L2234.33 1466.8 Q2235.35 1466.46 2236.37 1466.29 Q2237.38 1466.11 2238.4 1466.11 Q2244.19 1466.11 2247.57 1469.28 Q2250.95 1472.45 2250.95 1477.87 Q2250.95 1483.45 2247.48 1486.55 Q2244.01 1489.63 2237.69 1489.63 Q2235.51 1489.63 2233.24 1489.26 Q2231 1488.89 2228.59 1488.15 L2228.59 1483.45 Q2230.67 1484.58 2232.89 1485.14 Q2235.12 1485.69 2237.59 1485.69 Q2241.6 1485.69 2243.94 1483.59 Q2246.27 1481.48 2246.27 1477.87 Q2246.27 1474.26 2243.94 1472.15 Q2241.6 1470.04 2237.59 1470.04 Q2235.72 1470.04 2233.84 1470.46 Q2231.99 1470.88 2230.05 1471.76 L2230.05 1454.4 Z" fill="#000000" fill-rule="evenodd" fill-opacity="1" /><path clip-path="url(#clip990)" d="M2270.16 1457.48 Q2266.55 1457.48 2264.72 1461.04 Q2262.92 1464.58 2262.92 1471.71 Q2262.92 1478.82 2264.72 1482.38 Q2266.55 1485.92 2270.16 1485.92 Q2273.8 1485.92 2275.6 1482.38 Q2277.43 1478.82 2277.43 1471.71 Q2277.43 1464.58 2275.6 1461.04 Q2273.8 1457.48 2270.16 1457.48 M2270.16 1453.77 Q2275.97 1453.77 2279.03 1458.38 Q2282.11 1462.96 2282.11 1471.71 Q2282.11 1480.44 2279.03 1485.04 Q2275.97 1489.63 2270.16 1489.63 Q2264.35 1489.63 2261.27 1485.04 Q2258.22 1480.44 2258.22 1471.71 Q2258.22 1462.96 2261.27 1458.38 Q2264.35 1453.77 2270.16 1453.77 Z" fill="#000000" fill-rule="evenodd" fill-opacity="1" /><path clip-path="url(#clip990)" d="M2318.5 1463.49 L2307.92 1474.12 L2318.5 1484.7 L2315.74 1487.5 L2305.12 1476.87 L2294.49 1487.5 L2291.76 1484.7 L2302.31 1474.12 L2291.76 1463.49 L2294.49 1460.69 L2305.12 1471.32 L2315.74 1460.69 L2318.5 1463.49 Z" fill="#000000" fill-rule="evenodd" fill-opacity="1" /><path clip-path="url(#clip990)" d="M2330.86 1485.02 L2338.5 1485.02 L2338.5 1458.66 L2330.19 1460.32 L2330.19 1456.06 L2338.45 1454.4 L2343.12 1454.4 L2343.12 1485.02 L2350.76 1485.02 L2350.76 1488.96 L2330.86 1488.96 L2330.86 1485.02 Z" fill="#000000" fill-rule="evenodd" fill-opacity="1" /><path clip-path="url(#clip990)" d="M2370.21 1457.48 Q2366.6 1457.48 2364.77 1461.04 Q2362.96 1464.58 2362.96 1471.71 Q2362.96 1478.82 2364.77 1482.38 Q2366.6 1485.92 2370.21 1485.92 Q2373.84 1485.92 2375.65 1482.38 Q2377.48 1478.82 2377.48 1471.71 Q2377.48 1464.58 2375.65 1461.04 Q2373.84 1457.48 2370.21 1457.48 M2370.21 1453.77 Q2376.02 1453.77 2379.07 1458.38 Q2382.15 1462.96 2382.15 1471.71 Q2382.15 1480.44 2379.07 1485.04 Q2376.02 1489.63 2370.21 1489.63 Q2364.4 1489.63 2361.32 1485.04 Q2358.26 1480.44 2358.26 1471.71 Q2358.26 1462.96 2361.32 1458.38 Q2364.4 1453.77 2370.21 1453.77 Z" fill="#000000" fill-rule="evenodd" fill-opacity="1" /><path clip-path="url(#clip990)" d="M2392.18 1445.99 Q2389.62 1445.99 2388.11 1447.74 Q2386.63 1449.49 2386.63 1452.54 Q2386.63 1455.57 2388.11 1457.33 Q2389.62 1459.08 2392.18 1459.08 Q2394.73 1459.08 2396.22 1457.33 Q2397.73 1455.57 2397.73 1452.54 Q2397.73 1449.49 2396.22 1447.74 Q2394.73 1445.99 2392.18 1445.99 M2399.72 1434.09 L2399.72 1437.55 Q2398.29 1436.87 2396.82 1436.51 Q2395.37 1436.16 2393.94 1436.16 Q2390.18 1436.16 2388.19 1438.69 Q2386.21 1441.23 2385.93 1446.37 Q2387.04 1444.73 2388.72 1443.87 Q2390.39 1442.98 2392.4 1442.98 Q2396.63 1442.98 2399.08 1445.56 Q2401.54 1448.12 2401.54 1452.54 Q2401.54 1456.86 2398.99 1459.48 Q2396.43 1462.09 2392.18 1462.09 Q2387.31 1462.09 2384.73 1458.37 Q2382.15 1454.62 2382.15 1447.53 Q2382.15 1440.88 2385.31 1436.93 Q2388.47 1432.96 2393.79 1432.96 Q2395.22 1432.96 2396.67 1433.24 Q2398.14 1433.52 2399.72 1434.09 Z" fill="#000000" fill-rule="evenodd" fill-opacity="1" /><path clip-path="url(#clip990)" d="M1150.62 1526.67 L1157.05 1526.67 L1157.05 1574.19 L1150.62 1574.19 L1150.62 1526.67 Z" fill="#000000" fill-rule="evenodd" fill-opacity="1" /><path clip-path="url(#clip990)" d="M1175.38 1528.42 L1175.38 1538.54 L1187.44 1538.54 L1187.44 1543.09 L1175.38 1543.09 L1175.38 1562.44 Q1175.38 1566.8 1176.56 1568.04 Q1177.77 1569.28 1181.43 1569.28 L1187.44 1569.28 L1187.44 1574.19 L1181.43 1574.19 Q1174.65 1574.19 1172.07 1571.67 Q1169.49 1569.12 1169.49 1562.44 L1169.49 1543.09 L1165.2 1543.09 L1165.2 1538.54 L1169.49 1538.54 L1169.49 1528.42 L1175.38 1528.42 Z" fill="#000000" fill-rule="evenodd" fill-opacity="1" /><path clip-path="url(#clip990)" d="M1225.64 1554.9 L1225.64 1557.76 L1198.71 1557.76 Q1199.09 1563.81 1202.34 1566.99 Q1205.62 1570.14 1211.44 1570.14 Q1214.82 1570.14 1217.97 1569.32 Q1221.15 1568.49 1224.27 1566.83 L1224.27 1572.37 Q1221.12 1573.71 1217.81 1574.41 Q1214.5 1575.11 1211.09 1575.11 Q1202.56 1575.11 1197.57 1570.14 Q1192.6 1565.18 1192.6 1556.71 Q1192.6 1547.96 1197.31 1542.83 Q1202.05 1537.68 1210.07 1537.68 Q1217.27 1537.68 1221.44 1542.33 Q1225.64 1546.94 1225.64 1554.9 M1219.78 1553.18 Q1219.72 1548.37 1217.08 1545.51 Q1214.47 1542.64 1210.14 1542.64 Q1205.24 1542.64 1202.28 1545.41 Q1199.35 1548.18 1198.9 1553.21 L1219.78 1553.18 Z" fill="#000000" fill-rule="evenodd" fill-opacity="1" /><path clip-path="url(#clip990)" d="M1255.91 1544.01 Q1254.92 1543.44 1253.74 1543.18 Q1252.6 1542.9 1251.2 1542.9 Q1246.23 1542.9 1243.56 1546.14 Q1240.92 1549.36 1240.92 1555.41 L1240.92 1574.19 L1235.03 1574.19 L1235.03 1538.54 L1240.92 1538.54 L1240.92 1544.08 Q1242.76 1540.83 1245.72 1539.27 Q1248.68 1537.68 1252.92 1537.68 Q1253.52 1537.68 1254.25 1537.77 Q1254.98 1537.84 1255.88 1538 L1255.91 1544.01 Z" fill="#000000" fill-rule="evenodd" fill-opacity="1" /><path clip-path="url(#clip990)" d="M1278.25 1556.27 Q1271.15 1556.27 1268.42 1557.89 Q1265.68 1559.51 1265.68 1563.43 Q1265.68 1566.55 1267.72 1568.39 Q1269.78 1570.21 1273.32 1570.21 Q1278.19 1570.21 1281.12 1566.77 Q1284.08 1563.3 1284.08 1557.57 L1284.08 1556.27 L1278.25 1556.27 M1289.93 1553.85 L1289.93 1574.19 L1284.08 1574.19 L1284.08 1568.77 Q1282.07 1572.02 1279.08 1573.58 Q1276.09 1575.11 1271.76 1575.11 Q1266.28 1575.11 1263.04 1572.05 Q1259.82 1568.97 1259.82 1563.81 Q1259.82 1557.79 1263.83 1554.74 Q1267.88 1551.68 1275.86 1551.68 L1284.08 1551.68 L1284.08 1551.11 Q1284.08 1547.07 1281.4 1544.87 Q1278.76 1542.64 1273.95 1542.64 Q1270.9 1542.64 1268 1543.38 Q1265.11 1544.11 1262.43 1545.57 L1262.43 1540.16 Q1265.65 1538.92 1268.67 1538.31 Q1271.69 1537.68 1274.56 1537.68 Q1282.29 1537.68 1286.11 1541.69 Q1289.93 1545.7 1289.93 1553.85 Z" fill="#000000" fill-rule="evenodd" fill-opacity="1" /><path clip-path="url(#clip990)" d="M1307.79 1528.42 L1307.79 1538.54 L1319.85 1538.54 L1319.85 1543.09 L1307.79 1543.09 L1307.79 1562.44 Q1307.79 1566.8 1308.97 1568.04 Q1310.18 1569.28 1313.84 1569.28 L1319.85 1569.28 L1319.85 1574.19 L1313.84 1574.19 Q1307.06 1574.19 1304.48 1571.67 Q1301.9 1569.12 1301.9 1562.44 L1301.9 1543.09 L1297.6 1543.09 L1297.6 1538.54 L1301.9 1538.54 L1301.9 1528.42 L1307.79 1528.42 Z" fill="#000000" fill-rule="evenodd" fill-opacity="1" /><path clip-path="url(#clip990)" d="M1327.55 1538.54 L1333.41 1538.54 L1333.41 1574.19 L1327.55 1574.19 L1327.55 1538.54 M1327.55 1524.66 L1333.41 1524.66 L1333.41 1532.08 L1327.55 1532.08 L1327.55 1524.66 Z" fill="#000000" fill-rule="evenodd" fill-opacity="1" /><path clip-path="url(#clip990)" d="M1359.48 1542.64 Q1354.77 1542.64 1352.03 1546.34 Q1349.29 1550 1349.29 1556.39 Q1349.29 1562.79 1352 1566.48 Q1354.74 1570.14 1359.48 1570.14 Q1364.16 1570.14 1366.89 1566.45 Q1369.63 1562.76 1369.63 1556.39 Q1369.63 1550.06 1366.89 1546.37 Q1364.16 1542.64 1359.48 1542.64 M1359.48 1537.68 Q1367.12 1537.68 1371.48 1542.64 Q1375.84 1547.61 1375.84 1556.39 Q1375.84 1565.15 1371.48 1570.14 Q1367.12 1575.11 1359.48 1575.11 Q1351.81 1575.11 1347.45 1570.14 Q1343.12 1565.15 1343.12 1556.39 Q1343.12 1547.61 1347.45 1542.64 Q1351.81 1537.68 1359.48 1537.68 Z" fill="#000000" fill-rule="evenodd" fill-opacity="1" /><path clip-path="url(#clip990)" d="M1415.18 1552.67 L1415.18 1574.19 L1409.32 1574.19 L1409.32 1552.86 Q1409.32 1547.8 1407.35 1545.29 Q1405.37 1542.77 1401.43 1542.77 Q1396.69 1542.77 1393.95 1545.79 Q1391.21 1548.82 1391.21 1554.04 L1391.21 1574.19 L1385.32 1574.19 L1385.32 1538.54 L1391.21 1538.54 L1391.21 1544.08 Q1393.31 1540.86 1396.14 1539.27 Q1399.01 1537.68 1402.73 1537.68 Q1408.88 1537.68 1412.03 1541.5 Q1415.18 1545.29 1415.18 1552.67 Z" fill="#000000" fill-rule="evenodd" fill-opacity="1" /><path clip-path="url(#clip990)" d="M1449.58 1539.59 L1449.58 1545.13 Q1447.1 1543.85 1444.43 1543.22 Q1441.75 1542.58 1438.89 1542.58 Q1434.53 1542.58 1432.33 1543.92 Q1430.17 1545.25 1430.17 1547.93 Q1430.17 1549.96 1431.73 1551.14 Q1433.29 1552.29 1438 1553.34 L1440 1553.78 Q1446.24 1555.12 1448.85 1557.57 Q1451.49 1559.99 1451.49 1564.35 Q1451.49 1569.32 1447.55 1572.21 Q1443.63 1575.11 1436.76 1575.11 Q1433.89 1575.11 1430.77 1574.54 Q1427.69 1573.99 1424.25 1572.88 L1424.25 1566.83 Q1427.5 1568.52 1430.65 1569.38 Q1433.8 1570.21 1436.88 1570.21 Q1441.02 1570.21 1443.25 1568.81 Q1445.48 1567.37 1445.48 1564.8 Q1445.48 1562.41 1443.86 1561.14 Q1442.26 1559.86 1436.82 1558.68 L1434.78 1558.21 Q1429.34 1557.06 1426.92 1554.71 Q1424.5 1552.32 1424.5 1548.18 Q1424.5 1543.15 1428.07 1540.42 Q1431.63 1537.68 1438.19 1537.68 Q1441.44 1537.68 1444.3 1538.16 Q1447.17 1538.63 1449.58 1539.59 Z" fill="#000000" fill-rule="evenodd" fill-opacity="1" /><polyline clip-path="url(#clip992)" style="stroke:#000000; stroke-linecap:round; stroke-linejoin:round; stroke-width:2; stroke-opacity:0.1; fill:none" points="
  249.357,1235.43 2352.76,1235.43 
  "/>
<polyline clip-path="url(#clip992)" style="stroke:#000000; stroke-linecap:round; stroke-linejoin:round; stroke-width:2; stroke-opacity:0.1; fill:none" points="
  249.357,984.477 2352.76,984.477 
  "/>
<polyline clip-path="url(#clip992)" style="stroke:#000000; stroke-linecap:round; stroke-linejoin:round; stroke-width:2; stroke-opacity:0.1; fill:none" points="
  249.357,733.524 2352.76,733.524 
  "/>
<polyline clip-path="url(#clip992)" style="stroke:#000000; stroke-linecap:round; stroke-linejoin:round; stroke-width:2; stroke-opacity:0.1; fill:none" points="
  249.357,482.57 2352.76,482.57 
  "/>
<polyline clip-path="url(#clip992)" style="stroke:#000000; stroke-linecap:round; stroke-linejoin:round; stroke-width:2; stroke-opacity:0.1; fill:none" points="
  249.357,231.617 2352.76,231.617 
  "/>
<polyline clip-path="url(#clip990)" style="stroke:#000000; stroke-linecap:round; stroke-linejoin:round; stroke-width:4; stroke-opacity:1; fill:none" points="
  249.357,1410.9 249.357,47.2441 
  "/>
<polyline clip-path="url(#clip990)" style="stroke:#000000; stroke-linecap:round; stroke-linejoin:round; stroke-width:4; stroke-opacity:1; fill:none" points="
  249.357,1235.43 268.254,1235.43 
  "/>
<polyline clip-path="url(#clip990)" style="stroke:#000000; stroke-linecap:round; stroke-linejoin:round; stroke-width:4; stroke-opacity:1; fill:none" points="
  249.357,984.477 268.254,984.477 
  "/>
<polyline clip-path="url(#clip990)" style="stroke:#000000; stroke-linecap:round; stroke-linejoin:round; stroke-width:4; stroke-opacity:1; fill:none" points="
  249.357,733.524 268.254,733.524 
  "/>
<polyline clip-path="url(#clip990)" style="stroke:#000000; stroke-linecap:round; stroke-linejoin:round; stroke-width:4; stroke-opacity:1; fill:none" points="
  249.357,482.57 268.254,482.57 
  "/>
<polyline clip-path="url(#clip990)" style="stroke:#000000; stroke-linecap:round; stroke-linejoin:round; stroke-width:4; stroke-opacity:1; fill:none" points="
  249.357,231.617 268.254,231.617 
  "/>
<path clip-path="url(#clip990)" d="M126.598 1233.57 Q123.45 1233.57 121.598 1235.72 Q119.769 1237.87 119.769 1241.62 Q119.769 1245.35 121.598 1247.52 Q123.45 1249.68 126.598 1249.68 Q129.746 1249.68 131.575 1247.52 Q133.427 1245.35 133.427 1241.62 Q133.427 1237.87 131.575 1235.72 Q129.746 1233.57 126.598 1233.57 M135.88 1218.91 L135.88 1223.17 Q134.121 1222.34 132.316 1221.9 Q130.533 1221.46 128.774 1221.46 Q124.144 1221.46 121.691 1224.59 Q119.26 1227.71 118.913 1234.03 Q120.279 1232.02 122.339 1230.95 Q124.399 1229.86 126.876 1229.86 Q132.084 1229.86 135.093 1233.03 Q138.126 1236.18 138.126 1241.62 Q138.126 1246.95 134.978 1250.16 Q131.83 1253.38 126.598 1253.38 Q120.603 1253.38 117.431 1248.8 Q114.26 1244.19 114.26 1235.46 Q114.26 1227.27 118.149 1222.41 Q122.038 1217.52 128.589 1217.52 Q130.348 1217.52 132.13 1217.87 Q133.936 1218.22 135.88 1218.91 Z" fill="#000000" fill-rule="evenodd" fill-opacity="1" /><path clip-path="url(#clip990)" d="M156.181 1221.23 Q152.57 1221.23 150.741 1224.79 Q148.936 1228.34 148.936 1235.46 Q148.936 1242.57 150.741 1246.14 Q152.57 1249.68 156.181 1249.68 Q159.815 1249.68 161.621 1246.14 Q163.45 1242.57 163.45 1235.46 Q163.45 1228.34 161.621 1224.79 Q159.815 1221.23 156.181 1221.23 M156.181 1217.52 Q161.991 1217.52 165.047 1222.13 Q168.126 1226.71 168.126 1235.46 Q168.126 1244.19 165.047 1248.8 Q161.991 1253.38 156.181 1253.38 Q150.371 1253.38 147.292 1248.8 Q144.237 1244.19 144.237 1235.46 Q144.237 1226.71 147.292 1222.13 Q150.371 1217.52 156.181 1217.52 Z" fill="#000000" fill-rule="evenodd" fill-opacity="1" /><path clip-path="url(#clip990)" d="M176.343 1246.83 L181.227 1246.83 L181.227 1252.71 L176.343 1252.71 L176.343 1246.83 Z" fill="#000000" fill-rule="evenodd" fill-opacity="1" /><path clip-path="url(#clip990)" d="M201.412 1221.23 Q197.801 1221.23 195.973 1224.79 Q194.167 1228.34 194.167 1235.46 Q194.167 1242.57 195.973 1246.14 Q197.801 1249.68 201.412 1249.68 Q205.047 1249.68 206.852 1246.14 Q208.681 1242.57 208.681 1235.46 Q208.681 1228.34 206.852 1224.79 Q205.047 1221.23 201.412 1221.23 M201.412 1217.52 Q207.223 1217.52 210.278 1222.13 Q213.357 1226.71 213.357 1235.46 Q213.357 1244.19 210.278 1248.8 Q207.223 1253.38 201.412 1253.38 Q195.602 1253.38 192.524 1248.8 Q189.468 1244.19 189.468 1235.46 Q189.468 1226.71 192.524 1222.13 Q195.602 1217.52 201.412 1217.52 Z" fill="#000000" fill-rule="evenodd" fill-opacity="1" /><path clip-path="url(#clip990)" d="M127.593 982.613 Q124.445 982.613 122.593 984.766 Q120.765 986.919 120.765 990.669 Q120.765 994.396 122.593 996.572 Q124.445 998.724 127.593 998.724 Q130.742 998.724 132.57 996.572 Q134.422 994.396 134.422 990.669 Q134.422 986.919 132.57 984.766 Q130.742 982.613 127.593 982.613 M136.876 967.961 L136.876 972.22 Q135.117 971.387 133.311 970.947 Q131.529 970.507 129.769 970.507 Q125.14 970.507 122.686 973.632 Q120.255 976.757 119.908 983.076 Q121.274 981.062 123.334 979.998 Q125.394 978.91 127.871 978.91 Q133.08 978.91 136.089 982.081 Q139.121 985.229 139.121 990.669 Q139.121 995.993 135.973 999.21 Q132.825 1002.43 127.593 1002.43 Q121.598 1002.43 118.427 997.845 Q115.256 993.238 115.256 984.511 Q115.256 976.317 119.144 971.456 Q123.033 966.572 129.584 966.572 Q131.343 966.572 133.126 966.919 Q134.931 967.266 136.876 967.961 Z" fill="#000000" fill-rule="evenodd" fill-opacity="1" /><path clip-path="url(#clip990)" d="M151.204 997.822 L167.524 997.822 L167.524 1001.76 L145.579 1001.76 L145.579 997.822 Q148.241 995.067 152.825 990.437 Q157.431 985.785 158.612 984.442 Q160.857 981.919 161.737 980.183 Q162.64 978.424 162.64 976.734 Q162.64 973.979 160.695 972.243 Q158.774 970.507 155.672 970.507 Q153.473 970.507 151.019 971.271 Q148.589 972.035 145.811 973.586 L145.811 968.863 Q148.635 967.729 151.089 967.15 Q153.542 966.572 155.579 966.572 Q160.95 966.572 164.144 969.257 Q167.339 971.942 167.339 976.433 Q167.339 978.562 166.528 980.484 Q165.741 982.382 163.635 984.974 Q163.056 985.646 159.954 988.863 Q156.853 992.058 151.204 997.822 Z" fill="#000000" fill-rule="evenodd" fill-opacity="1" /><path clip-path="url(#clip990)" d="M177.339 995.877 L182.223 995.877 L182.223 1001.76 L177.339 1001.76 L177.339 995.877 Z" fill="#000000" fill-rule="evenodd" fill-opacity="1" /><path clip-path="url(#clip990)" d="M192.454 967.197 L210.811 967.197 L210.811 971.132 L196.737 971.132 L196.737 979.604 Q197.755 979.257 198.774 979.095 Q199.792 978.91 200.811 978.91 Q206.598 978.91 209.977 982.081 Q213.357 985.252 213.357 990.669 Q213.357 996.248 209.885 999.349 Q206.412 1002.43 200.093 1002.43 Q197.917 1002.43 195.649 1002.06 Q193.403 1001.69 190.996 1000.95 L190.996 996.248 Q193.079 997.382 195.301 997.937 Q197.524 998.493 200 998.493 Q204.005 998.493 206.343 996.386 Q208.681 994.28 208.681 990.669 Q208.681 987.058 206.343 984.951 Q204.005 982.845 200 982.845 Q198.125 982.845 196.25 983.261 Q194.399 983.678 192.454 984.558 L192.454 967.197 Z" fill="#000000" fill-rule="evenodd" fill-opacity="1" /><path clip-path="url(#clip990)" d="M126.598 731.66 Q123.45 731.66 121.598 733.813 Q119.769 735.966 119.769 739.716 Q119.769 743.442 121.598 745.618 Q123.45 747.771 126.598 747.771 Q129.746 747.771 131.575 745.618 Q133.427 743.442 133.427 739.716 Q133.427 735.966 131.575 733.813 Q129.746 731.66 126.598 731.66 M135.88 717.007 L135.88 721.267 Q134.121 720.433 132.316 719.993 Q130.533 719.554 128.774 719.554 Q124.144 719.554 121.691 722.679 Q119.26 725.804 118.913 732.123 Q120.279 730.109 122.339 729.044 Q124.399 727.956 126.876 727.956 Q132.084 727.956 135.093 731.128 Q138.126 734.276 138.126 739.716 Q138.126 745.04 134.978 748.257 Q131.83 751.475 126.598 751.475 Q120.603 751.475 117.431 746.891 Q114.26 742.285 114.26 733.558 Q114.26 725.364 118.149 720.503 Q122.038 715.619 128.589 715.619 Q130.348 715.619 132.13 715.966 Q133.936 716.313 135.88 717.007 Z" fill="#000000" fill-rule="evenodd" fill-opacity="1" /><path clip-path="url(#clip990)" d="M146.228 716.244 L164.584 716.244 L164.584 720.179 L150.51 720.179 L150.51 728.651 Q151.528 728.304 152.547 728.142 Q153.566 727.956 154.584 727.956 Q160.371 727.956 163.751 731.128 Q167.13 734.299 167.13 739.716 Q167.13 745.294 163.658 748.396 Q160.186 751.475 153.866 751.475 Q151.691 751.475 149.422 751.104 Q147.177 750.734 144.769 749.993 L144.769 745.294 Q146.853 746.429 149.075 746.984 Q151.297 747.54 153.774 747.54 Q157.778 747.54 160.116 745.433 Q162.454 743.327 162.454 739.716 Q162.454 736.105 160.116 733.998 Q157.778 731.892 153.774 731.892 Q151.899 731.892 150.024 732.308 Q148.172 732.725 146.228 733.605 L146.228 716.244 Z" fill="#000000" fill-rule="evenodd" fill-opacity="1" /><path clip-path="url(#clip990)" d="M176.343 744.924 L181.227 744.924 L181.227 750.804 L176.343 750.804 L176.343 744.924 Z" fill="#000000" fill-rule="evenodd" fill-opacity="1" /><path clip-path="url(#clip990)" d="M201.412 719.322 Q197.801 719.322 195.973 722.887 Q194.167 726.429 194.167 733.558 Q194.167 740.665 195.973 744.229 Q197.801 747.771 201.412 747.771 Q205.047 747.771 206.852 744.229 Q208.681 740.665 208.681 733.558 Q208.681 726.429 206.852 722.887 Q205.047 719.322 201.412 719.322 M201.412 715.619 Q207.223 715.619 210.278 720.225 Q213.357 724.808 213.357 733.558 Q213.357 742.285 210.278 746.891 Q207.223 751.475 201.412 751.475 Q195.602 751.475 192.524 746.891 Q189.468 742.285 189.468 733.558 Q189.468 724.808 192.524 720.225 Q195.602 715.619 201.412 715.619 Z" fill="#000000" fill-rule="evenodd" fill-opacity="1" /><path clip-path="url(#clip990)" d="M127.593 480.707 Q124.445 480.707 122.593 482.86 Q120.765 485.012 120.765 488.762 Q120.765 492.489 122.593 494.665 Q124.445 496.818 127.593 496.818 Q130.742 496.818 132.57 494.665 Q134.422 492.489 134.422 488.762 Q134.422 485.012 132.57 482.86 Q130.742 480.707 127.593 480.707 M136.876 466.054 L136.876 470.313 Q135.117 469.48 133.311 469.04 Q131.529 468.6 129.769 468.6 Q125.14 468.6 122.686 471.725 Q120.255 474.85 119.908 481.17 Q121.274 479.156 123.334 478.091 Q125.394 477.003 127.871 477.003 Q133.08 477.003 136.089 480.174 Q139.121 483.323 139.121 488.762 Q139.121 494.086 135.973 497.304 Q132.825 500.522 127.593 500.522 Q121.598 500.522 118.427 495.938 Q115.256 491.332 115.256 482.605 Q115.256 474.411 119.144 469.55 Q123.033 464.665 129.584 464.665 Q131.343 464.665 133.126 465.013 Q134.931 465.36 136.876 466.054 Z" fill="#000000" fill-rule="evenodd" fill-opacity="1" /><path clip-path="url(#clip990)" d="M145.996 465.29 L168.218 465.29 L168.218 467.281 L155.672 499.85 L150.788 499.85 L162.593 469.225 L145.996 469.225 L145.996 465.29 Z" fill="#000000" fill-rule="evenodd" fill-opacity="1" /><path clip-path="url(#clip990)" d="M177.339 493.971 L182.223 493.971 L182.223 499.85 L177.339 499.85 L177.339 493.971 Z" fill="#000000" fill-rule="evenodd" fill-opacity="1" /><path clip-path="url(#clip990)" d="M192.454 465.29 L210.811 465.29 L210.811 469.225 L196.737 469.225 L196.737 477.698 Q197.755 477.35 198.774 477.188 Q199.792 477.003 200.811 477.003 Q206.598 477.003 209.977 480.174 Q213.357 483.346 213.357 488.762 Q213.357 494.341 209.885 497.443 Q206.412 500.522 200.093 500.522 Q197.917 500.522 195.649 500.151 Q193.403 499.781 190.996 499.04 L190.996 494.341 Q193.079 495.475 195.301 496.031 Q197.524 496.586 200 496.586 Q204.005 496.586 206.343 494.48 Q208.681 492.373 208.681 488.762 Q208.681 485.151 206.343 483.045 Q204.005 480.938 200 480.938 Q198.125 480.938 196.25 481.355 Q194.399 481.772 192.454 482.651 L192.454 465.29 Z" fill="#000000" fill-rule="evenodd" fill-opacity="1" /><path clip-path="url(#clip990)" d="M114.839 214.337 L137.061 214.337 L137.061 216.328 L124.515 248.897 L119.63 248.897 L131.436 218.272 L114.839 218.272 L114.839 214.337 Z" fill="#000000" fill-rule="evenodd" fill-opacity="1" /><path clip-path="url(#clip990)" d="M156.181 217.416 Q152.57 217.416 150.741 220.981 Q148.936 224.522 148.936 231.652 Q148.936 238.758 150.741 242.323 Q152.57 245.865 156.181 245.865 Q159.815 245.865 161.621 242.323 Q163.45 238.758 163.45 231.652 Q163.45 224.522 161.621 220.981 Q159.815 217.416 156.181 217.416 M156.181 213.712 Q161.991 213.712 165.047 218.319 Q168.126 222.902 168.126 231.652 Q168.126 240.379 165.047 244.985 Q161.991 249.568 156.181 249.568 Q150.371 249.568 147.292 244.985 Q144.237 240.379 144.237 231.652 Q144.237 222.902 147.292 218.319 Q150.371 213.712 156.181 213.712 Z" fill="#000000" fill-rule="evenodd" fill-opacity="1" /><path clip-path="url(#clip990)" d="M176.343 243.017 L181.227 243.017 L181.227 248.897 L176.343 248.897 L176.343 243.017 Z" fill="#000000" fill-rule="evenodd" fill-opacity="1" /><path clip-path="url(#clip990)" d="M201.412 217.416 Q197.801 217.416 195.973 220.981 Q194.167 224.522 194.167 231.652 Q194.167 238.758 195.973 242.323 Q197.801 245.865 201.412 245.865 Q205.047 245.865 206.852 242.323 Q208.681 238.758 208.681 231.652 Q208.681 224.522 206.852 220.981 Q205.047 217.416 201.412 217.416 M201.412 213.712 Q207.223 213.712 210.278 218.319 Q213.357 222.902 213.357 231.652 Q213.357 240.379 210.278 244.985 Q207.223 249.568 201.412 249.568 Q195.602 249.568 192.524 244.985 Q189.468 240.379 189.468 231.652 Q189.468 222.902 192.524 218.319 Q195.602 213.712 201.412 213.712 Z" fill="#000000" fill-rule="evenodd" fill-opacity="1" /><path clip-path="url(#clip990)" d="M41.7242 821.755 Q42.4244 819.686 44.7161 817.745 Q47.0077 815.771 51.0181 813.798 L64.0042 807.273 L64.0042 814.18 L51.8138 820.259 Q47.0395 822.614 45.48 824.842 Q43.9204 827.039 43.9204 830.858 L43.9204 837.86 L64.0042 837.86 L64.0042 844.29 L16.4842 844.29 L16.4842 829.776 Q16.4842 821.628 19.8898 817.617 Q23.2955 813.607 30.1704 813.607 Q34.6582 813.607 37.6183 815.708 Q40.5784 817.776 41.7242 821.755 M21.7677 837.86 L38.6368 837.86 L38.6368 829.776 Q38.6368 825.129 36.5043 822.774 Q34.34 820.386 30.1704 820.386 Q26.0009 820.386 23.9002 822.774 Q21.7677 825.129 21.7677 829.776 L21.7677 837.86 Z" fill="#000000" fill-rule="evenodd" fill-opacity="1" /><path clip-path="url(#clip990)" d="M44.7161 771.689 L47.5806 771.689 L47.5806 798.616 Q53.6281 798.234 56.8109 794.987 Q59.9619 791.709 59.9619 785.884 Q59.9619 782.51 59.1344 779.359 Q58.3069 776.177 56.6518 773.057 L62.1899 773.057 Q63.5267 776.208 64.227 779.519 Q64.9272 782.829 64.9272 786.234 Q64.9272 794.764 59.9619 799.762 Q54.9967 804.727 46.5303 804.727 Q37.7774 804.727 32.6531 800.016 Q27.4968 795.274 27.4968 787.253 Q27.4968 780.06 32.1438 775.89 Q36.7589 771.689 44.7161 771.689 M42.9973 777.545 Q38.1912 777.609 35.3266 780.251 Q32.4621 782.861 32.4621 787.189 Q32.4621 792.091 35.2312 795.051 Q38.0002 797.979 43.0292 798.425 L42.9973 777.545 Z" fill="#000000" fill-rule="evenodd" fill-opacity="1" /><path clip-path="url(#clip990)" d="M28.3562 765.482 L28.3562 759.626 L56.1743 752.305 L28.3562 745.016 L28.3562 738.11 L56.1743 730.789 L28.3562 723.5 L28.3562 717.644 L64.0042 726.97 L64.0042 733.876 L34.7856 741.547 L64.0042 749.25 L64.0042 756.156 L28.3562 765.482 Z" fill="#000000" fill-rule="evenodd" fill-opacity="1" /><path clip-path="url(#clip990)" d="M46.0847 692.563 Q46.0847 699.661 47.7079 702.398 Q49.3312 705.135 53.2461 705.135 Q56.3653 705.135 58.2114 703.098 Q60.0256 701.029 60.0256 697.496 Q60.0256 692.627 56.5881 689.698 Q53.1188 686.738 47.3897 686.738 L46.0847 686.738 L46.0847 692.563 M43.6657 680.882 L64.0042 680.882 L64.0042 686.738 L58.5933 686.738 Q61.8398 688.744 63.3994 691.735 Q64.9272 694.727 64.9272 699.056 Q64.9272 704.531 61.8716 707.777 Q58.7843 710.992 53.6281 710.992 Q47.6125 710.992 44.5569 706.981 Q41.5014 702.939 41.5014 694.95 L41.5014 686.738 L40.9285 686.738 Q36.8862 686.738 34.6901 689.412 Q32.4621 692.054 32.4621 696.86 Q32.4621 699.915 33.1941 702.812 Q33.9262 705.708 35.3903 708.382 L29.9795 708.382 Q28.7381 705.167 28.1334 702.143 Q27.4968 699.12 27.4968 696.255 Q27.4968 688.521 31.5072 684.701 Q35.5176 680.882 43.6657 680.882 Z" fill="#000000" fill-rule="evenodd" fill-opacity="1" /><path clip-path="url(#clip990)" d="M33.8307 648.162 Q33.2578 649.149 33.0032 650.327 Q32.7167 651.472 32.7167 652.873 Q32.7167 657.838 35.9632 660.512 Q39.1779 663.153 45.2253 663.153 L64.0042 663.153 L64.0042 669.042 L28.3562 669.042 L28.3562 663.153 L33.8944 663.153 Q30.6479 661.307 29.0883 658.347 Q27.4968 655.387 27.4968 651.154 Q27.4968 650.549 27.5923 649.817 Q27.656 649.085 27.8151 648.194 L33.8307 648.162 Z" fill="#000000" fill-rule="evenodd" fill-opacity="1" /><path clip-path="url(#clip990)" d="M33.7671 619.708 L14.479 619.708 L14.479 613.851 L64.0042 613.851 L64.0042 619.708 L58.657 619.708 Q61.8398 621.554 63.3994 624.386 Q64.9272 627.187 64.9272 631.134 Q64.9272 637.595 59.771 641.669 Q54.6147 645.711 46.212 645.711 Q37.8093 645.711 32.6531 641.669 Q27.4968 637.595 27.4968 631.134 Q27.4968 627.187 29.0564 624.386 Q30.5842 621.554 33.7671 619.708 M46.212 639.664 Q52.6732 639.664 56.3653 637.022 Q60.0256 634.349 60.0256 629.702 Q60.0256 625.055 56.3653 622.381 Q52.6732 619.708 46.212 619.708 Q39.7508 619.708 36.0905 622.381 Q32.3984 625.055 32.3984 629.702 Q32.3984 634.349 36.0905 637.022 Q39.7508 639.664 46.212 639.664 Z" fill="#000000" fill-rule="evenodd" fill-opacity="1" /><polyline clip-path="url(#clip992)" style="stroke:#009af9; stroke-linecap:round; stroke-linejoin:round; stroke-width:4; stroke-opacity:1; fill:none" points="
  308.887,1372.3 322.205,546.888 335.522,421.007 348.84,291.213 362.158,281.504 375.476,197.78 388.793,326.247 402.111,369.38 415.429,325.951 428.746,234.489 
  442.064,366.209 455.382,224.724 468.7,222.435 482.017,183.851 495.335,423.083 508.653,277.668 521.97,198.182 535.288,201.235 548.606,171.159 561.923,183.221 
  575.241,190.848 588.559,167.724 601.877,175.502 615.194,210.967 628.512,218.383 641.83,188.96 655.147,226.082 668.465,218.663 681.783,272.864 695.101,284.189 
  708.418,359.047 721.736,252.319 735.054,224.407 748.371,261.517 761.689,363.89 775.007,359.06 788.325,284.753 801.642,416.104 814.96,342.706 828.278,311.309 
  841.595,302.068 854.913,253.882 868.231,283.048 881.549,311.951 894.866,386.061 908.184,193.366 921.502,242.359 934.819,185.998 948.137,219.296 961.455,309.908 
  974.772,143.448 988.09,289.7 1001.41,289.482 1014.73,245.681 1028.04,270.568 1041.36,260.975 1054.68,234.049 1068,152.213 1081.31,206.104 1094.63,291.021 
  1107.95,220.455 1121.27,244.108 1134.59,360.871 1147.9,339.722 1161.22,234.145 1174.54,221.569 1187.86,313.35 1201.17,254.388 1214.49,197.361 1227.81,225.641 
  1241.13,170.825 1254.44,192.622 1267.76,199.35 1281.08,331.878 1294.4,324.136 1307.72,158.194 1321.03,179.929 1334.35,226.408 1347.67,201.601 1360.99,162.937 
  1374.3,230.853 1387.62,151.145 1400.94,286.981 1414.26,263.57 1427.57,208.996 1440.89,162.831 1454.21,252.11 1467.53,217.073 1480.85,302.056 1494.16,128.721 
  1507.48,217.372 1520.8,388.886 1534.12,176.31 1547.43,219.115 1560.75,307.708 1574.07,226.905 1587.39,134.846 1600.7,143.931 1614.02,184.886 1627.34,115.85 
  1640.66,174.511 1653.98,241.698 1667.29,137.011 1680.61,150.299 1693.93,181.098 1707.25,224.18 1720.56,383.224 1733.88,173.611 1747.2,270.42 1760.52,191.374 
  1773.84,180.884 1787.15,197.901 1800.47,241.125 1813.79,312.132 1827.11,276.012 1840.42,256.083 1853.74,279.62 1867.06,241.674 1880.38,131.18 1893.69,197.37 
  1907.01,232.238 1920.33,248.765 1933.65,209.046 1946.97,256.287 1960.28,131.774 1973.6,255.676 1986.92,195.404 2000.24,277.196 2013.55,254.962 2026.87,226.785 
  2040.19,222.074 2053.51,220.74 2066.82,294.123 2080.14,148.161 2093.46,211.296 2106.78,168.734 2120.1,270.832 2133.41,85.838 2146.73,220.38 2160.05,193.634 
  2173.37,196.103 2186.68,174.572 2200,159.707 2213.32,170.375 2226.64,202.086 2239.95,179.901 2253.27,139.025 2266.59,127.404 2279.91,172.57 2293.23,139.255 
  
  "/>
</svg>
