<?xml version="1.0" encoding="utf-8"?>
<svg xmlns="http://www.w3.org/2000/svg" xmlns:xlink="http://www.w3.org/1999/xlink" width="600" height="400" viewBox="0 0 2400 1600">
<defs>
  <clipPath id="clip070">
    <rect x="0" y="0" width="2400" height="1600"/>
  </clipPath>
</defs>
<path clip-path="url(#clip070)" d="
M0 1600 L2400 1600 L2400 0 L0 0  Z
  " fill="#ffffff" fill-rule="evenodd" fill-opacity="1"/>
<defs>
  <clipPath id="clip071">
    <rect x="480" y="0" width="1681" height="1600"/>
  </clipPath>
</defs>
<path clip-path="url(#clip070)" d="
M279.704 1410.9 L2352.76 1410.9 L2352.76 47.2441 L279.704 47.2441  Z
  " fill="#ffffff" fill-rule="evenodd" fill-opacity="1"/>
<defs>
  <clipPath id="clip072">
    <rect x="279" y="47" width="2074" height="1365"/>
  </clipPath>
</defs>
<polyline clip-path="url(#clip072)" style="stroke:#000000; stroke-linecap:round; stroke-linejoin:round; stroke-width:2; stroke-opacity:0.1; fill:none" points="
  325.25,1410.9 325.25,47.2441 
  "/>
<polyline clip-path="url(#clip072)" style="stroke:#000000; stroke-linecap:round; stroke-linejoin:round; stroke-width:2; stroke-opacity:0.1; fill:none" points="
  981.528,1410.9 981.528,47.2441 
  "/>
<polyline clip-path="url(#clip072)" style="stroke:#000000; stroke-linecap:round; stroke-linejoin:round; stroke-width:2; stroke-opacity:0.1; fill:none" points="
  1637.81,1410.9 1637.81,47.2441 
  "/>
<polyline clip-path="url(#clip072)" style="stroke:#000000; stroke-linecap:round; stroke-linejoin:round; stroke-width:2; stroke-opacity:0.1; fill:none" points="
  2294.08,1410.9 2294.08,47.2441 
  "/>
<polyline clip-path="url(#clip070)" style="stroke:#000000; stroke-linecap:round; stroke-linejoin:round; stroke-width:4; stroke-opacity:1; fill:none" points="
  279.704,1410.9 2352.76,1410.9 
  "/>
<polyline clip-path="url(#clip070)" style="stroke:#000000; stroke-linecap:round; stroke-linejoin:round; stroke-width:4; stroke-opacity:1; fill:none" points="
  325.25,1410.9 325.25,1392 
  "/>
<polyline clip-path="url(#clip070)" style="stroke:#000000; stroke-linecap:round; stroke-linejoin:round; stroke-width:4; stroke-opacity:1; fill:none" points="
  981.528,1410.9 981.528,1392 
  "/>
<polyline clip-path="url(#clip070)" style="stroke:#000000; stroke-linecap:round; stroke-linejoin:round; stroke-width:4; stroke-opacity:1; fill:none" points="
  1637.81,1410.9 1637.81,1392 
  "/>
<polyline clip-path="url(#clip070)" style="stroke:#000000; stroke-linecap:round; stroke-linejoin:round; stroke-width:4; stroke-opacity:1; fill:none" points="
  2294.08,1410.9 2294.08,1392 
  "/>
<path clip-path="url(#clip070)" d="M325.25 1441.82 Q321.639 1441.82 319.81 1445.38 Q318.004 1448.92 318.004 1456.05 Q318.004 1463.16 319.81 1466.72 Q321.639 1470.26 325.25 1470.26 Q328.884 1470.26 330.689 1466.72 Q332.518 1463.16 332.518 1456.05 Q332.518 1448.92 330.689 1445.38 Q328.884 1441.82 325.25 1441.82 M325.25 1438.11 Q331.06 1438.11 334.115 1442.72 Q337.194 1447.3 337.194 1456.05 Q337.194 1464.78 334.115 1469.38 Q331.06 1473.97 325.25 1473.97 Q319.439 1473.97 316.361 1469.38 Q313.305 1464.78 313.305 1456.05 Q313.305 1447.3 316.361 1442.72 Q319.439 1438.11 325.25 1438.11 Z" fill="#000000" fill-rule="evenodd" fill-opacity="1" /><path clip-path="url(#clip070)" d="M874.505 1454.4 L892.861 1454.4 L892.861 1458.33 L878.787 1458.33 L878.787 1466.8 Q879.805 1466.46 880.824 1466.29 Q881.842 1466.11 882.861 1466.11 Q888.648 1466.11 892.028 1469.28 Q895.407 1472.45 895.407 1477.87 Q895.407 1483.45 891.935 1486.55 Q888.463 1489.63 882.143 1489.63 Q879.967 1489.63 877.699 1489.26 Q875.454 1488.89 873.046 1488.15 L873.046 1483.45 Q875.13 1484.58 877.352 1485.14 Q879.574 1485.69 882.051 1485.69 Q886.055 1485.69 888.393 1483.59 Q890.731 1481.48 890.731 1477.87 Q890.731 1474.26 888.393 1472.15 Q886.055 1470.04 882.051 1470.04 Q880.176 1470.04 878.301 1470.46 Q876.449 1470.88 874.505 1471.76 L874.505 1454.4 Z" fill="#000000" fill-rule="evenodd" fill-opacity="1" /><path clip-path="url(#clip070)" d="M904.62 1483.08 L909.504 1483.08 L909.504 1488.96 L904.62 1488.96 L904.62 1483.08 Z" fill="#000000" fill-rule="evenodd" fill-opacity="1" /><path clip-path="url(#clip070)" d="M929.689 1457.48 Q926.078 1457.48 924.25 1461.04 Q922.444 1464.58 922.444 1471.71 Q922.444 1478.82 924.25 1482.38 Q926.078 1485.92 929.689 1485.92 Q933.324 1485.92 935.129 1482.38 Q936.958 1478.82 936.958 1471.71 Q936.958 1464.58 935.129 1461.04 Q933.324 1457.48 929.689 1457.48 M929.689 1453.77 Q935.5 1453.77 938.555 1458.38 Q941.634 1462.96 941.634 1471.71 Q941.634 1480.44 938.555 1485.04 Q935.5 1489.63 929.689 1489.63 Q923.879 1489.63 920.801 1485.04 Q917.745 1480.44 917.745 1471.71 Q917.745 1462.96 920.801 1458.38 Q923.879 1453.77 929.689 1453.77 Z" fill="#000000" fill-rule="evenodd" fill-opacity="1" /><path clip-path="url(#clip070)" d="M959.851 1457.48 Q956.24 1457.48 954.411 1461.04 Q952.606 1464.58 952.606 1471.71 Q952.606 1478.82 954.411 1482.38 Q956.24 1485.92 959.851 1485.92 Q963.486 1485.92 965.291 1482.38 Q967.12 1478.82 967.12 1471.71 Q967.12 1464.58 965.291 1461.04 Q963.486 1457.48 959.851 1457.48 M959.851 1453.77 Q965.661 1453.77 968.717 1458.38 Q971.796 1462.96 971.796 1471.71 Q971.796 1480.44 968.717 1485.04 Q965.661 1489.63 959.851 1489.63 Q954.041 1489.63 950.962 1485.04 Q947.907 1480.44 947.907 1471.71 Q947.907 1462.96 950.962 1458.38 Q954.041 1453.77 959.851 1453.77 Z" fill="#000000" fill-rule="evenodd" fill-opacity="1" /><path clip-path="url(#clip070)" d="M1008.18 1463.49 L997.606 1474.12 L1008.18 1484.7 L1005.43 1487.5 L994.805 1476.87 L984.18 1487.5 L981.448 1484.7 L992.004 1474.12 L981.448 1463.49 L984.18 1460.69 L994.805 1471.32 L1005.43 1460.69 L1008.18 1463.49 Z" fill="#000000" fill-rule="evenodd" fill-opacity="1" /><path clip-path="url(#clip070)" d="M1020.55 1485.02 L1028.18 1485.02 L1028.18 1458.66 L1019.87 1460.32 L1019.87 1456.06 L1028.14 1454.4 L1032.81 1454.4 L1032.81 1485.02 L1040.45 1485.02 L1040.45 1488.96 L1020.55 1488.96 L1020.55 1485.02 Z" fill="#000000" fill-rule="evenodd" fill-opacity="1" /><path clip-path="url(#clip070)" d="M1059.9 1457.48 Q1056.29 1457.48 1054.46 1461.04 Q1052.65 1464.58 1052.65 1471.71 Q1052.65 1478.82 1054.46 1482.38 Q1056.29 1485.92 1059.9 1485.92 Q1063.53 1485.92 1065.34 1482.38 Q1067.17 1478.82 1067.17 1471.71 Q1067.17 1464.58 1065.34 1461.04 Q1063.53 1457.48 1059.9 1457.48 M1059.9 1453.77 Q1065.71 1453.77 1068.76 1458.38 Q1071.84 1462.96 1071.84 1471.71 Q1071.84 1480.44 1068.76 1485.04 Q1065.71 1489.63 1059.9 1489.63 Q1054.09 1489.63 1051.01 1485.04 Q1047.95 1480.44 1047.95 1471.71 Q1047.95 1462.96 1051.01 1458.38 Q1054.09 1453.77 1059.9 1453.77 Z" fill="#000000" fill-rule="evenodd" fill-opacity="1" /><path clip-path="url(#clip070)" d="M1073.03 1433.47 L1087.94 1433.47 L1087.94 1436.66 L1076.51 1436.66 L1076.51 1443.55 Q1077.33 1443.27 1078.16 1443.13 Q1078.99 1442.98 1079.82 1442.98 Q1084.52 1442.98 1087.26 1445.56 Q1090.01 1448.14 1090.01 1452.54 Q1090.01 1457.07 1087.19 1459.59 Q1084.37 1462.09 1079.23 1462.09 Q1077.46 1462.09 1075.62 1461.79 Q1073.8 1461.49 1071.84 1460.89 L1071.84 1457.07 Q1073.53 1457.99 1075.34 1458.44 Q1077.15 1458.89 1079.16 1458.89 Q1082.41 1458.89 1084.31 1457.18 Q1086.21 1455.47 1086.21 1452.54 Q1086.21 1449.6 1084.31 1447.89 Q1082.41 1446.18 1079.16 1446.18 Q1077.63 1446.18 1076.11 1446.52 Q1074.61 1446.86 1073.03 1447.57 L1073.03 1433.47 Z" fill="#000000" fill-rule="evenodd" fill-opacity="1" /><path clip-path="url(#clip070)" d="M1530.16 1485.02 L1537.8 1485.02 L1537.8 1458.66 L1529.49 1460.32 L1529.49 1456.06 L1537.75 1454.4 L1542.43 1454.4 L1542.43 1485.02 L1550.07 1485.02 L1550.07 1488.96 L1530.16 1488.96 L1530.16 1485.02 Z" fill="#000000" fill-rule="evenodd" fill-opacity="1" /><path clip-path="url(#clip070)" d="M1559.51 1483.08 L1564.4 1483.08 L1564.4 1488.96 L1559.51 1488.96 L1559.51 1483.08 Z" fill="#000000" fill-rule="evenodd" fill-opacity="1" /><path clip-path="url(#clip070)" d="M1584.58 1457.48 Q1580.97 1457.48 1579.14 1461.04 Q1577.34 1464.58 1577.34 1471.71 Q1577.34 1478.82 1579.14 1482.38 Q1580.97 1485.92 1584.58 1485.92 Q1588.22 1485.92 1590.02 1482.38 Q1591.85 1478.82 1591.85 1471.71 Q1591.85 1464.58 1590.02 1461.04 Q1588.22 1457.48 1584.58 1457.48 M1584.58 1453.77 Q1590.39 1453.77 1593.45 1458.38 Q1596.53 1462.96 1596.53 1471.71 Q1596.53 1480.44 1593.45 1485.04 Q1590.39 1489.63 1584.58 1489.63 Q1578.77 1489.63 1575.69 1485.04 Q1572.64 1480.44 1572.64 1471.71 Q1572.64 1462.96 1575.69 1458.38 Q1578.77 1453.77 1584.58 1453.77 Z" fill="#000000" fill-rule="evenodd" fill-opacity="1" /><path clip-path="url(#clip070)" d="M1614.74 1457.48 Q1611.13 1457.48 1609.3 1461.04 Q1607.5 1464.58 1607.5 1471.71 Q1607.5 1478.82 1609.3 1482.38 Q1611.13 1485.92 1614.74 1485.92 Q1618.38 1485.92 1620.18 1482.38 Q1622.01 1478.82 1622.01 1471.71 Q1622.01 1464.58 1620.18 1461.04 Q1618.38 1457.48 1614.74 1457.48 M1614.74 1453.77 Q1620.55 1453.77 1623.61 1458.38 Q1626.69 1462.96 1626.69 1471.71 Q1626.69 1480.44 1623.61 1485.04 Q1620.55 1489.63 1614.74 1489.63 Q1608.93 1489.63 1605.85 1485.04 Q1602.8 1480.44 1602.8 1471.71 Q1602.8 1462.96 1605.85 1458.38 Q1608.93 1453.77 1614.74 1453.77 Z" fill="#000000" fill-rule="evenodd" fill-opacity="1" /><path clip-path="url(#clip070)" d="M1663.08 1463.49 L1652.5 1474.12 L1663.08 1484.7 L1660.32 1487.5 L1649.7 1476.87 L1639.07 1487.5 L1636.34 1484.7 L1646.9 1474.12 L1636.34 1463.49 L1639.07 1460.69 L1649.7 1471.32 L1660.32 1460.69 L1663.08 1463.49 Z" fill="#000000" fill-rule="evenodd" fill-opacity="1" /><path clip-path="url(#clip070)" d="M1675.44 1485.02 L1683.08 1485.02 L1683.08 1458.66 L1674.77 1460.32 L1674.77 1456.06 L1683.03 1454.4 L1687.71 1454.4 L1687.71 1485.02 L1695.34 1485.02 L1695.34 1488.96 L1675.44 1488.96 L1675.44 1485.02 Z" fill="#000000" fill-rule="evenodd" fill-opacity="1" /><path clip-path="url(#clip070)" d="M1714.79 1457.48 Q1711.18 1457.48 1709.35 1461.04 Q1707.54 1464.58 1707.54 1471.71 Q1707.54 1478.82 1709.35 1482.38 Q1711.18 1485.92 1714.79 1485.92 Q1718.42 1485.92 1720.23 1482.38 Q1722.06 1478.82 1722.06 1471.71 Q1722.06 1464.58 1720.23 1461.04 Q1718.42 1457.48 1714.79 1457.48 M1714.79 1453.77 Q1720.6 1453.77 1723.65 1458.38 Q1726.73 1462.96 1726.73 1471.71 Q1726.73 1480.44 1723.65 1485.04 Q1720.6 1489.63 1714.79 1489.63 Q1708.98 1489.63 1705.9 1485.04 Q1702.84 1480.44 1702.84 1471.71 Q1702.84 1462.96 1705.9 1458.38 Q1708.98 1453.77 1714.79 1453.77 Z" fill="#000000" fill-rule="evenodd" fill-opacity="1" /><path clip-path="url(#clip070)" d="M1736.76 1445.99 Q1734.2 1445.99 1732.7 1447.74 Q1731.21 1449.49 1731.21 1452.54 Q1731.21 1455.57 1732.7 1457.33 Q1734.2 1459.08 1736.76 1459.08 Q1739.32 1459.08 1740.8 1457.33 Q1742.31 1455.57 1742.31 1452.54 Q1742.31 1449.49 1740.8 1447.74 Q1739.32 1445.99 1736.76 1445.99 M1744.3 1434.09 L1744.3 1437.55 Q1742.87 1436.87 1741.4 1436.51 Q1739.95 1436.16 1738.53 1436.16 Q1734.76 1436.16 1732.77 1438.69 Q1730.8 1441.23 1730.51 1446.37 Q1731.62 1444.73 1733.3 1443.87 Q1734.97 1442.98 1736.98 1442.98 Q1741.22 1442.98 1743.66 1445.56 Q1746.12 1448.12 1746.12 1452.54 Q1746.12 1456.86 1743.57 1459.48 Q1741.01 1462.09 1736.76 1462.09 Q1731.89 1462.09 1729.31 1458.37 Q1726.73 1454.62 1726.73 1447.53 Q1726.73 1440.88 1729.89 1436.93 Q1733.05 1432.96 1738.38 1432.96 Q1739.8 1432.96 1741.25 1433.24 Q1742.72 1433.52 1744.3 1434.09 Z" fill="#000000" fill-rule="evenodd" fill-opacity="1" /><path clip-path="url(#clip070)" d="M2186.44 1485.02 L2194.08 1485.02 L2194.08 1458.66 L2185.77 1460.32 L2185.77 1456.06 L2194.03 1454.4 L2198.71 1454.4 L2198.71 1485.02 L2206.35 1485.02 L2206.35 1488.96 L2186.44 1488.96 L2186.44 1485.02 Z" fill="#000000" fill-rule="evenodd" fill-opacity="1" /><path clip-path="url(#clip070)" d="M2215.79 1483.08 L2220.67 1483.08 L2220.67 1488.96 L2215.79 1488.96 L2215.79 1483.08 Z" fill="#000000" fill-rule="evenodd" fill-opacity="1" /><path clip-path="url(#clip070)" d="M2230.91 1454.4 L2249.26 1454.4 L2249.26 1458.33 L2235.19 1458.33 L2235.19 1466.8 Q2236.21 1466.46 2237.23 1466.29 Q2238.24 1466.11 2239.26 1466.11 Q2245.05 1466.11 2248.43 1469.28 Q2251.81 1472.45 2251.81 1477.87 Q2251.81 1483.45 2248.34 1486.55 Q2244.86 1489.63 2238.54 1489.63 Q2236.37 1489.63 2234.1 1489.26 Q2231.85 1488.89 2229.45 1488.15 L2229.45 1483.45 Q2231.53 1484.58 2233.75 1485.14 Q2235.98 1485.69 2238.45 1485.69 Q2242.46 1485.69 2244.79 1483.59 Q2247.13 1481.48 2247.13 1477.87 Q2247.13 1474.26 2244.79 1472.15 Q2242.46 1470.04 2238.45 1470.04 Q2236.58 1470.04 2234.7 1470.46 Q2232.85 1470.88 2230.91 1471.76 L2230.91 1454.4 Z" fill="#000000" fill-rule="evenodd" fill-opacity="1" /><path clip-path="url(#clip070)" d="M2271.02 1457.48 Q2267.41 1457.48 2265.58 1461.04 Q2263.78 1464.58 2263.78 1471.71 Q2263.78 1478.82 2265.58 1482.38 Q2267.41 1485.92 2271.02 1485.92 Q2274.66 1485.92 2276.46 1482.38 Q2278.29 1478.82 2278.29 1471.71 Q2278.29 1464.58 2276.46 1461.04 Q2274.66 1457.48 2271.02 1457.48 M2271.02 1453.77 Q2276.83 1453.77 2279.89 1458.38 Q2282.97 1462.96 2282.97 1471.71 Q2282.97 1480.44 2279.89 1485.04 Q2276.83 1489.63 2271.02 1489.63 Q2265.21 1489.63 2262.13 1485.04 Q2259.08 1480.44 2259.08 1471.71 Q2259.08 1462.96 2262.13 1458.38 Q2265.21 1453.77 2271.02 1453.77 Z" fill="#000000" fill-rule="evenodd" fill-opacity="1" /><path clip-path="url(#clip070)" d="M2319.35 1463.49 L2308.78 1474.12 L2319.35 1484.7 L2316.6 1487.5 L2305.97 1476.87 L2295.35 1487.5 L2292.62 1484.7 L2303.17 1474.12 L2292.62 1463.49 L2295.35 1460.69 L2305.97 1471.32 L2316.6 1460.69 L2319.35 1463.49 Z" fill="#000000" fill-rule="evenodd" fill-opacity="1" /><path clip-path="url(#clip070)" d="M2331.72 1485.02 L2339.35 1485.02 L2339.35 1458.66 L2331.04 1460.32 L2331.04 1456.06 L2339.31 1454.4 L2343.98 1454.4 L2343.98 1485.02 L2351.62 1485.02 L2351.62 1488.96 L2331.72 1488.96 L2331.72 1485.02 Z" fill="#000000" fill-rule="evenodd" fill-opacity="1" /><path clip-path="url(#clip070)" d="M2371.07 1457.48 Q2367.46 1457.48 2365.63 1461.04 Q2363.82 1464.58 2363.82 1471.71 Q2363.82 1478.82 2365.63 1482.38 Q2367.46 1485.92 2371.07 1485.92 Q2374.7 1485.92 2376.51 1482.38 Q2378.34 1478.82 2378.34 1471.71 Q2378.34 1464.58 2376.51 1461.04 Q2374.7 1457.48 2371.07 1457.48 M2371.07 1453.77 Q2376.88 1453.77 2379.93 1458.38 Q2383.01 1462.96 2383.01 1471.71 Q2383.01 1480.44 2379.93 1485.04 Q2376.88 1489.63 2371.07 1489.63 Q2365.26 1489.63 2362.18 1485.04 Q2359.12 1480.44 2359.12 1471.71 Q2359.12 1462.96 2362.18 1458.38 Q2365.26 1453.77 2371.07 1453.77 Z" fill="#000000" fill-rule="evenodd" fill-opacity="1" /><path clip-path="url(#clip070)" d="M2393.04 1445.99 Q2390.48 1445.99 2388.97 1447.74 Q2387.49 1449.49 2387.49 1452.54 Q2387.49 1455.57 2388.97 1457.33 Q2390.48 1459.08 2393.04 1459.08 Q2395.59 1459.08 2397.08 1457.33 Q2398.58 1455.57 2398.58 1452.54 Q2398.58 1449.49 2397.08 1447.74 Q2395.59 1445.99 2393.04 1445.99 M2400.58 1434.09 L2400.58 1437.55 Q2399.15 1436.87 2397.68 1436.51 Q2396.23 1436.16 2394.8 1436.16 Q2391.04 1436.16 2389.05 1438.69 Q2387.07 1441.23 2386.79 1446.37 Q2387.9 1444.73 2389.58 1443.87 Q2391.25 1442.98 2393.26 1442.98 Q2397.49 1442.98 2399.94 1445.56 Q2402.4 1448.12 2402.4 1452.54 Q2402.4 1456.86 2399.84 1459.48 Q2397.29 1462.09 2393.04 1462.09 Q2388.16 1462.09 2385.59 1458.37 Q2383.01 1454.62 2383.01 1447.53 Q2383.01 1440.88 2386.17 1436.93 Q2389.33 1432.96 2394.65 1432.96 Q2396.08 1432.96 2397.53 1433.24 Q2399 1433.52 2400.58 1434.09 Z" fill="#000000" fill-rule="evenodd" fill-opacity="1" /><path clip-path="url(#clip070)" d="M1165.79 1526.67 L1172.22 1526.67 L1172.22 1574.19 L1165.79 1574.19 L1165.79 1526.67 Z" fill="#000000" fill-rule="evenodd" fill-opacity="1" /><path clip-path="url(#clip070)" d="M1190.55 1528.42 L1190.55 1538.54 L1202.62 1538.54 L1202.62 1543.09 L1190.55 1543.09 L1190.55 1562.44 Q1190.55 1566.8 1191.73 1568.04 Q1192.94 1569.28 1196.6 1569.28 L1202.62 1569.28 L1202.62 1574.19 L1196.6 1574.19 Q1189.82 1574.19 1187.24 1571.67 Q1184.67 1569.12 1184.67 1562.44 L1184.67 1543.09 L1180.37 1543.09 L1180.37 1538.54 L1184.67 1538.54 L1184.67 1528.42 L1190.55 1528.42 Z" fill="#000000" fill-rule="evenodd" fill-opacity="1" /><path clip-path="url(#clip070)" d="M1240.81 1554.9 L1240.81 1557.76 L1213.89 1557.76 Q1214.27 1563.81 1217.51 1566.99 Q1220.79 1570.14 1226.62 1570.14 Q1229.99 1570.14 1233.14 1569.32 Q1236.32 1568.49 1239.44 1566.83 L1239.44 1572.37 Q1236.29 1573.71 1232.98 1574.41 Q1229.67 1575.11 1226.27 1575.11 Q1217.74 1575.11 1212.74 1570.14 Q1207.77 1565.18 1207.77 1556.71 Q1207.77 1547.96 1212.48 1542.83 Q1217.23 1537.68 1225.25 1537.68 Q1232.44 1537.68 1236.61 1542.33 Q1240.81 1546.94 1240.81 1554.9 M1234.96 1553.18 Q1234.89 1548.37 1232.25 1545.51 Q1229.64 1542.64 1225.31 1542.64 Q1220.41 1542.64 1217.45 1545.41 Q1214.52 1548.18 1214.08 1553.21 L1234.96 1553.18 Z" fill="#000000" fill-rule="evenodd" fill-opacity="1" /><path clip-path="url(#clip070)" d="M1271.08 1544.01 Q1270.09 1543.44 1268.92 1543.18 Q1267.77 1542.9 1266.37 1542.9 Q1261.41 1542.9 1258.73 1546.14 Q1256.09 1549.36 1256.09 1555.41 L1256.09 1574.19 L1250.2 1574.19 L1250.2 1538.54 L1256.09 1538.54 L1256.09 1544.08 Q1257.94 1540.83 1260.9 1539.27 Q1263.86 1537.68 1268.09 1537.68 Q1268.69 1537.68 1269.43 1537.77 Q1270.16 1537.84 1271.05 1538 L1271.08 1544.01 Z" fill="#000000" fill-rule="evenodd" fill-opacity="1" /><path clip-path="url(#clip070)" d="M1293.42 1556.27 Q1286.33 1556.27 1283.59 1557.89 Q1280.85 1559.51 1280.85 1563.43 Q1280.85 1566.55 1282.89 1568.39 Q1284.96 1570.21 1288.49 1570.21 Q1293.36 1570.21 1296.29 1566.77 Q1299.25 1563.3 1299.25 1557.57 L1299.25 1556.27 L1293.42 1556.27 M1305.11 1553.85 L1305.11 1574.19 L1299.25 1574.19 L1299.25 1568.77 Q1297.24 1572.02 1294.25 1573.58 Q1291.26 1575.11 1286.93 1575.11 Q1281.46 1575.11 1278.21 1572.05 Q1275 1568.97 1275 1563.81 Q1275 1557.79 1279.01 1554.74 Q1283.05 1551.68 1291.04 1551.68 L1299.25 1551.68 L1299.25 1551.11 Q1299.25 1547.07 1296.58 1544.87 Q1293.93 1542.64 1289.13 1542.64 Q1286.07 1542.64 1283.18 1543.38 Q1280.28 1544.11 1277.61 1545.57 L1277.61 1540.16 Q1280.82 1538.92 1283.84 1538.31 Q1286.87 1537.68 1289.73 1537.68 Q1297.47 1537.68 1301.29 1541.69 Q1305.11 1545.7 1305.11 1553.85 Z" fill="#000000" fill-rule="evenodd" fill-opacity="1" /><path clip-path="url(#clip070)" d="M1322.96 1528.42 L1322.96 1538.54 L1335.02 1538.54 L1335.02 1543.09 L1322.96 1543.09 L1322.96 1562.44 Q1322.96 1566.8 1324.14 1568.04 Q1325.35 1569.28 1329.01 1569.28 L1335.02 1569.28 L1335.02 1574.19 L1329.01 1574.19 Q1322.23 1574.19 1319.65 1571.67 Q1317.07 1569.12 1317.07 1562.44 L1317.07 1543.09 L1312.78 1543.09 L1312.78 1538.54 L1317.07 1538.54 L1317.07 1528.42 L1322.96 1528.42 Z" fill="#000000" fill-rule="evenodd" fill-opacity="1" /><path clip-path="url(#clip070)" d="M1342.73 1538.54 L1348.58 1538.54 L1348.58 1574.19 L1342.73 1574.19 L1342.73 1538.54 M1342.73 1524.66 L1348.58 1524.66 L1348.58 1532.08 L1342.73 1532.08 L1342.73 1524.66 Z" fill="#000000" fill-rule="evenodd" fill-opacity="1" /><path clip-path="url(#clip070)" d="M1374.65 1542.64 Q1369.94 1542.64 1367.2 1546.34 Q1364.47 1550 1364.47 1556.39 Q1364.47 1562.79 1367.17 1566.48 Q1369.91 1570.14 1374.65 1570.14 Q1379.33 1570.14 1382.07 1566.45 Q1384.8 1562.76 1384.8 1556.39 Q1384.8 1550.06 1382.07 1546.37 Q1379.33 1542.64 1374.65 1542.64 M1374.65 1537.68 Q1382.29 1537.68 1386.65 1542.64 Q1391.01 1547.61 1391.01 1556.39 Q1391.01 1565.15 1386.65 1570.14 Q1382.29 1575.11 1374.65 1575.11 Q1366.98 1575.11 1362.62 1570.14 Q1358.29 1565.15 1358.29 1556.39 Q1358.29 1547.61 1362.62 1542.64 Q1366.98 1537.68 1374.65 1537.68 Z" fill="#000000" fill-rule="evenodd" fill-opacity="1" /><path clip-path="url(#clip070)" d="M1430.35 1552.67 L1430.35 1574.19 L1424.49 1574.19 L1424.49 1552.86 Q1424.49 1547.8 1422.52 1545.29 Q1420.55 1542.77 1416.6 1542.77 Q1411.86 1542.77 1409.12 1545.79 Q1406.38 1548.82 1406.38 1554.04 L1406.38 1574.19 L1400.5 1574.19 L1400.5 1538.54 L1406.38 1538.54 L1406.38 1544.08 Q1408.48 1540.86 1411.32 1539.27 Q1414.18 1537.68 1417.91 1537.68 Q1424.05 1537.68 1427.2 1541.5 Q1430.35 1545.29 1430.35 1552.67 Z" fill="#000000" fill-rule="evenodd" fill-opacity="1" /><path clip-path="url(#clip070)" d="M1464.76 1539.59 L1464.76 1545.13 Q1462.28 1543.85 1459.6 1543.22 Q1456.93 1542.58 1454.06 1542.58 Q1449.7 1542.58 1447.51 1543.92 Q1445.34 1545.25 1445.34 1547.93 Q1445.34 1549.96 1446.9 1551.14 Q1448.46 1552.29 1453.17 1553.34 L1455.18 1553.78 Q1461.42 1555.12 1464.03 1557.57 Q1466.67 1559.99 1466.67 1564.35 Q1466.67 1569.32 1462.72 1572.21 Q1458.81 1575.11 1451.93 1575.11 Q1449.07 1575.11 1445.95 1574.54 Q1442.86 1573.99 1439.42 1572.88 L1439.42 1566.83 Q1442.67 1568.52 1445.82 1569.38 Q1448.97 1570.21 1452.06 1570.21 Q1456.2 1570.21 1458.42 1568.81 Q1460.65 1567.37 1460.65 1564.8 Q1460.65 1562.41 1459.03 1561.14 Q1457.44 1559.86 1451.99 1558.68 L1449.96 1558.21 Q1444.51 1557.06 1442.1 1554.71 Q1439.68 1552.32 1439.68 1548.18 Q1439.68 1543.15 1443.24 1540.42 Q1446.81 1537.68 1453.36 1537.68 Q1456.61 1537.68 1459.47 1538.16 Q1462.34 1538.63 1464.76 1539.59 Z" fill="#000000" fill-rule="evenodd" fill-opacity="1" /><polyline clip-path="url(#clip072)" style="stroke:#000000; stroke-linecap:round; stroke-linejoin:round; stroke-width:2; stroke-opacity:0.1; fill:none" points="
  279.704,1157.89 2352.76,1157.89 
  "/>
<polyline clip-path="url(#clip072)" style="stroke:#000000; stroke-linecap:round; stroke-linejoin:round; stroke-width:2; stroke-opacity:0.1; fill:none" points="
  279.704,889.878 2352.76,889.878 
  "/>
<polyline clip-path="url(#clip072)" style="stroke:#000000; stroke-linecap:round; stroke-linejoin:round; stroke-width:2; stroke-opacity:0.1; fill:none" points="
  279.704,621.865 2352.76,621.865 
  "/>
<polyline clip-path="url(#clip072)" style="stroke:#000000; stroke-linecap:round; stroke-linejoin:round; stroke-width:2; stroke-opacity:0.1; fill:none" points="
  279.704,353.852 2352.76,353.852 
  "/>
<polyline clip-path="url(#clip072)" style="stroke:#000000; stroke-linecap:round; stroke-linejoin:round; stroke-width:2; stroke-opacity:0.1; fill:none" points="
  279.704,85.838 2352.76,85.838 
  "/>
<polyline clip-path="url(#clip070)" style="stroke:#000000; stroke-linecap:round; stroke-linejoin:round; stroke-width:4; stroke-opacity:1; fill:none" points="
  279.704,1410.9 279.704,47.2441 
  "/>
<polyline clip-path="url(#clip070)" style="stroke:#000000; stroke-linecap:round; stroke-linejoin:round; stroke-width:4; stroke-opacity:1; fill:none" points="
  279.704,1157.89 298.602,1157.89 
  "/>
<polyline clip-path="url(#clip070)" style="stroke:#000000; stroke-linecap:round; stroke-linejoin:round; stroke-width:4; stroke-opacity:1; fill:none" points="
  279.704,889.878 298.602,889.878 
  "/>
<polyline clip-path="url(#clip070)" style="stroke:#000000; stroke-linecap:round; stroke-linejoin:round; stroke-width:4; stroke-opacity:1; fill:none" points="
  279.704,621.865 298.602,621.865 
  "/>
<polyline clip-path="url(#clip070)" style="stroke:#000000; stroke-linecap:round; stroke-linejoin:round; stroke-width:4; stroke-opacity:1; fill:none" points="
  279.704,353.852 298.602,353.852 
  "/>
<polyline clip-path="url(#clip070)" style="stroke:#000000; stroke-linecap:round; stroke-linejoin:round; stroke-width:4; stroke-opacity:1; fill:none" points="
  279.704,85.838 298.602,85.838 
  "/>
<path clip-path="url(#clip070)" d="M126.205 1143.69 Q122.593 1143.69 120.765 1147.26 Q118.959 1150.8 118.959 1157.93 Q118.959 1165.03 120.765 1168.6 Q122.593 1172.14 126.205 1172.14 Q129.839 1172.14 131.644 1168.6 Q133.473 1165.03 133.473 1157.93 Q133.473 1150.8 131.644 1147.26 Q129.839 1143.69 126.205 1143.69 M126.205 1139.99 Q132.015 1139.99 135.07 1144.59 Q138.149 1149.18 138.149 1157.93 Q138.149 1166.65 135.07 1171.26 Q132.015 1175.84 126.205 1175.84 Q120.394 1175.84 117.316 1171.26 Q114.26 1166.65 114.26 1157.93 Q114.26 1149.18 117.316 1144.59 Q120.394 1139.99 126.205 1139.99 Z" fill="#000000" fill-rule="evenodd" fill-opacity="1" /><path clip-path="url(#clip070)" d="M146.366 1169.29 L151.251 1169.29 L151.251 1175.17 L146.366 1175.17 L146.366 1169.29 Z" fill="#000000" fill-rule="evenodd" fill-opacity="1" /><path clip-path="url(#clip070)" d="M161.575 1174.45 L161.575 1170.2 Q163.334 1171.03 165.14 1171.47 Q166.945 1171.91 168.681 1171.91 Q173.311 1171.91 175.741 1168.81 Q178.195 1165.68 178.542 1159.34 Q177.2 1161.33 175.139 1162.39 Q173.079 1163.46 170.579 1163.46 Q165.394 1163.46 162.362 1160.33 Q159.353 1157.19 159.353 1151.75 Q159.353 1146.42 162.501 1143.2 Q165.649 1139.99 170.88 1139.99 Q176.876 1139.99 180.024 1144.59 Q183.195 1149.18 183.195 1157.93 Q183.195 1166.1 179.306 1170.98 Q175.44 1175.84 168.889 1175.84 Q167.13 1175.84 165.325 1175.5 Q163.519 1175.15 161.575 1174.45 M170.88 1159.8 Q174.028 1159.8 175.857 1157.65 Q177.709 1155.5 177.709 1151.75 Q177.709 1148.02 175.857 1145.87 Q174.028 1143.69 170.88 1143.69 Q167.732 1143.69 165.88 1145.87 Q164.052 1148.02 164.052 1151.75 Q164.052 1155.5 165.88 1157.65 Q167.732 1159.8 170.88 1159.8 Z" fill="#000000" fill-rule="evenodd" fill-opacity="1" /><path clip-path="url(#clip070)" d="M201.598 1143.69 Q197.987 1143.69 196.158 1147.26 Q194.352 1150.8 194.352 1157.93 Q194.352 1165.03 196.158 1168.6 Q197.987 1172.14 201.598 1172.14 Q205.232 1172.14 207.037 1168.6 Q208.866 1165.03 208.866 1157.93 Q208.866 1150.8 207.037 1147.26 Q205.232 1143.69 201.598 1143.69 M201.598 1139.99 Q207.408 1139.99 210.463 1144.59 Q213.542 1149.18 213.542 1157.93 Q213.542 1166.65 210.463 1171.26 Q207.408 1175.84 201.598 1175.84 Q195.787 1175.84 192.709 1171.26 Q189.653 1166.65 189.653 1157.93 Q189.653 1149.18 192.709 1144.59 Q195.787 1139.99 201.598 1139.99 Z" fill="#000000" fill-rule="evenodd" fill-opacity="1" /><path clip-path="url(#clip070)" d="M231.76 1143.69 Q228.148 1143.69 226.32 1147.26 Q224.514 1150.8 224.514 1157.93 Q224.514 1165.03 226.32 1168.6 Q228.148 1172.14 231.76 1172.14 Q235.394 1172.14 237.199 1168.6 Q239.028 1165.03 239.028 1157.93 Q239.028 1150.8 237.199 1147.26 Q235.394 1143.69 231.76 1143.69 M231.76 1139.99 Q237.57 1139.99 240.625 1144.59 Q243.704 1149.18 243.704 1157.93 Q243.704 1166.65 240.625 1171.26 Q237.57 1175.84 231.76 1175.84 Q225.949 1175.84 222.871 1171.26 Q219.815 1166.65 219.815 1157.93 Q219.815 1149.18 222.871 1144.59 Q225.949 1139.99 231.76 1139.99 Z" fill="#000000" fill-rule="evenodd" fill-opacity="1" /><path clip-path="url(#clip070)" d="M127.2 875.677 Q123.589 875.677 121.76 879.242 Q119.955 882.784 119.955 889.913 Q119.955 897.02 121.76 900.584 Q123.589 904.126 127.2 904.126 Q130.834 904.126 132.64 900.584 Q134.468 897.02 134.468 889.913 Q134.468 882.784 132.64 879.242 Q130.834 875.677 127.2 875.677 M127.2 871.973 Q133.01 871.973 136.066 876.58 Q139.144 881.163 139.144 889.913 Q139.144 898.64 136.066 903.246 Q133.01 907.83 127.2 907.83 Q121.39 907.83 118.311 903.246 Q115.256 898.64 115.256 889.913 Q115.256 881.163 118.311 876.58 Q121.39 871.973 127.2 871.973 Z" fill="#000000" fill-rule="evenodd" fill-opacity="1" /><path clip-path="url(#clip070)" d="M147.362 901.279 L152.246 901.279 L152.246 907.158 L147.362 907.158 L147.362 901.279 Z" fill="#000000" fill-rule="evenodd" fill-opacity="1" /><path clip-path="url(#clip070)" d="M162.57 906.441 L162.57 902.182 Q164.329 903.015 166.135 903.455 Q167.94 903.895 169.677 903.895 Q174.306 903.895 176.737 900.793 Q179.19 897.668 179.538 891.325 Q178.195 893.316 176.135 894.381 Q174.075 895.446 171.575 895.446 Q166.39 895.446 163.357 892.321 Q160.348 889.172 160.348 883.733 Q160.348 878.409 163.496 875.191 Q166.644 871.973 171.876 871.973 Q177.871 871.973 181.019 876.58 Q184.19 881.163 184.19 889.913 Q184.19 898.084 180.301 902.969 Q176.436 907.83 169.885 907.83 Q168.126 907.83 166.32 907.483 Q164.515 907.135 162.57 906.441 M171.876 891.788 Q175.024 891.788 176.852 889.635 Q178.704 887.483 178.704 883.733 Q178.704 880.006 176.852 877.853 Q175.024 875.677 171.876 875.677 Q168.727 875.677 166.876 877.853 Q165.047 880.006 165.047 883.733 Q165.047 887.483 166.876 889.635 Q168.727 891.788 171.876 891.788 Z" fill="#000000" fill-rule="evenodd" fill-opacity="1" /><path clip-path="url(#clip070)" d="M196.621 903.223 L212.94 903.223 L212.94 907.158 L190.996 907.158 L190.996 903.223 Q193.658 900.469 198.241 895.839 Q202.848 891.186 204.028 889.844 Q206.274 887.321 207.153 885.584 Q208.056 883.825 208.056 882.135 Q208.056 879.381 206.112 877.645 Q204.19 875.909 201.088 875.909 Q198.889 875.909 196.436 876.673 Q194.005 877.436 191.227 878.987 L191.227 874.265 Q194.051 873.131 196.505 872.552 Q198.959 871.973 200.996 871.973 Q206.366 871.973 209.561 874.659 Q212.755 877.344 212.755 881.835 Q212.755 883.964 211.945 885.885 Q211.158 887.784 209.051 890.376 Q208.473 891.047 205.371 894.265 Q202.269 897.459 196.621 903.223 Z" fill="#000000" fill-rule="evenodd" fill-opacity="1" /><path clip-path="url(#clip070)" d="M222.801 872.598 L241.158 872.598 L241.158 876.534 L227.084 876.534 L227.084 885.006 Q228.102 884.659 229.121 884.497 Q230.139 884.311 231.158 884.311 Q236.945 884.311 240.324 887.483 Q243.704 890.654 243.704 896.071 Q243.704 901.649 240.232 904.751 Q236.76 907.83 230.44 907.83 Q228.264 907.83 225.996 907.459 Q223.75 907.089 221.343 906.348 L221.343 901.649 Q223.426 902.783 225.648 903.339 Q227.871 903.895 230.347 903.895 Q234.352 903.895 236.69 901.788 Q239.028 899.682 239.028 896.071 Q239.028 892.459 236.69 890.353 Q234.352 888.247 230.347 888.247 Q228.473 888.247 226.598 888.663 Q224.746 889.08 222.801 889.959 L222.801 872.598 Z" fill="#000000" fill-rule="evenodd" fill-opacity="1" /><path clip-path="url(#clip070)" d="M126.205 607.664 Q122.593 607.664 120.765 611.228 Q118.959 614.77 118.959 621.9 Q118.959 629.006 120.765 632.571 Q122.593 636.113 126.205 636.113 Q129.839 636.113 131.644 632.571 Q133.473 629.006 133.473 621.9 Q133.473 614.77 131.644 611.228 Q129.839 607.664 126.205 607.664 M126.205 603.96 Q132.015 603.96 135.07 608.566 Q138.149 613.15 138.149 621.9 Q138.149 630.627 135.07 635.233 Q132.015 639.816 126.205 639.816 Q120.394 639.816 117.316 635.233 Q114.26 630.627 114.26 621.9 Q114.26 613.15 117.316 608.566 Q120.394 603.96 126.205 603.96 Z" fill="#000000" fill-rule="evenodd" fill-opacity="1" /><path clip-path="url(#clip070)" d="M146.366 633.265 L151.251 633.265 L151.251 639.145 L146.366 639.145 L146.366 633.265 Z" fill="#000000" fill-rule="evenodd" fill-opacity="1" /><path clip-path="url(#clip070)" d="M161.575 638.427 L161.575 634.168 Q163.334 635.001 165.14 635.441 Q166.945 635.881 168.681 635.881 Q173.311 635.881 175.741 632.779 Q178.195 629.654 178.542 623.312 Q177.2 625.302 175.139 626.367 Q173.079 627.432 170.579 627.432 Q165.394 627.432 162.362 624.307 Q159.353 621.159 159.353 615.719 Q159.353 610.395 162.501 607.178 Q165.649 603.96 170.88 603.96 Q176.876 603.96 180.024 608.566 Q183.195 613.15 183.195 621.9 Q183.195 630.071 179.306 634.955 Q175.44 639.816 168.889 639.816 Q167.13 639.816 165.325 639.469 Q163.519 639.122 161.575 638.427 M170.88 623.775 Q174.028 623.775 175.857 621.622 Q177.709 619.469 177.709 615.719 Q177.709 611.992 175.857 609.84 Q174.028 607.664 170.88 607.664 Q167.732 607.664 165.88 609.84 Q164.052 611.992 164.052 615.719 Q164.052 619.469 165.88 621.622 Q167.732 623.775 170.88 623.775 Z" fill="#000000" fill-rule="evenodd" fill-opacity="1" /><path clip-path="url(#clip070)" d="M191.644 604.585 L210 604.585 L210 608.52 L195.926 608.52 L195.926 616.992 Q196.945 616.645 197.963 616.483 Q198.982 616.298 200 616.298 Q205.787 616.298 209.167 619.469 Q212.547 622.64 212.547 628.057 Q212.547 633.636 209.074 636.738 Q205.602 639.816 199.283 639.816 Q197.107 639.816 194.838 639.446 Q192.593 639.076 190.186 638.335 L190.186 633.636 Q192.269 634.77 194.491 635.326 Q196.713 635.881 199.19 635.881 Q203.195 635.881 205.533 633.775 Q207.871 631.668 207.871 628.057 Q207.871 624.446 205.533 622.34 Q203.195 620.233 199.19 620.233 Q197.315 620.233 195.44 620.65 Q193.588 621.066 191.644 621.946 L191.644 604.585 Z" fill="#000000" fill-rule="evenodd" fill-opacity="1" /><path clip-path="url(#clip070)" d="M231.76 607.664 Q228.148 607.664 226.32 611.228 Q224.514 614.77 224.514 621.9 Q224.514 629.006 226.32 632.571 Q228.148 636.113 231.76 636.113 Q235.394 636.113 237.199 632.571 Q239.028 629.006 239.028 621.9 Q239.028 614.77 237.199 611.228 Q235.394 607.664 231.76 607.664 M231.76 603.96 Q237.57 603.96 240.625 608.566 Q243.704 613.15 243.704 621.9 Q243.704 630.627 240.625 635.233 Q237.57 639.816 231.76 639.816 Q225.949 639.816 222.871 635.233 Q219.815 630.627 219.815 621.9 Q219.815 613.15 222.871 608.566 Q225.949 603.96 231.76 603.96 Z" fill="#000000" fill-rule="evenodd" fill-opacity="1" /><path clip-path="url(#clip070)" d="M127.2 339.65 Q123.589 339.65 121.76 343.215 Q119.955 346.757 119.955 353.886 Q119.955 360.993 121.76 364.557 Q123.589 368.099 127.2 368.099 Q130.834 368.099 132.64 364.557 Q134.468 360.993 134.468 353.886 Q134.468 346.757 132.64 343.215 Q130.834 339.65 127.2 339.65 M127.2 335.947 Q133.01 335.947 136.066 340.553 Q139.144 345.136 139.144 353.886 Q139.144 362.613 136.066 367.219 Q133.01 371.803 127.2 371.803 Q121.39 371.803 118.311 367.219 Q115.256 362.613 115.256 353.886 Q115.256 345.136 118.311 340.553 Q121.39 335.947 127.2 335.947 Z" fill="#000000" fill-rule="evenodd" fill-opacity="1" /><path clip-path="url(#clip070)" d="M147.362 365.252 L152.246 365.252 L152.246 371.132 L147.362 371.132 L147.362 365.252 Z" fill="#000000" fill-rule="evenodd" fill-opacity="1" /><path clip-path="url(#clip070)" d="M162.57 370.414 L162.57 366.155 Q164.329 366.988 166.135 367.428 Q167.94 367.868 169.677 367.868 Q174.306 367.868 176.737 364.766 Q179.19 361.641 179.538 355.298 Q178.195 357.289 176.135 358.354 Q174.075 359.419 171.575 359.419 Q166.39 359.419 163.357 356.294 Q160.348 353.145 160.348 347.706 Q160.348 342.382 163.496 339.164 Q166.644 335.947 171.876 335.947 Q177.871 335.947 181.019 340.553 Q184.19 345.136 184.19 353.886 Q184.19 362.057 180.301 366.942 Q176.436 371.803 169.885 371.803 Q168.126 371.803 166.32 371.456 Q164.515 371.108 162.57 370.414 M171.876 355.761 Q175.024 355.761 176.852 353.608 Q178.704 351.456 178.704 347.706 Q178.704 343.979 176.852 341.826 Q175.024 339.65 171.876 339.65 Q168.727 339.65 166.876 341.826 Q165.047 343.979 165.047 347.706 Q165.047 351.456 166.876 353.608 Q168.727 355.761 171.876 355.761 Z" fill="#000000" fill-rule="evenodd" fill-opacity="1" /><path clip-path="url(#clip070)" d="M191.413 336.572 L213.635 336.572 L213.635 338.562 L201.088 371.132 L196.204 371.132 L208.01 340.507 L191.413 340.507 L191.413 336.572 Z" fill="#000000" fill-rule="evenodd" fill-opacity="1" /><path clip-path="url(#clip070)" d="M222.801 336.572 L241.158 336.572 L241.158 340.507 L227.084 340.507 L227.084 348.979 Q228.102 348.632 229.121 348.47 Q230.139 348.284 231.158 348.284 Q236.945 348.284 240.324 351.456 Q243.704 354.627 243.704 360.044 Q243.704 365.622 240.232 368.724 Q236.76 371.803 230.44 371.803 Q228.264 371.803 225.996 371.432 Q223.75 371.062 221.343 370.321 L221.343 365.622 Q223.426 366.757 225.648 367.312 Q227.871 367.868 230.347 367.868 Q234.352 367.868 236.69 365.761 Q239.028 363.655 239.028 360.044 Q239.028 356.433 236.69 354.326 Q234.352 352.22 230.347 352.22 Q228.473 352.22 226.598 352.636 Q224.746 353.053 222.801 353.933 L222.801 336.572 Z" fill="#000000" fill-rule="evenodd" fill-opacity="1" /><path clip-path="url(#clip070)" d="M117.015 99.1829 L124.654 99.1829 L124.654 72.8173 L116.343 74.4839 L116.343 70.2247 L124.607 68.558 L129.283 68.558 L129.283 99.1829 L136.922 99.1829 L136.922 103.118 L117.015 103.118 L117.015 99.1829 Z" fill="#000000" fill-rule="evenodd" fill-opacity="1" /><path clip-path="url(#clip070)" d="M146.366 97.2384 L151.251 97.2384 L151.251 103.118 L146.366 103.118 L146.366 97.2384 Z" fill="#000000" fill-rule="evenodd" fill-opacity="1" /><path clip-path="url(#clip070)" d="M171.436 71.6367 Q167.825 71.6367 165.996 75.2015 Q164.19 78.7432 164.19 85.8728 Q164.19 92.9792 165.996 96.544 Q167.825 100.086 171.436 100.086 Q175.07 100.086 176.876 96.544 Q178.704 92.9792 178.704 85.8728 Q178.704 78.7432 176.876 75.2015 Q175.07 71.6367 171.436 71.6367 M171.436 67.933 Q177.246 67.933 180.301 72.5395 Q183.38 77.1228 183.38 85.8728 Q183.38 94.5996 180.301 99.206 Q177.246 103.789 171.436 103.789 Q165.626 103.789 162.547 99.206 Q159.491 94.5996 159.491 85.8728 Q159.491 77.1228 162.547 72.5395 Q165.626 67.933 171.436 67.933 Z" fill="#000000" fill-rule="evenodd" fill-opacity="1" /><path clip-path="url(#clip070)" d="M201.598 71.6367 Q197.987 71.6367 196.158 75.2015 Q194.352 78.7432 194.352 85.8728 Q194.352 92.9792 196.158 96.544 Q197.987 100.086 201.598 100.086 Q205.232 100.086 207.037 96.544 Q208.866 92.9792 208.866 85.8728 Q208.866 78.7432 207.037 75.2015 Q205.232 71.6367 201.598 71.6367 M201.598 67.933 Q207.408 67.933 210.463 72.5395 Q213.542 77.1228 213.542 85.8728 Q213.542 94.5996 210.463 99.206 Q207.408 103.789 201.598 103.789 Q195.787 103.789 192.709 99.206 Q189.653 94.5996 189.653 85.8728 Q189.653 77.1228 192.709 72.5395 Q195.787 67.933 201.598 67.933 Z" fill="#000000" fill-rule="evenodd" fill-opacity="1" /><path clip-path="url(#clip070)" d="M231.76 71.6367 Q228.148 71.6367 226.32 75.2015 Q224.514 78.7432 224.514 85.8728 Q224.514 92.9792 226.32 96.544 Q228.148 100.086 231.76 100.086 Q235.394 100.086 237.199 96.544 Q239.028 92.9792 239.028 85.8728 Q239.028 78.7432 237.199 75.2015 Q235.394 71.6367 231.76 71.6367 M231.76 67.933 Q237.57 67.933 240.625 72.5395 Q243.704 77.1228 243.704 85.8728 Q243.704 94.5996 240.625 99.206 Q237.57 103.789 231.76 103.789 Q225.949 103.789 222.871 99.206 Q219.815 94.5996 219.815 85.8728 Q219.815 77.1228 222.871 72.5395 Q225.949 67.933 231.76 67.933 Z" fill="#000000" fill-rule="evenodd" fill-opacity="1" /><path clip-path="url(#clip070)" d="M18.0438 910.891 L24.314 910.891 Q22.5634 914.551 21.704 917.798 Q20.8447 921.044 20.8447 924.068 Q20.8447 929.32 22.8817 932.184 Q24.9187 935.017 28.6745 935.017 Q31.8255 935.017 33.4488 933.139 Q35.0402 931.229 36.0269 925.946 L36.8226 922.063 Q38.1912 914.869 41.6605 911.464 Q45.098 908.026 50.8908 908.026 Q57.7976 908.026 61.3624 912.673 Q64.9272 917.288 64.9272 926.232 Q64.9272 929.606 64.1633 933.425 Q63.3994 937.213 61.9035 941.287 L55.2831 941.287 Q57.4793 937.372 58.5933 933.616 Q59.7073 929.861 59.7073 926.232 Q59.7073 920.726 57.543 917.734 Q55.3786 914.742 51.3682 914.742 Q47.8671 914.742 45.8937 916.906 Q43.9204 919.039 42.9337 923.941 L42.1698 927.855 Q40.7375 935.049 37.682 938.263 Q34.6264 941.478 29.1837 941.478 Q22.8817 941.478 19.2532 937.054 Q15.6248 932.598 15.6248 924.8 Q15.6248 921.458 16.2295 917.989 Q16.8343 914.519 18.0438 910.891 Z" fill="#000000" fill-rule="evenodd" fill-opacity="1" /><path clip-path="url(#clip070)" d="M49.9359 898.86 L28.3562 898.86 L28.3562 893.003 L49.7131 893.003 Q54.7739 893.003 57.3202 891.03 Q59.8346 889.056 59.8346 885.11 Q59.8346 880.367 56.8109 877.63 Q53.7872 874.861 48.5673 874.861 L28.3562 874.861 L28.3562 869.005 L64.0042 869.005 L64.0042 874.861 L58.5296 874.861 Q61.7762 876.993 63.3676 879.826 Q64.9272 882.627 64.9272 886.351 Q64.9272 892.494 61.1078 895.677 Q57.2883 898.86 49.9359 898.86 M27.4968 884.123 L27.4968 884.123 Z" fill="#000000" fill-rule="evenodd" fill-opacity="1" /><path clip-path="url(#clip070)" d="M29.7248 831.288 L35.1993 831.288 Q33.8307 833.77 33.1623 836.285 Q32.4621 838.767 32.4621 841.314 Q32.4621 847.011 36.0905 850.162 Q39.6872 853.313 46.212 853.313 Q52.7369 853.313 56.3653 850.162 Q59.9619 847.011 59.9619 841.314 Q59.9619 838.767 59.2935 836.285 Q58.5933 833.77 57.2247 831.288 L62.6355 831.288 Q63.7814 833.738 64.3543 836.38 Q64.9272 838.99 64.9272 841.95 Q64.9272 850.003 59.8664 854.745 Q54.8057 859.488 46.212 859.488 Q37.491 859.488 32.4939 854.714 Q27.4968 849.907 27.4968 841.568 Q27.4968 838.863 28.0697 836.285 Q28.6108 833.707 29.7248 831.288 Z" fill="#000000" fill-rule="evenodd" fill-opacity="1" /><path clip-path="url(#clip070)" d="M29.7248 795.449 L35.1993 795.449 Q33.8307 797.931 33.1623 800.446 Q32.4621 802.928 32.4621 805.475 Q32.4621 811.172 36.0905 814.323 Q39.6872 817.474 46.212 817.474 Q52.7369 817.474 56.3653 814.323 Q59.9619 811.172 59.9619 805.475 Q59.9619 802.928 59.2935 800.446 Q58.5933 797.931 57.2247 795.449 L62.6355 795.449 Q63.7814 797.9 64.3543 800.541 Q64.9272 803.151 64.9272 806.111 Q64.9272 814.164 59.8664 818.906 Q54.8057 823.649 46.212 823.649 Q37.491 823.649 32.4939 818.875 Q27.4968 814.068 27.4968 805.729 Q27.4968 803.024 28.0697 800.446 Q28.6108 797.868 29.7248 795.449 Z" fill="#000000" fill-rule="evenodd" fill-opacity="1" /><path clip-path="url(#clip070)" d="M44.7161 754.772 L47.5806 754.772 L47.5806 781.699 Q53.6281 781.317 56.8109 778.07 Q59.9619 774.792 59.9619 768.967 Q59.9619 765.594 59.1344 762.443 Q58.3069 759.26 56.6518 756.141 L62.1899 756.141 Q63.5267 759.292 64.227 762.602 Q64.9272 765.912 64.9272 769.318 Q64.9272 777.848 59.9619 782.845 Q54.9967 787.81 46.5303 787.81 Q37.7774 787.81 32.6531 783.099 Q27.4968 778.357 27.4968 770.336 Q27.4968 763.143 32.1438 758.973 Q36.7589 754.772 44.7161 754.772 M42.9973 760.628 Q38.1912 760.692 35.3266 763.334 Q32.4621 765.944 32.4621 770.272 Q32.4621 775.174 35.2312 778.134 Q38.0002 781.062 43.0292 781.508 L42.9973 760.628 Z" fill="#000000" fill-rule="evenodd" fill-opacity="1" /><path clip-path="url(#clip070)" d="M29.4065 722.434 L34.9447 722.434 Q33.6716 724.917 33.035 727.59 Q32.3984 730.264 32.3984 733.129 Q32.3984 737.489 33.7352 739.685 Q35.072 741.85 37.7456 741.85 Q39.7826 741.85 40.9603 740.29 Q42.1061 738.73 43.1565 734.02 L43.6021 732.015 Q44.9389 725.776 47.3897 723.166 Q49.8086 720.524 54.1691 720.524 Q59.1344 720.524 62.0308 724.471 Q64.9272 728.386 64.9272 735.261 Q64.9272 738.126 64.3543 741.245 Q63.8132 744.332 62.6992 747.77 L56.6518 747.77 Q58.3387 744.523 59.198 741.372 Q60.0256 738.221 60.0256 735.134 Q60.0256 730.996 58.6251 728.768 Q57.1929 726.54 54.6147 726.54 Q52.2276 726.54 50.9545 728.163 Q49.6813 729.755 48.5037 735.197 L48.0262 737.234 Q46.8804 742.677 44.5251 745.096 Q42.138 747.515 38.0002 747.515 Q32.9713 747.515 30.2341 743.95 Q27.4968 740.385 27.4968 733.829 Q27.4968 730.582 27.9743 727.718 Q28.4517 724.853 29.4065 722.434 Z" fill="#000000" fill-rule="evenodd" fill-opacity="1" /><path clip-path="url(#clip070)" d="M29.4065 688.473 L34.9447 688.473 Q33.6716 690.956 33.035 693.629 Q32.3984 696.303 32.3984 699.167 Q32.3984 703.528 33.7352 705.724 Q35.072 707.888 37.7456 707.888 Q39.7826 707.888 40.9603 706.329 Q42.1061 704.769 43.1565 700.059 L43.6021 698.053 Q44.9389 691.815 47.3897 689.205 Q49.8086 686.563 54.1691 686.563 Q59.1344 686.563 62.0308 690.51 Q64.9272 694.425 64.9272 701.3 Q64.9272 704.165 64.3543 707.284 Q63.8132 710.371 62.6992 713.809 L56.6518 713.809 Q58.3387 710.562 59.198 707.411 Q60.0256 704.26 60.0256 701.173 Q60.0256 697.035 58.6251 694.807 Q57.1929 692.579 54.6147 692.579 Q52.2276 692.579 50.9545 694.202 Q49.6813 695.794 48.5037 701.236 L48.0262 703.273 Q46.8804 708.716 44.5251 711.135 Q42.138 713.554 38.0002 713.554 Q32.9713 713.554 30.2341 709.989 Q27.4968 706.424 27.4968 699.868 Q27.4968 696.621 27.9743 693.757 Q28.4517 690.892 29.4065 688.473 Z" fill="#000000" fill-rule="evenodd" fill-opacity="1" /><path clip-path="url(#clip070)" d="M41.7242 633.728 Q42.4244 631.659 44.7161 629.718 Q47.0077 627.744 51.0181 625.771 L64.0042 619.246 L64.0042 626.153 L51.8138 632.232 Q47.0395 634.587 45.48 636.815 Q43.9204 639.012 43.9204 642.831 L43.9204 649.833 L64.0042 649.833 L64.0042 656.263 L16.4842 656.263 L16.4842 641.749 Q16.4842 633.601 19.8898 629.59 Q23.2955 625.58 30.1704 625.58 Q34.6582 625.58 37.6183 627.681 Q40.5784 629.749 41.7242 633.728 M21.7677 649.833 L38.6368 649.833 L38.6368 641.749 Q38.6368 637.102 36.5043 634.747 Q34.34 632.359 30.1704 632.359 Q26.0009 632.359 23.9002 634.747 Q21.7677 637.102 21.7677 641.749 L21.7677 649.833 Z" fill="#000000" fill-rule="evenodd" fill-opacity="1" /><path clip-path="url(#clip070)" d="M46.0847 596.457 Q46.0847 603.555 47.7079 606.292 Q49.3312 609.029 53.2461 609.029 Q56.3653 609.029 58.2114 606.992 Q60.0256 604.923 60.0256 601.39 Q60.0256 596.52 56.5881 593.592 Q53.1188 590.632 47.3897 590.632 L46.0847 590.632 L46.0847 596.457 M43.6657 584.776 L64.0042 584.776 L64.0042 590.632 L58.5933 590.632 Q61.8398 592.637 63.3994 595.629 Q64.9272 598.621 64.9272 602.95 Q64.9272 608.424 61.8716 611.671 Q58.7843 614.886 53.6281 614.886 Q47.6125 614.886 44.5569 610.875 Q41.5014 606.833 41.5014 598.844 L41.5014 590.632 L40.9285 590.632 Q36.8862 590.632 34.6901 593.306 Q32.4621 595.948 32.4621 600.754 Q32.4621 603.809 33.1941 606.706 Q33.9262 609.602 35.3903 612.276 L29.9795 612.276 Q28.7381 609.061 28.1334 606.037 Q27.4968 603.013 27.4968 600.149 Q27.4968 592.415 31.5072 588.595 Q35.5176 584.776 43.6657 584.776 Z" fill="#000000" fill-rule="evenodd" fill-opacity="1" /><path clip-path="url(#clip070)" d="M18.2347 566.92 L28.3562 566.92 L28.3562 554.857 L32.9077 554.857 L32.9077 566.92 L52.2594 566.92 Q56.6199 566.92 57.8613 565.742 Q59.1026 564.533 59.1026 560.872 L59.1026 554.857 L64.0042 554.857 L64.0042 560.872 Q64.0042 567.652 61.4897 570.23 Q58.9434 572.808 52.2594 572.808 L32.9077 572.808 L32.9077 577.105 L28.3562 577.105 L28.3562 572.808 L18.2347 572.808 L18.2347 566.92 Z" fill="#000000" fill-rule="evenodd" fill-opacity="1" /><path clip-path="url(#clip070)" d="M44.7161 516.663 L47.5806 516.663 L47.5806 543.59 Q53.6281 543.208 56.8109 539.961 Q59.9619 536.683 59.9619 530.858 Q59.9619 527.484 59.1344 524.333 Q58.3069 521.15 56.6518 518.031 L62.1899 518.031 Q63.5267 521.182 64.227 524.492 Q64.9272 527.803 64.9272 531.208 Q64.9272 539.738 59.9619 544.735 Q54.9967 549.701 46.5303 549.701 Q37.7774 549.701 32.6531 544.99 Q27.4968 540.248 27.4968 532.227 Q27.4968 525.034 32.1438 520.864 Q36.7589 516.663 44.7161 516.663 M42.9973 522.519 Q38.1912 522.583 35.3266 525.225 Q32.4621 527.834 32.4621 532.163 Q32.4621 537.065 35.2312 540.025 Q38.0002 542.953 43.0292 543.399 L42.9973 522.519 Z" fill="#000000" fill-rule="evenodd" fill-opacity="1" /><polyline clip-path="url(#clip072)" style="stroke:#009af9; stroke-linecap:round; stroke-linejoin:round; stroke-width:4; stroke-opacity:1; fill:none" points="
  338.375,193.043 351.501,193.043 364.626,729.07 377.752,514.66 390.877,514.66 404.003,514.66 417.129,621.865 430.254,836.276 443.38,943.481 456.505,514.66 
  469.631,514.66 482.756,514.66 495.882,514.66 509.008,407.454 522.133,1157.89 535.259,514.66 548.384,407.454 561.51,407.454 574.635,193.043 587.761,193.043 
  600.887,514.66 614.012,85.838 627.138,300.249 640.263,407.454 653.389,300.249 666.514,407.454 679.64,300.249 692.765,407.454 705.891,407.454 719.017,514.66 
  732.142,729.07 745.268,514.66 758.393,300.249 771.519,514.66 784.644,943.481 797.77,836.276 810.896,621.865 824.021,943.481 837.147,836.276 850.272,836.276 
  863.398,943.481 876.523,621.865 889.649,621.865 902.775,943.481 915.9,1050.69 929.026,300.249 942.151,514.66 955.277,300.249 968.402,407.454 981.528,836.276 
  994.654,85.838 1007.78,621.865 1020.9,407.454 1034.03,621.865 1047.16,621.865 1060.28,621.865 1073.41,621.865 1086.53,85.838 1099.66,300.249 1112.78,514.66 
  1125.91,621.865 1139.03,407.454 1152.16,729.07 1165.29,943.481 1178.41,300.249 1191.54,300.249 1204.66,836.276 1217.79,621.865 1230.91,300.249 1244.04,407.454 
  1257.16,300.249 1270.29,300.249 1283.42,300.249 1296.54,729.07 1309.67,621.865 1322.79,193.043 1335.92,300.249 1349.04,514.66 1362.17,407.454 1375.29,193.043 
  1388.42,407.454 1401.55,300.249 1414.67,729.07 1427.8,514.66 1440.92,514.66 1454.05,514.66 1467.17,621.865 1480.3,407.454 1493.43,621.865 1506.55,300.249 
  1519.68,407.454 1532.8,1372.3 1545.93,407.454 1559.05,729.07 1572.18,621.865 1585.3,621.865 1598.43,193.043 1611.56,85.838 1624.68,300.249 1637.81,300.249 
  1650.93,193.043 1664.06,407.454 1677.18,407.454 1690.31,193.043 1703.43,514.66 1716.56,621.865 1729.69,1265.1 1742.81,514.66 1755.94,943.481 1769.06,621.865 
  1782.19,514.66 1795.31,407.454 1808.44,514.66 1821.56,836.276 1834.69,836.276 1847.82,407.454 1860.94,729.07 1874.07,407.454 1887.19,300.249 1900.32,407.454 
  1913.44,621.865 1926.57,729.07 1939.69,621.865 1952.82,836.276 1965.95,407.454 1979.07,729.07 1992.2,514.66 2005.32,514.66 2018.45,729.07 2031.57,729.07 
  2044.7,514.66 2057.82,514.66 2070.95,836.276 2084.08,300.249 2097.2,621.865 2110.33,407.454 2123.45,621.865 2136.58,193.043 2149.7,407.454 2162.83,407.454 
  2175.95,193.043 2189.08,85.838 2202.21,300.249 2215.33,85.838 2228.46,514.66 2241.58,300.249 2254.71,193.043 2267.83,193.043 2280.96,193.043 2294.08,193.043 
  
  "/>
</svg>
