<?xml version="1.0" encoding="utf-8"?>
<svg xmlns="http://www.w3.org/2000/svg" xmlns:xlink="http://www.w3.org/1999/xlink" width="600" height="400" viewBox="0 0 2400 1600">
<defs>
  <clipPath id="clip840">
    <rect x="0" y="0" width="2400" height="1600"/>
  </clipPath>
</defs>
<path clip-path="url(#clip840)" d="
M0 1600 L2400 1600 L2400 0 L0 0  Z
  " fill="#ffffff" fill-rule="evenodd" fill-opacity="1"/>
<defs>
  <clipPath id="clip841">
    <rect x="480" y="0" width="1681" height="1600"/>
  </clipPath>
</defs>
<path clip-path="url(#clip840)" d="
M232.389 1423.18 L2352.76 1423.18 L2352.76 47.2441 L232.389 47.2441  Z
  " fill="#ffffff" fill-rule="evenodd" fill-opacity="1"/>
<defs>
  <clipPath id="clip842">
    <rect x="232" y="47" width="2121" height="1377"/>
  </clipPath>
</defs>
<polyline clip-path="url(#clip842)" style="stroke:#000000; stroke-linecap:round; stroke-linejoin:round; stroke-width:2; stroke-opacity:0.1; fill:none" points="
  278.975,1423.18 278.975,47.2441 
  "/>
<polyline clip-path="url(#clip842)" style="stroke:#000000; stroke-linecap:round; stroke-linejoin:round; stroke-width:2; stroke-opacity:0.1; fill:none" points="
  614.603,1423.18 614.603,47.2441 
  "/>
<polyline clip-path="url(#clip842)" style="stroke:#000000; stroke-linecap:round; stroke-linejoin:round; stroke-width:2; stroke-opacity:0.1; fill:none" points="
  950.232,1423.18 950.232,47.2441 
  "/>
<polyline clip-path="url(#clip842)" style="stroke:#000000; stroke-linecap:round; stroke-linejoin:round; stroke-width:2; stroke-opacity:0.1; fill:none" points="
  1285.86,1423.18 1285.86,47.2441 
  "/>
<polyline clip-path="url(#clip842)" style="stroke:#000000; stroke-linecap:round; stroke-linejoin:round; stroke-width:2; stroke-opacity:0.1; fill:none" points="
  1621.49,1423.18 1621.49,47.2441 
  "/>
<polyline clip-path="url(#clip842)" style="stroke:#000000; stroke-linecap:round; stroke-linejoin:round; stroke-width:2; stroke-opacity:0.1; fill:none" points="
  1957.12,1423.18 1957.12,47.2441 
  "/>
<polyline clip-path="url(#clip842)" style="stroke:#000000; stroke-linecap:round; stroke-linejoin:round; stroke-width:2; stroke-opacity:0.1; fill:none" points="
  2292.75,1423.18 2292.75,47.2441 
  "/>
<polyline clip-path="url(#clip840)" style="stroke:#000000; stroke-linecap:round; stroke-linejoin:round; stroke-width:4; stroke-opacity:1; fill:none" points="
  232.389,1423.18 2352.76,1423.18 
  "/>
<polyline clip-path="url(#clip840)" style="stroke:#000000; stroke-linecap:round; stroke-linejoin:round; stroke-width:4; stroke-opacity:1; fill:none" points="
  278.975,1423.18 278.975,1404.28 
  "/>
<polyline clip-path="url(#clip840)" style="stroke:#000000; stroke-linecap:round; stroke-linejoin:round; stroke-width:4; stroke-opacity:1; fill:none" points="
  614.603,1423.18 614.603,1404.28 
  "/>
<polyline clip-path="url(#clip840)" style="stroke:#000000; stroke-linecap:round; stroke-linejoin:round; stroke-width:4; stroke-opacity:1; fill:none" points="
  950.232,1423.18 950.232,1404.28 
  "/>
<polyline clip-path="url(#clip840)" style="stroke:#000000; stroke-linecap:round; stroke-linejoin:round; stroke-width:4; stroke-opacity:1; fill:none" points="
  1285.86,1423.18 1285.86,1404.28 
  "/>
<polyline clip-path="url(#clip840)" style="stroke:#000000; stroke-linecap:round; stroke-linejoin:round; stroke-width:4; stroke-opacity:1; fill:none" points="
  1621.49,1423.18 1621.49,1404.28 
  "/>
<polyline clip-path="url(#clip840)" style="stroke:#000000; stroke-linecap:round; stroke-linejoin:round; stroke-width:4; stroke-opacity:1; fill:none" points="
  1957.12,1423.18 1957.12,1404.28 
  "/>
<polyline clip-path="url(#clip840)" style="stroke:#000000; stroke-linecap:round; stroke-linejoin:round; stroke-width:4; stroke-opacity:1; fill:none" points="
  2292.75,1423.18 2292.75,1404.28 
  "/>
<path clip-path="url(#clip840)" d="M186.776 1454.1 Q183.165 1454.1 181.336 1457.66 Q179.531 1461.2 179.531 1468.33 Q179.531 1475.44 181.336 1479.01 Q183.165 1482.55 186.776 1482.55 Q190.41 1482.55 192.216 1479.01 Q194.044 1475.44 194.044 1468.33 Q194.044 1461.2 192.216 1457.66 Q190.41 1454.1 186.776 1454.1 M186.776 1450.39 Q192.586 1450.39 195.642 1455 Q198.72 1459.58 198.72 1468.33 Q198.72 1477.06 195.642 1481.67 Q192.586 1486.25 186.776 1486.25 Q180.966 1486.25 177.887 1481.67 Q174.832 1477.06 174.832 1468.33 Q174.832 1459.58 177.887 1455 Q180.966 1450.39 186.776 1450.39 Z" fill="#000000" fill-rule="evenodd" fill-opacity="1" /><path clip-path="url(#clip840)" d="M206.938 1479.7 L211.822 1479.7 L211.822 1485.58 L206.938 1485.58 L206.938 1479.7 Z" fill="#000000" fill-rule="evenodd" fill-opacity="1" /><path clip-path="url(#clip840)" d="M232.007 1454.1 Q228.396 1454.1 226.567 1457.66 Q224.762 1461.2 224.762 1468.33 Q224.762 1475.44 226.567 1479.01 Q228.396 1482.55 232.007 1482.55 Q235.641 1482.55 237.447 1479.01 Q239.276 1475.44 239.276 1468.33 Q239.276 1461.2 237.447 1457.66 Q235.641 1454.1 232.007 1454.1 M232.007 1450.39 Q237.817 1450.39 240.873 1455 Q243.952 1459.58 243.952 1468.33 Q243.952 1477.06 240.873 1481.67 Q237.817 1486.25 232.007 1486.25 Q226.197 1486.25 223.118 1481.67 Q220.063 1477.06 220.063 1468.33 Q220.063 1459.58 223.118 1455 Q226.197 1450.39 232.007 1450.39 Z" fill="#000000" fill-rule="evenodd" fill-opacity="1" /><path clip-path="url(#clip840)" d="M262.169 1454.1 Q258.558 1454.1 256.729 1457.66 Q254.924 1461.2 254.924 1468.33 Q254.924 1475.44 256.729 1479.01 Q258.558 1482.55 262.169 1482.55 Q265.803 1482.55 267.609 1479.01 Q269.438 1475.44 269.438 1468.33 Q269.438 1461.2 267.609 1457.66 Q265.803 1454.1 262.169 1454.1 M262.169 1450.39 Q267.979 1450.39 271.035 1455 Q274.113 1459.58 274.113 1468.33 Q274.113 1477.06 271.035 1481.67 Q267.979 1486.25 262.169 1486.25 Q256.359 1486.25 253.28 1481.67 Q250.225 1477.06 250.225 1468.33 Q250.225 1459.58 253.28 1455 Q256.359 1450.39 262.169 1450.39 Z" fill="#000000" fill-rule="evenodd" fill-opacity="1" /><path clip-path="url(#clip840)" d="M303.28 1459.65 L293.905 1472.27 L303.766 1485.58 L298.743 1485.58 L291.197 1475.39 L283.65 1485.58 L278.627 1485.58 L288.697 1472.02 L279.484 1459.65 L284.507 1459.65 L291.382 1468.89 L298.257 1459.65 L303.28 1459.65 Z" fill="#000000" fill-rule="evenodd" fill-opacity="1" /><path clip-path="url(#clip840)" d="M311.197 1481.64 L318.835 1481.64 L318.835 1455.28 L310.525 1456.95 L310.525 1452.69 L318.789 1451.02 L323.465 1451.02 L323.465 1481.64 L331.104 1481.64 L331.104 1485.58 L311.197 1485.58 L311.197 1481.64 Z" fill="#000000" fill-rule="evenodd" fill-opacity="1" /><path clip-path="url(#clip840)" d="M350.548 1454.1 Q346.937 1454.1 345.108 1457.66 Q343.303 1461.2 343.303 1468.33 Q343.303 1475.44 345.108 1479.01 Q346.937 1482.55 350.548 1482.55 Q354.183 1482.55 355.988 1479.01 Q357.817 1475.44 357.817 1468.33 Q357.817 1461.2 355.988 1457.66 Q354.183 1454.1 350.548 1454.1 M350.548 1450.39 Q356.358 1450.39 359.414 1455 Q362.493 1459.58 362.493 1468.33 Q362.493 1477.06 359.414 1481.67 Q356.358 1486.25 350.548 1486.25 Q344.738 1486.25 341.659 1481.67 Q338.604 1477.06 338.604 1468.33 Q338.604 1459.58 341.659 1455 Q344.738 1450.39 350.548 1450.39 Z" fill="#000000" fill-rule="evenodd" fill-opacity="1" /><path clip-path="url(#clip840)" d="M375.71 1459.35 Q373.673 1459.35 372.493 1460.56 Q371.312 1461.78 371.312 1463.89 Q371.312 1465.97 372.493 1467.18 Q373.673 1468.4 375.71 1468.4 Q377.724 1468.4 378.905 1467.18 Q380.085 1465.97 380.085 1463.89 Q380.085 1461.78 378.905 1460.56 Q377.724 1459.35 375.71 1459.35 M381.682 1451.16 L381.682 1453.54 Q380.548 1453.08 379.391 1452.85 Q378.233 1452.59 377.099 1452.59 Q374.136 1452.59 372.562 1454.33 Q370.988 1456.09 370.756 1459.63 Q371.636 1458.5 372.956 1457.89 Q374.298 1457.29 375.872 1457.29 Q379.229 1457.29 381.173 1459.05 Q383.118 1460.83 383.118 1463.89 Q383.118 1466.83 381.081 1468.66 Q379.067 1470.46 375.71 1470.46 Q371.844 1470.46 369.807 1467.89 Q367.77 1465.33 367.77 1460.42 Q367.77 1455.83 370.27 1453.13 Q372.77 1450.39 376.983 1450.39 Q378.118 1450.39 379.275 1450.58 Q380.432 1450.79 381.682 1451.16 Z" fill="#000000" fill-rule="evenodd" fill-opacity="1" /><path clip-path="url(#clip840)" d="M522.404 1454.1 Q518.793 1454.1 516.965 1457.66 Q515.159 1461.2 515.159 1468.33 Q515.159 1475.44 516.965 1479.01 Q518.793 1482.55 522.404 1482.55 Q526.039 1482.55 527.844 1479.01 Q529.673 1475.44 529.673 1468.33 Q529.673 1461.2 527.844 1457.66 Q526.039 1454.1 522.404 1454.1 M522.404 1450.39 Q528.215 1450.39 531.27 1455 Q534.349 1459.58 534.349 1468.33 Q534.349 1477.06 531.27 1481.67 Q528.215 1486.25 522.404 1486.25 Q516.594 1486.25 513.516 1481.67 Q510.46 1477.06 510.46 1468.33 Q510.46 1459.58 513.516 1455 Q516.594 1450.39 522.404 1450.39 Z" fill="#000000" fill-rule="evenodd" fill-opacity="1" /><path clip-path="url(#clip840)" d="M542.566 1479.7 L547.451 1479.7 L547.451 1485.58 L542.566 1485.58 L542.566 1479.7 Z" fill="#000000" fill-rule="evenodd" fill-opacity="1" /><path clip-path="url(#clip840)" d="M561.664 1481.64 L577.983 1481.64 L577.983 1485.58 L556.039 1485.58 L556.039 1481.64 Q558.701 1478.89 563.284 1474.26 Q567.89 1469.61 569.071 1468.27 Q571.316 1465.74 572.196 1464.01 Q573.099 1462.25 573.099 1460.56 Q573.099 1457.8 571.154 1456.07 Q569.233 1454.33 566.131 1454.33 Q563.932 1454.33 561.478 1455.09 Q559.048 1455.86 556.27 1457.41 L556.27 1452.69 Q559.094 1451.55 561.548 1450.97 Q564.001 1450.39 566.039 1450.39 Q571.409 1450.39 574.603 1453.08 Q577.798 1455.77 577.798 1460.26 Q577.798 1462.39 576.988 1464.31 Q576.201 1466.2 574.094 1468.8 Q573.515 1469.47 570.413 1472.69 Q567.312 1475.88 561.664 1481.64 Z" fill="#000000" fill-rule="evenodd" fill-opacity="1" /><path clip-path="url(#clip840)" d="M587.844 1451.02 L606.2 1451.02 L606.2 1454.96 L592.126 1454.96 L592.126 1463.43 Q593.145 1463.08 594.163 1462.92 Q595.182 1462.73 596.2 1462.73 Q601.987 1462.73 605.367 1465.9 Q608.747 1469.08 608.747 1474.49 Q608.747 1480.07 605.274 1483.17 Q601.802 1486.25 595.483 1486.25 Q593.307 1486.25 591.038 1485.88 Q588.793 1485.51 586.386 1484.77 L586.386 1480.07 Q588.469 1481.2 590.691 1481.76 Q592.913 1482.32 595.39 1482.32 Q599.395 1482.32 601.733 1480.21 Q604.071 1478.1 604.071 1474.49 Q604.071 1470.88 601.733 1468.77 Q599.395 1466.67 595.39 1466.67 Q593.515 1466.67 591.64 1467.08 Q589.788 1467.5 587.844 1468.38 L587.844 1451.02 Z" fill="#000000" fill-rule="evenodd" fill-opacity="1" /><path clip-path="url(#clip840)" d="M638.908 1459.65 L629.534 1472.27 L639.395 1485.58 L634.371 1485.58 L626.825 1475.39 L619.279 1485.58 L614.256 1485.58 L624.325 1472.02 L615.112 1459.65 L620.135 1459.65 L627.01 1468.89 L633.885 1459.65 L638.908 1459.65 Z" fill="#000000" fill-rule="evenodd" fill-opacity="1" /><path clip-path="url(#clip840)" d="M646.825 1481.64 L654.464 1481.64 L654.464 1455.28 L646.154 1456.95 L646.154 1452.69 L654.418 1451.02 L659.094 1451.02 L659.094 1481.64 L666.732 1481.64 L666.732 1485.58 L646.825 1485.58 L646.825 1481.64 Z" fill="#000000" fill-rule="evenodd" fill-opacity="1" /><path clip-path="url(#clip840)" d="M686.177 1454.1 Q682.566 1454.1 680.737 1457.66 Q678.931 1461.2 678.931 1468.33 Q678.931 1475.44 680.737 1479.01 Q682.566 1482.55 686.177 1482.55 Q689.811 1482.55 691.617 1479.01 Q693.445 1475.44 693.445 1468.33 Q693.445 1461.2 691.617 1457.66 Q689.811 1454.1 686.177 1454.1 M686.177 1450.39 Q691.987 1450.39 695.042 1455 Q698.121 1459.58 698.121 1468.33 Q698.121 1477.06 695.042 1481.67 Q691.987 1486.25 686.177 1486.25 Q680.367 1486.25 677.288 1481.67 Q674.232 1477.06 674.232 1468.33 Q674.232 1459.58 677.288 1455 Q680.367 1450.39 686.177 1450.39 Z" fill="#000000" fill-rule="evenodd" fill-opacity="1" /><path clip-path="url(#clip840)" d="M711.339 1459.35 Q709.302 1459.35 708.121 1460.56 Q706.941 1461.78 706.941 1463.89 Q706.941 1465.97 708.121 1467.18 Q709.302 1468.4 711.339 1468.4 Q713.353 1468.4 714.533 1467.18 Q715.714 1465.97 715.714 1463.89 Q715.714 1461.78 714.533 1460.56 Q713.353 1459.35 711.339 1459.35 M717.311 1451.16 L717.311 1453.54 Q716.177 1453.08 715.019 1452.85 Q713.862 1452.59 712.728 1452.59 Q709.765 1452.59 708.191 1454.33 Q706.616 1456.09 706.385 1459.63 Q707.265 1458.5 708.584 1457.89 Q709.927 1457.29 711.501 1457.29 Q714.857 1457.29 716.802 1459.05 Q718.746 1460.83 718.746 1463.89 Q718.746 1466.83 716.709 1468.66 Q714.695 1470.46 711.339 1470.46 Q707.473 1470.46 705.436 1467.89 Q703.399 1465.33 703.399 1460.42 Q703.399 1455.83 705.899 1453.13 Q708.399 1450.39 712.612 1450.39 Q713.746 1450.39 714.903 1450.58 Q716.061 1450.79 717.311 1451.16 Z" fill="#000000" fill-rule="evenodd" fill-opacity="1" /><path clip-path="url(#clip840)" d="M858.033 1454.1 Q854.422 1454.1 852.593 1457.66 Q850.788 1461.2 850.788 1468.33 Q850.788 1475.44 852.593 1479.01 Q854.422 1482.55 858.033 1482.55 Q861.667 1482.55 863.473 1479.01 Q865.301 1475.44 865.301 1468.33 Q865.301 1461.2 863.473 1457.66 Q861.667 1454.1 858.033 1454.1 M858.033 1450.39 Q863.843 1450.39 866.899 1455 Q869.977 1459.58 869.977 1468.33 Q869.977 1477.06 866.899 1481.67 Q863.843 1486.25 858.033 1486.25 Q852.223 1486.25 849.144 1481.67 Q846.089 1477.06 846.089 1468.33 Q846.089 1459.58 849.144 1455 Q852.223 1450.39 858.033 1450.39 Z" fill="#000000" fill-rule="evenodd" fill-opacity="1" /><path clip-path="url(#clip840)" d="M878.195 1479.7 L883.079 1479.7 L883.079 1485.58 L878.195 1485.58 L878.195 1479.7 Z" fill="#000000" fill-rule="evenodd" fill-opacity="1" /><path clip-path="url(#clip840)" d="M893.311 1451.02 L911.667 1451.02 L911.667 1454.96 L897.593 1454.96 L897.593 1463.43 Q898.611 1463.08 899.63 1462.92 Q900.648 1462.73 901.667 1462.73 Q907.454 1462.73 910.834 1465.9 Q914.213 1469.08 914.213 1474.49 Q914.213 1480.07 910.741 1483.17 Q907.269 1486.25 900.949 1486.25 Q898.774 1486.25 896.505 1485.88 Q894.26 1485.51 891.852 1484.77 L891.852 1480.07 Q893.936 1481.2 896.158 1481.76 Q898.38 1482.32 900.857 1482.32 Q904.861 1482.32 907.199 1480.21 Q909.537 1478.1 909.537 1474.49 Q909.537 1470.88 907.199 1468.77 Q904.861 1466.67 900.857 1466.67 Q898.982 1466.67 897.107 1467.08 Q895.255 1467.5 893.311 1468.38 L893.311 1451.02 Z" fill="#000000" fill-rule="evenodd" fill-opacity="1" /><path clip-path="url(#clip840)" d="M933.426 1454.1 Q929.815 1454.1 927.986 1457.66 Q926.181 1461.2 926.181 1468.33 Q926.181 1475.44 927.986 1479.01 Q929.815 1482.55 933.426 1482.55 Q937.06 1482.55 938.866 1479.01 Q940.695 1475.44 940.695 1468.33 Q940.695 1461.2 938.866 1457.66 Q937.06 1454.1 933.426 1454.1 M933.426 1450.39 Q939.236 1450.39 942.292 1455 Q945.37 1459.58 945.37 1468.33 Q945.37 1477.06 942.292 1481.67 Q939.236 1486.25 933.426 1486.25 Q927.616 1486.25 924.537 1481.67 Q921.482 1477.06 921.482 1468.33 Q921.482 1459.58 924.537 1455 Q927.616 1450.39 933.426 1450.39 Z" fill="#000000" fill-rule="evenodd" fill-opacity="1" /><path clip-path="url(#clip840)" d="M974.537 1459.65 L965.162 1472.27 L975.023 1485.58 L970 1485.58 L962.454 1475.39 L954.907 1485.58 L949.884 1485.58 L959.954 1472.02 L950.741 1459.65 L955.764 1459.65 L962.639 1468.89 L969.514 1459.65 L974.537 1459.65 Z" fill="#000000" fill-rule="evenodd" fill-opacity="1" /><path clip-path="url(#clip840)" d="M982.454 1481.64 L990.092 1481.64 L990.092 1455.28 L981.782 1456.95 L981.782 1452.69 L990.046 1451.02 L994.722 1451.02 L994.722 1481.64 L1002.36 1481.64 L1002.36 1485.58 L982.454 1485.58 L982.454 1481.64 Z" fill="#000000" fill-rule="evenodd" fill-opacity="1" /><path clip-path="url(#clip840)" d="M1021.81 1454.1 Q1018.19 1454.1 1016.37 1457.66 Q1014.56 1461.2 1014.56 1468.33 Q1014.56 1475.44 1016.37 1479.01 Q1018.19 1482.55 1021.81 1482.55 Q1025.44 1482.55 1027.25 1479.01 Q1029.07 1475.44 1029.07 1468.33 Q1029.07 1461.2 1027.25 1457.66 Q1025.44 1454.1 1021.81 1454.1 M1021.81 1450.39 Q1027.62 1450.39 1030.67 1455 Q1033.75 1459.58 1033.75 1468.33 Q1033.75 1477.06 1030.67 1481.67 Q1027.62 1486.25 1021.81 1486.25 Q1016 1486.25 1012.92 1481.67 Q1009.86 1477.06 1009.86 1468.33 Q1009.86 1459.58 1012.92 1455 Q1016 1450.39 1021.81 1450.39 Z" fill="#000000" fill-rule="evenodd" fill-opacity="1" /><path clip-path="url(#clip840)" d="M1046.97 1459.35 Q1044.93 1459.35 1043.75 1460.56 Q1042.57 1461.78 1042.57 1463.89 Q1042.57 1465.97 1043.75 1467.18 Q1044.93 1468.4 1046.97 1468.4 Q1048.98 1468.4 1050.16 1467.18 Q1051.34 1465.97 1051.34 1463.89 Q1051.34 1461.78 1050.16 1460.56 Q1048.98 1459.35 1046.97 1459.35 M1052.94 1451.16 L1052.94 1453.54 Q1051.81 1453.08 1050.65 1452.85 Q1049.49 1452.59 1048.36 1452.59 Q1045.39 1452.59 1043.82 1454.33 Q1042.24 1456.09 1042.01 1459.63 Q1042.89 1458.5 1044.21 1457.89 Q1045.56 1457.29 1047.13 1457.29 Q1050.49 1457.29 1052.43 1459.05 Q1054.37 1460.83 1054.37 1463.89 Q1054.37 1466.83 1052.34 1468.66 Q1050.32 1470.46 1046.97 1470.46 Q1043.1 1470.46 1041.06 1467.89 Q1039.03 1465.33 1039.03 1460.42 Q1039.03 1455.83 1041.53 1453.13 Q1044.03 1450.39 1048.24 1450.39 Q1049.37 1450.39 1050.53 1450.58 Q1051.69 1450.79 1052.94 1451.16 Z" fill="#000000" fill-rule="evenodd" fill-opacity="1" /><path clip-path="url(#clip840)" d="M1193.66 1454.1 Q1190.05 1454.1 1188.22 1457.66 Q1186.42 1461.2 1186.42 1468.33 Q1186.42 1475.44 1188.22 1479.01 Q1190.05 1482.55 1193.66 1482.55 Q1197.3 1482.55 1199.1 1479.01 Q1200.93 1475.44 1200.93 1468.33 Q1200.93 1461.2 1199.1 1457.66 Q1197.3 1454.1 1193.66 1454.1 M1193.66 1450.39 Q1199.47 1450.39 1202.53 1455 Q1205.61 1459.58 1205.61 1468.33 Q1205.61 1477.06 1202.53 1481.67 Q1199.47 1486.25 1193.66 1486.25 Q1187.85 1486.25 1184.77 1481.67 Q1181.72 1477.06 1181.72 1468.33 Q1181.72 1459.58 1184.77 1455 Q1187.85 1450.39 1193.66 1450.39 Z" fill="#000000" fill-rule="evenodd" fill-opacity="1" /><path clip-path="url(#clip840)" d="M1213.82 1479.7 L1218.71 1479.7 L1218.71 1485.58 L1213.82 1485.58 L1213.82 1479.7 Z" fill="#000000" fill-rule="evenodd" fill-opacity="1" /><path clip-path="url(#clip840)" d="M1227.71 1451.02 L1249.93 1451.02 L1249.93 1453.01 L1237.39 1485.58 L1232.5 1485.58 L1244.31 1454.96 L1227.71 1454.96 L1227.71 1451.02 Z" fill="#000000" fill-rule="evenodd" fill-opacity="1" /><path clip-path="url(#clip840)" d="M1259.1 1451.02 L1277.46 1451.02 L1277.46 1454.96 L1263.38 1454.96 L1263.38 1463.43 Q1264.4 1463.08 1265.42 1462.92 Q1266.44 1462.73 1267.46 1462.73 Q1273.24 1462.73 1276.62 1465.9 Q1280 1469.08 1280 1474.49 Q1280 1480.07 1276.53 1483.17 Q1273.06 1486.25 1266.74 1486.25 Q1264.56 1486.25 1262.3 1485.88 Q1260.05 1485.51 1257.64 1484.77 L1257.64 1480.07 Q1259.73 1481.2 1261.95 1481.76 Q1264.17 1482.32 1266.65 1482.32 Q1270.65 1482.32 1272.99 1480.21 Q1275.33 1478.1 1275.33 1474.49 Q1275.33 1470.88 1272.99 1468.77 Q1270.65 1466.67 1266.65 1466.67 Q1264.77 1466.67 1262.9 1467.08 Q1261.05 1467.5 1259.1 1468.38 L1259.1 1451.02 Z" fill="#000000" fill-rule="evenodd" fill-opacity="1" /><path clip-path="url(#clip840)" d="M1310.17 1459.65 L1300.79 1472.27 L1310.65 1485.58 L1305.63 1485.58 L1298.08 1475.39 L1290.54 1485.58 L1285.51 1485.58 L1295.58 1472.02 L1286.37 1459.65 L1291.39 1459.65 L1298.27 1468.89 L1305.14 1459.65 L1310.17 1459.65 Z" fill="#000000" fill-rule="evenodd" fill-opacity="1" /><path clip-path="url(#clip840)" d="M1318.08 1481.64 L1325.72 1481.64 L1325.72 1455.28 L1317.41 1456.95 L1317.41 1452.69 L1325.67 1451.02 L1330.35 1451.02 L1330.35 1481.64 L1337.99 1481.64 L1337.99 1485.58 L1318.08 1485.58 L1318.08 1481.64 Z" fill="#000000" fill-rule="evenodd" fill-opacity="1" /><path clip-path="url(#clip840)" d="M1357.43 1454.1 Q1353.82 1454.1 1351.99 1457.66 Q1350.19 1461.2 1350.19 1468.33 Q1350.19 1475.44 1351.99 1479.01 Q1353.82 1482.55 1357.43 1482.55 Q1361.07 1482.55 1362.87 1479.01 Q1364.7 1475.44 1364.7 1468.33 Q1364.7 1461.2 1362.87 1457.66 Q1361.07 1454.1 1357.43 1454.1 M1357.43 1450.39 Q1363.24 1450.39 1366.3 1455 Q1369.38 1459.58 1369.38 1468.33 Q1369.38 1477.06 1366.3 1481.67 Q1363.24 1486.25 1357.43 1486.25 Q1351.62 1486.25 1348.54 1481.67 Q1345.49 1477.06 1345.49 1468.33 Q1345.49 1459.58 1348.54 1455 Q1351.62 1450.39 1357.43 1450.39 Z" fill="#000000" fill-rule="evenodd" fill-opacity="1" /><path clip-path="url(#clip840)" d="M1382.6 1459.35 Q1380.56 1459.35 1379.38 1460.56 Q1378.2 1461.78 1378.2 1463.89 Q1378.2 1465.97 1379.38 1467.18 Q1380.56 1468.4 1382.6 1468.4 Q1384.61 1468.4 1385.79 1467.18 Q1386.97 1465.97 1386.97 1463.89 Q1386.97 1461.78 1385.79 1460.56 Q1384.61 1459.35 1382.6 1459.35 M1388.57 1451.16 L1388.57 1453.54 Q1387.43 1453.08 1386.28 1452.85 Q1385.12 1452.59 1383.98 1452.59 Q1381.02 1452.59 1379.45 1454.33 Q1377.87 1456.09 1377.64 1459.63 Q1378.52 1458.5 1379.84 1457.89 Q1381.18 1457.29 1382.76 1457.29 Q1386.11 1457.29 1388.06 1459.05 Q1390 1460.83 1390 1463.89 Q1390 1466.83 1387.97 1468.66 Q1385.95 1470.46 1382.6 1470.46 Q1378.73 1470.46 1376.69 1467.89 Q1374.66 1465.33 1374.66 1460.42 Q1374.66 1455.83 1377.16 1453.13 Q1379.66 1450.39 1383.87 1450.39 Q1385 1450.39 1386.16 1450.58 Q1387.32 1450.79 1388.57 1451.16 Z" fill="#000000" fill-rule="evenodd" fill-opacity="1" /><path clip-path="url(#clip840)" d="M1519.06 1481.64 L1526.7 1481.64 L1526.7 1455.28 L1518.39 1456.95 L1518.39 1452.69 L1526.65 1451.02 L1531.33 1451.02 L1531.33 1481.64 L1538.97 1481.64 L1538.97 1485.58 L1519.06 1485.58 L1519.06 1481.64 Z" fill="#000000" fill-rule="evenodd" fill-opacity="1" /><path clip-path="url(#clip840)" d="M1548.41 1479.7 L1553.29 1479.7 L1553.29 1485.58 L1548.41 1485.58 L1548.41 1479.7 Z" fill="#000000" fill-rule="evenodd" fill-opacity="1" /><path clip-path="url(#clip840)" d="M1573.48 1454.1 Q1569.87 1454.1 1568.04 1457.66 Q1566.23 1461.2 1566.23 1468.33 Q1566.23 1475.44 1568.04 1479.01 Q1569.87 1482.55 1573.48 1482.55 Q1577.11 1482.55 1578.92 1479.01 Q1580.75 1475.44 1580.75 1468.33 Q1580.75 1461.2 1578.92 1457.66 Q1577.11 1454.1 1573.48 1454.1 M1573.48 1450.39 Q1579.29 1450.39 1582.35 1455 Q1585.42 1459.58 1585.42 1468.33 Q1585.42 1477.06 1582.35 1481.67 Q1579.29 1486.25 1573.48 1486.25 Q1567.67 1486.25 1564.59 1481.67 Q1561.54 1477.06 1561.54 1468.33 Q1561.54 1459.58 1564.59 1455 Q1567.67 1450.39 1573.48 1450.39 Z" fill="#000000" fill-rule="evenodd" fill-opacity="1" /><path clip-path="url(#clip840)" d="M1603.64 1454.1 Q1600.03 1454.1 1598.2 1457.66 Q1596.4 1461.2 1596.4 1468.33 Q1596.4 1475.44 1598.2 1479.01 Q1600.03 1482.55 1603.64 1482.55 Q1607.28 1482.55 1609.08 1479.01 Q1610.91 1475.44 1610.91 1468.33 Q1610.91 1461.2 1609.08 1457.66 Q1607.28 1454.1 1603.64 1454.1 M1603.64 1450.39 Q1609.45 1450.39 1612.51 1455 Q1615.59 1459.58 1615.59 1468.33 Q1615.59 1477.06 1612.51 1481.67 Q1609.45 1486.25 1603.64 1486.25 Q1597.83 1486.25 1594.75 1481.67 Q1591.7 1477.06 1591.7 1468.33 Q1591.7 1459.58 1594.75 1455 Q1597.83 1450.39 1603.64 1450.39 Z" fill="#000000" fill-rule="evenodd" fill-opacity="1" /><path clip-path="url(#clip840)" d="M1644.75 1459.65 L1635.38 1472.27 L1645.24 1485.58 L1640.22 1485.58 L1632.67 1475.39 L1625.12 1485.58 L1620.1 1485.58 L1630.17 1472.02 L1620.96 1459.65 L1625.98 1459.65 L1632.85 1468.89 L1639.73 1459.65 L1644.75 1459.65 Z" fill="#000000" fill-rule="evenodd" fill-opacity="1" /><path clip-path="url(#clip840)" d="M1652.67 1481.64 L1660.31 1481.64 L1660.31 1455.28 L1652 1456.95 L1652 1452.69 L1660.26 1451.02 L1664.94 1451.02 L1664.94 1481.64 L1672.58 1481.64 L1672.58 1485.58 L1652.67 1485.58 L1652.67 1481.64 Z" fill="#000000" fill-rule="evenodd" fill-opacity="1" /><path clip-path="url(#clip840)" d="M1692.02 1454.1 Q1688.41 1454.1 1686.58 1457.66 Q1684.78 1461.2 1684.78 1468.33 Q1684.78 1475.44 1686.58 1479.01 Q1688.41 1482.55 1692.02 1482.55 Q1695.65 1482.55 1697.46 1479.01 Q1699.29 1475.44 1699.29 1468.33 Q1699.29 1461.2 1697.46 1457.66 Q1695.65 1454.1 1692.02 1454.1 M1692.02 1450.39 Q1697.83 1450.39 1700.89 1455 Q1703.96 1459.58 1703.96 1468.33 Q1703.96 1477.06 1700.89 1481.67 Q1697.83 1486.25 1692.02 1486.25 Q1686.21 1486.25 1683.13 1481.67 Q1680.08 1477.06 1680.08 1468.33 Q1680.08 1459.58 1683.13 1455 Q1686.21 1450.39 1692.02 1450.39 Z" fill="#000000" fill-rule="evenodd" fill-opacity="1" /><path clip-path="url(#clip840)" d="M1717.18 1459.35 Q1715.15 1459.35 1713.96 1460.56 Q1712.78 1461.78 1712.78 1463.89 Q1712.78 1465.97 1713.96 1467.18 Q1715.15 1468.4 1717.18 1468.4 Q1719.2 1468.4 1720.38 1467.18 Q1721.56 1465.97 1721.56 1463.89 Q1721.56 1461.78 1720.38 1460.56 Q1719.2 1459.35 1717.18 1459.35 M1723.15 1451.16 L1723.15 1453.54 Q1722.02 1453.08 1720.86 1452.85 Q1719.71 1452.59 1718.57 1452.59 Q1715.61 1452.59 1714.03 1454.33 Q1712.46 1456.09 1712.23 1459.63 Q1713.11 1458.5 1714.43 1457.89 Q1715.77 1457.29 1717.34 1457.29 Q1720.7 1457.29 1722.65 1459.05 Q1724.59 1460.83 1724.59 1463.89 Q1724.59 1466.83 1722.55 1468.66 Q1720.54 1470.46 1717.18 1470.46 Q1713.32 1470.46 1711.28 1467.89 Q1709.24 1465.33 1709.24 1460.42 Q1709.24 1455.83 1711.74 1453.13 Q1714.24 1450.39 1718.46 1450.39 Q1719.59 1450.39 1720.75 1450.58 Q1721.9 1450.79 1723.15 1451.16 Z" fill="#000000" fill-rule="evenodd" fill-opacity="1" /><path clip-path="url(#clip840)" d="M1854.69 1481.64 L1862.33 1481.64 L1862.33 1455.28 L1854.02 1456.95 L1854.02 1452.69 L1862.28 1451.02 L1866.96 1451.02 L1866.96 1481.64 L1874.59 1481.64 L1874.59 1485.58 L1854.69 1485.58 L1854.69 1481.64 Z" fill="#000000" fill-rule="evenodd" fill-opacity="1" /><path clip-path="url(#clip840)" d="M1884.04 1479.7 L1888.92 1479.7 L1888.92 1485.58 L1884.04 1485.58 L1884.04 1479.7 Z" fill="#000000" fill-rule="evenodd" fill-opacity="1" /><path clip-path="url(#clip840)" d="M1903.14 1481.64 L1919.46 1481.64 L1919.46 1485.58 L1897.51 1485.58 L1897.51 1481.64 Q1900.17 1478.89 1904.76 1474.26 Q1909.36 1469.61 1910.54 1468.27 Q1912.79 1465.74 1913.67 1464.01 Q1914.57 1462.25 1914.57 1460.56 Q1914.57 1457.8 1912.63 1456.07 Q1910.71 1454.33 1907.6 1454.33 Q1905.4 1454.33 1902.95 1455.09 Q1900.52 1455.86 1897.74 1457.41 L1897.74 1452.69 Q1900.57 1451.55 1903.02 1450.97 Q1905.47 1450.39 1907.51 1450.39 Q1912.88 1450.39 1916.08 1453.08 Q1919.27 1455.77 1919.27 1460.26 Q1919.27 1462.39 1918.46 1464.31 Q1917.67 1466.2 1915.57 1468.8 Q1914.99 1469.47 1911.89 1472.69 Q1908.78 1475.88 1903.14 1481.64 Z" fill="#000000" fill-rule="evenodd" fill-opacity="1" /><path clip-path="url(#clip840)" d="M1929.32 1451.02 L1947.67 1451.02 L1947.67 1454.96 L1933.6 1454.96 L1933.6 1463.43 Q1934.62 1463.08 1935.64 1462.92 Q1936.65 1462.73 1937.67 1462.73 Q1943.46 1462.73 1946.84 1465.9 Q1950.22 1469.08 1950.22 1474.49 Q1950.22 1480.07 1946.75 1483.17 Q1943.27 1486.25 1936.96 1486.25 Q1934.78 1486.25 1932.51 1485.88 Q1930.27 1485.51 1927.86 1484.77 L1927.86 1480.07 Q1929.94 1481.2 1932.16 1481.76 Q1934.39 1482.32 1936.86 1482.32 Q1940.87 1482.32 1943.21 1480.21 Q1945.54 1478.1 1945.54 1474.49 Q1945.54 1470.88 1943.21 1468.77 Q1940.87 1466.67 1936.86 1466.67 Q1934.99 1466.67 1933.11 1467.08 Q1931.26 1467.5 1929.32 1468.38 L1929.32 1451.02 Z" fill="#000000" fill-rule="evenodd" fill-opacity="1" /><path clip-path="url(#clip840)" d="M1980.38 1459.65 L1971.01 1472.27 L1980.87 1485.58 L1975.84 1485.58 L1968.3 1475.39 L1960.75 1485.58 L1955.73 1485.58 L1965.8 1472.02 L1956.58 1459.65 L1961.61 1459.65 L1968.48 1468.89 L1975.36 1459.65 L1980.38 1459.65 Z" fill="#000000" fill-rule="evenodd" fill-opacity="1" /><path clip-path="url(#clip840)" d="M1988.3 1481.64 L1995.94 1481.64 L1995.94 1455.28 L1987.63 1456.95 L1987.63 1452.69 L1995.89 1451.02 L2000.57 1451.02 L2000.57 1481.64 L2008.2 1481.64 L2008.2 1485.58 L1988.3 1485.58 L1988.3 1481.64 Z" fill="#000000" fill-rule="evenodd" fill-opacity="1" /><path clip-path="url(#clip840)" d="M2027.65 1454.1 Q2024.04 1454.1 2022.21 1457.66 Q2020.4 1461.2 2020.4 1468.33 Q2020.4 1475.44 2022.21 1479.01 Q2024.04 1482.55 2027.65 1482.55 Q2031.28 1482.55 2033.09 1479.01 Q2034.92 1475.44 2034.92 1468.33 Q2034.92 1461.2 2033.09 1457.66 Q2031.28 1454.1 2027.65 1454.1 M2027.65 1450.39 Q2033.46 1450.39 2036.51 1455 Q2039.59 1459.58 2039.59 1468.33 Q2039.59 1477.06 2036.51 1481.67 Q2033.46 1486.25 2027.65 1486.25 Q2021.84 1486.25 2018.76 1481.67 Q2015.7 1477.06 2015.7 1468.33 Q2015.7 1459.58 2018.76 1455 Q2021.84 1450.39 2027.65 1450.39 Z" fill="#000000" fill-rule="evenodd" fill-opacity="1" /><path clip-path="url(#clip840)" d="M2052.81 1459.35 Q2050.77 1459.35 2049.59 1460.56 Q2048.41 1461.78 2048.41 1463.89 Q2048.41 1465.97 2049.59 1467.18 Q2050.77 1468.4 2052.81 1468.4 Q2054.82 1468.4 2056.01 1467.18 Q2057.19 1465.97 2057.19 1463.89 Q2057.19 1461.78 2056.01 1460.56 Q2054.82 1459.35 2052.81 1459.35 M2058.78 1451.16 L2058.78 1453.54 Q2057.65 1453.08 2056.49 1452.85 Q2055.33 1452.59 2054.2 1452.59 Q2051.24 1452.59 2049.66 1454.33 Q2048.09 1456.09 2047.86 1459.63 Q2048.74 1458.5 2050.06 1457.89 Q2051.4 1457.29 2052.97 1457.29 Q2056.33 1457.29 2058.27 1459.05 Q2060.22 1460.83 2060.22 1463.89 Q2060.22 1466.83 2058.18 1468.66 Q2056.17 1470.46 2052.81 1470.46 Q2048.95 1470.46 2046.91 1467.89 Q2044.87 1465.33 2044.87 1460.42 Q2044.87 1455.83 2047.37 1453.13 Q2049.87 1450.39 2054.08 1450.39 Q2055.22 1450.39 2056.38 1450.58 Q2057.53 1450.79 2058.78 1451.16 Z" fill="#000000" fill-rule="evenodd" fill-opacity="1" /><path clip-path="url(#clip840)" d="M2190.32 1481.64 L2197.95 1481.64 L2197.95 1455.28 L2189.64 1456.95 L2189.64 1452.69 L2197.91 1451.02 L2202.58 1451.02 L2202.58 1481.64 L2210.22 1481.64 L2210.22 1485.58 L2190.32 1485.58 L2190.32 1481.64 Z" fill="#000000" fill-rule="evenodd" fill-opacity="1" /><path clip-path="url(#clip840)" d="M2219.67 1479.7 L2224.55 1479.7 L2224.55 1485.58 L2219.67 1485.58 L2219.67 1479.7 Z" fill="#000000" fill-rule="evenodd" fill-opacity="1" /><path clip-path="url(#clip840)" d="M2234.78 1451.02 L2253.14 1451.02 L2253.14 1454.96 L2239.07 1454.96 L2239.07 1463.43 Q2240.08 1463.08 2241.1 1462.92 Q2242.12 1462.73 2243.14 1462.73 Q2248.93 1462.73 2252.31 1465.9 Q2255.69 1469.08 2255.69 1474.49 Q2255.69 1480.07 2252.21 1483.17 Q2248.74 1486.25 2242.42 1486.25 Q2240.25 1486.25 2237.98 1485.88 Q2235.73 1485.51 2233.32 1484.77 L2233.32 1480.07 Q2235.41 1481.2 2237.63 1481.76 Q2239.85 1482.32 2242.33 1482.32 Q2246.33 1482.32 2248.67 1480.21 Q2251.01 1478.1 2251.01 1474.49 Q2251.01 1470.88 2248.67 1468.77 Q2246.33 1466.67 2242.33 1466.67 Q2240.45 1466.67 2238.58 1467.08 Q2236.73 1467.5 2234.78 1468.38 L2234.78 1451.02 Z" fill="#000000" fill-rule="evenodd" fill-opacity="1" /><path clip-path="url(#clip840)" d="M2274.9 1454.1 Q2271.29 1454.1 2269.46 1457.66 Q2267.65 1461.2 2267.65 1468.33 Q2267.65 1475.44 2269.46 1479.01 Q2271.29 1482.55 2274.9 1482.55 Q2278.53 1482.55 2280.34 1479.01 Q2282.17 1475.44 2282.17 1468.33 Q2282.17 1461.2 2280.34 1457.66 Q2278.53 1454.1 2274.9 1454.1 M2274.9 1450.39 Q2280.71 1450.39 2283.76 1455 Q2286.84 1459.58 2286.84 1468.33 Q2286.84 1477.06 2283.76 1481.67 Q2280.71 1486.25 2274.9 1486.25 Q2269.09 1486.25 2266.01 1481.67 Q2262.95 1477.06 2262.95 1468.33 Q2262.95 1459.58 2266.01 1455 Q2269.09 1450.39 2274.9 1450.39 Z" fill="#000000" fill-rule="evenodd" fill-opacity="1" /><path clip-path="url(#clip840)" d="M2316.01 1459.65 L2306.63 1472.27 L2316.5 1485.58 L2311.47 1485.58 L2303.93 1475.39 L2296.38 1485.58 L2291.36 1485.58 L2301.43 1472.02 L2292.21 1459.65 L2297.24 1459.65 L2304.11 1468.89 L2310.99 1459.65 L2316.01 1459.65 Z" fill="#000000" fill-rule="evenodd" fill-opacity="1" /><path clip-path="url(#clip840)" d="M2323.93 1481.64 L2331.56 1481.64 L2331.56 1455.28 L2323.25 1456.95 L2323.25 1452.69 L2331.52 1451.02 L2336.19 1451.02 L2336.19 1481.64 L2343.83 1481.64 L2343.83 1485.58 L2323.93 1485.58 L2323.93 1481.64 Z" fill="#000000" fill-rule="evenodd" fill-opacity="1" /><path clip-path="url(#clip840)" d="M2363.28 1454.1 Q2359.67 1454.1 2357.84 1457.66 Q2356.03 1461.2 2356.03 1468.33 Q2356.03 1475.44 2357.84 1479.01 Q2359.67 1482.55 2363.28 1482.55 Q2366.91 1482.55 2368.72 1479.01 Q2370.55 1475.44 2370.55 1468.33 Q2370.55 1461.2 2368.72 1457.66 Q2366.91 1454.1 2363.28 1454.1 M2363.28 1450.39 Q2369.09 1450.39 2372.14 1455 Q2375.22 1459.58 2375.22 1468.33 Q2375.22 1477.06 2372.14 1481.67 Q2369.09 1486.25 2363.28 1486.25 Q2357.47 1486.25 2354.39 1481.67 Q2351.33 1477.06 2351.33 1468.33 Q2351.33 1459.58 2354.39 1455 Q2357.47 1450.39 2363.28 1450.39 Z" fill="#000000" fill-rule="evenodd" fill-opacity="1" /><path clip-path="url(#clip840)" d="M2388.44 1459.35 Q2386.4 1459.35 2385.22 1460.56 Q2384.04 1461.78 2384.04 1463.89 Q2384.04 1465.97 2385.22 1467.18 Q2386.4 1468.4 2388.44 1468.4 Q2390.45 1468.4 2391.63 1467.18 Q2392.81 1465.97 2392.81 1463.89 Q2392.81 1461.78 2391.63 1460.56 Q2390.45 1459.35 2388.44 1459.35 M2394.41 1451.16 L2394.41 1453.54 Q2393.28 1453.08 2392.12 1452.85 Q2390.96 1452.59 2389.83 1452.59 Q2386.87 1452.59 2385.29 1454.33 Q2383.72 1456.09 2383.49 1459.63 Q2384.37 1458.5 2385.68 1457.89 Q2387.03 1457.29 2388.6 1457.29 Q2391.96 1457.29 2393.9 1459.05 Q2395.85 1460.83 2395.85 1463.89 Q2395.85 1466.83 2393.81 1468.66 Q2391.8 1470.46 2388.44 1470.46 Q2384.57 1470.46 2382.54 1467.89 Q2380.5 1465.33 2380.5 1460.42 Q2380.5 1455.83 2383 1453.13 Q2385.5 1450.39 2389.71 1450.39 Q2390.85 1450.39 2392 1450.58 Q2393.16 1450.79 2394.41 1451.16 Z" fill="#000000" fill-rule="evenodd" fill-opacity="1" /><path clip-path="url(#clip840)" d="M1142.14 1520.52 L1148.56 1520.52 L1148.56 1568.04 L1142.14 1568.04 L1142.14 1520.52 Z" fill="#000000" fill-rule="evenodd" fill-opacity="1" /><path clip-path="url(#clip840)" d="M1166.9 1522.27 L1166.9 1532.4 L1178.96 1532.4 L1178.96 1536.95 L1166.9 1536.95 L1166.9 1556.3 Q1166.9 1560.66 1168.08 1561.9 Q1169.28 1563.14 1172.95 1563.14 L1178.96 1563.14 L1178.96 1568.04 L1172.95 1568.04 Q1166.17 1568.04 1163.59 1565.53 Q1161.01 1562.98 1161.01 1556.3 L1161.01 1536.95 L1156.71 1536.95 L1156.71 1532.4 L1161.01 1532.4 L1161.01 1522.27 L1166.9 1522.27 Z" fill="#000000" fill-rule="evenodd" fill-opacity="1" /><path clip-path="url(#clip840)" d="M1217.15 1548.76 L1217.15 1551.62 L1190.23 1551.62 Q1190.61 1557.67 1193.86 1560.85 Q1197.13 1564 1202.96 1564 Q1206.33 1564 1209.48 1563.17 Q1212.67 1562.35 1215.79 1560.69 L1215.79 1566.23 Q1212.64 1567.57 1209.33 1568.27 Q1206.01 1568.97 1202.61 1568.97 Q1194.08 1568.97 1189.08 1564 Q1184.12 1559.04 1184.12 1550.57 Q1184.12 1541.82 1188.83 1536.69 Q1193.57 1531.54 1201.59 1531.54 Q1208.78 1531.54 1212.95 1536.18 Q1217.15 1540.8 1217.15 1548.76 M1211.3 1547.04 Q1211.23 1542.23 1208.59 1539.37 Q1205.98 1536.5 1201.65 1536.5 Q1196.75 1536.5 1193.79 1539.27 Q1190.86 1542.04 1190.42 1547.07 L1211.3 1547.04 Z" fill="#000000" fill-rule="evenodd" fill-opacity="1" /><path clip-path="url(#clip840)" d="M1247.42 1537.87 Q1246.44 1537.3 1245.26 1537.04 Q1244.11 1536.76 1242.71 1536.76 Q1237.75 1536.76 1235.07 1540 Q1232.43 1543.22 1232.43 1549.27 L1232.43 1568.04 L1226.54 1568.04 L1226.54 1532.4 L1232.43 1532.4 L1232.43 1537.93 Q1234.28 1534.69 1237.24 1533.13 Q1240.2 1531.54 1244.43 1531.54 Q1245.04 1531.54 1245.77 1531.63 Q1246.5 1531.7 1247.39 1531.85 L1247.42 1537.87 Z" fill="#000000" fill-rule="evenodd" fill-opacity="1" /><path clip-path="url(#clip840)" d="M1269.77 1550.12 Q1262.67 1550.12 1259.93 1551.75 Q1257.2 1553.37 1257.2 1557.29 Q1257.2 1560.4 1259.23 1562.25 Q1261.3 1564.07 1264.83 1564.07 Q1269.7 1564.07 1272.63 1560.63 Q1275.59 1557.16 1275.59 1551.43 L1275.59 1550.12 L1269.77 1550.12 M1281.45 1547.71 L1281.45 1568.04 L1275.59 1568.04 L1275.59 1562.63 Q1273.59 1565.88 1270.6 1567.44 Q1267.6 1568.97 1263.27 1568.97 Q1257.8 1568.97 1254.55 1565.91 Q1251.34 1562.82 1251.34 1557.67 Q1251.34 1551.65 1255.35 1548.6 Q1259.39 1545.54 1267.38 1545.54 L1275.59 1545.54 L1275.59 1544.97 Q1275.59 1540.93 1272.92 1538.73 Q1270.28 1536.5 1265.47 1536.5 Q1262.42 1536.5 1259.52 1537.23 Q1256.62 1537.97 1253.95 1539.43 L1253.95 1534.02 Q1257.16 1532.78 1260.19 1532.17 Q1263.21 1531.54 1266.08 1531.54 Q1273.81 1531.54 1277.63 1535.55 Q1281.45 1539.56 1281.45 1547.71 Z" fill="#000000" fill-rule="evenodd" fill-opacity="1" /><path clip-path="url(#clip840)" d="M1299.3 1522.27 L1299.3 1532.4 L1311.37 1532.4 L1311.37 1536.95 L1299.3 1536.95 L1299.3 1556.3 Q1299.3 1560.66 1300.48 1561.9 Q1301.69 1563.14 1305.35 1563.14 L1311.37 1563.14 L1311.37 1568.04 L1305.35 1568.04 Q1298.57 1568.04 1295.99 1565.53 Q1293.42 1562.98 1293.42 1556.3 L1293.42 1536.95 L1289.12 1536.95 L1289.12 1532.4 L1293.42 1532.4 L1293.42 1522.27 L1299.3 1522.27 Z" fill="#000000" fill-rule="evenodd" fill-opacity="1" /><path clip-path="url(#clip840)" d="M1319.07 1532.4 L1324.93 1532.4 L1324.93 1568.04 L1319.07 1568.04 L1319.07 1532.4 M1319.07 1518.52 L1324.93 1518.52 L1324.93 1525.93 L1319.07 1525.93 L1319.07 1518.52 Z" fill="#000000" fill-rule="evenodd" fill-opacity="1" /><path clip-path="url(#clip840)" d="M1350.99 1536.5 Q1346.28 1536.5 1343.55 1540.19 Q1340.81 1543.85 1340.81 1550.25 Q1340.81 1556.65 1343.51 1560.34 Q1346.25 1564 1350.99 1564 Q1355.67 1564 1358.41 1560.31 Q1361.15 1556.62 1361.15 1550.25 Q1361.15 1543.92 1358.41 1540.23 Q1355.67 1536.5 1350.99 1536.5 M1350.99 1531.54 Q1358.63 1531.54 1362.99 1536.5 Q1367.35 1541.47 1367.35 1550.25 Q1367.35 1559 1362.99 1564 Q1358.63 1568.97 1350.99 1568.97 Q1343.32 1568.97 1338.96 1564 Q1334.63 1559 1334.63 1550.25 Q1334.63 1541.47 1338.96 1536.5 Q1343.32 1531.54 1350.99 1531.54 Z" fill="#000000" fill-rule="evenodd" fill-opacity="1" /><path clip-path="url(#clip840)" d="M1406.69 1546.53 L1406.69 1568.04 L1400.84 1568.04 L1400.84 1546.72 Q1400.84 1541.66 1398.86 1539.14 Q1396.89 1536.63 1392.94 1536.63 Q1388.2 1536.63 1385.46 1539.65 Q1382.73 1542.68 1382.73 1547.9 L1382.73 1568.04 L1376.84 1568.04 L1376.84 1532.4 L1382.73 1532.4 L1382.73 1537.93 Q1384.83 1534.72 1387.66 1533.13 Q1390.52 1531.54 1394.25 1531.54 Q1400.39 1531.54 1403.54 1535.36 Q1406.69 1539.14 1406.69 1546.53 Z" fill="#000000" fill-rule="evenodd" fill-opacity="1" /><path clip-path="url(#clip840)" d="M1441.1 1533.45 L1441.1 1538.98 Q1438.62 1537.71 1435.94 1537.07 Q1433.27 1536.44 1430.41 1536.44 Q1426.05 1536.44 1423.85 1537.77 Q1421.69 1539.11 1421.69 1541.79 Q1421.69 1543.82 1423.24 1545 Q1424.8 1546.15 1429.51 1547.2 L1431.52 1547.64 Q1437.76 1548.98 1440.37 1551.43 Q1443.01 1553.85 1443.01 1558.21 Q1443.01 1563.17 1439.06 1566.07 Q1435.15 1568.97 1428.27 1568.97 Q1425.41 1568.97 1422.29 1568.39 Q1419.2 1567.85 1415.76 1566.74 L1415.76 1560.69 Q1419.01 1562.38 1422.16 1563.24 Q1425.31 1564.07 1428.4 1564.07 Q1432.54 1564.07 1434.77 1562.66 Q1436.99 1561.23 1436.99 1558.65 Q1436.99 1556.27 1435.37 1554.99 Q1433.78 1553.72 1428.34 1552.54 L1426.3 1552.07 Q1420.86 1550.92 1418.44 1548.56 Q1416.02 1546.18 1416.02 1542.04 Q1416.02 1537.01 1419.58 1534.27 Q1423.15 1531.54 1429.71 1531.54 Q1432.95 1531.54 1435.82 1532.01 Q1438.68 1532.49 1441.1 1533.45 Z" fill="#000000" fill-rule="evenodd" fill-opacity="1" /><polyline clip-path="url(#clip842)" style="stroke:#000000; stroke-linecap:round; stroke-linejoin:round; stroke-width:2; stroke-opacity:0.1; fill:none" points="
  232.389,1246.47 2352.76,1246.47 
  "/>
<polyline clip-path="url(#clip842)" style="stroke:#000000; stroke-linecap:round; stroke-linejoin:round; stroke-width:2; stroke-opacity:0.1; fill:none" points="
  232.389,868.427 2352.76,868.427 
  "/>
<polyline clip-path="url(#clip842)" style="stroke:#000000; stroke-linecap:round; stroke-linejoin:round; stroke-width:2; stroke-opacity:0.1; fill:none" points="
  232.389,490.384 2352.76,490.384 
  "/>
<polyline clip-path="url(#clip842)" style="stroke:#000000; stroke-linecap:round; stroke-linejoin:round; stroke-width:2; stroke-opacity:0.1; fill:none" points="
  232.389,112.34 2352.76,112.34 
  "/>
<polyline clip-path="url(#clip840)" style="stroke:#000000; stroke-linecap:round; stroke-linejoin:round; stroke-width:4; stroke-opacity:1; fill:none" points="
  232.389,1423.18 232.389,47.2441 
  "/>
<polyline clip-path="url(#clip840)" style="stroke:#000000; stroke-linecap:round; stroke-linejoin:round; stroke-width:4; stroke-opacity:1; fill:none" points="
  232.389,1246.47 251.287,1246.47 
  "/>
<polyline clip-path="url(#clip840)" style="stroke:#000000; stroke-linecap:round; stroke-linejoin:round; stroke-width:4; stroke-opacity:1; fill:none" points="
  232.389,868.427 251.287,868.427 
  "/>
<polyline clip-path="url(#clip840)" style="stroke:#000000; stroke-linecap:round; stroke-linejoin:round; stroke-width:4; stroke-opacity:1; fill:none" points="
  232.389,490.384 251.287,490.384 
  "/>
<polyline clip-path="url(#clip840)" style="stroke:#000000; stroke-linecap:round; stroke-linejoin:round; stroke-width:4; stroke-opacity:1; fill:none" points="
  232.389,112.34 251.287,112.34 
  "/>
<path clip-path="url(#clip840)" d="M184.445 1232.27 Q180.834 1232.27 179.005 1235.83 Q177.2 1239.38 177.2 1246.51 Q177.2 1253.61 179.005 1257.18 Q180.834 1260.72 184.445 1260.72 Q188.079 1260.72 189.885 1257.18 Q191.713 1253.61 191.713 1246.51 Q191.713 1239.38 189.885 1235.83 Q188.079 1232.27 184.445 1232.27 M184.445 1228.57 Q190.255 1228.57 193.311 1233.17 Q196.389 1237.76 196.389 1246.51 Q196.389 1255.23 193.311 1259.84 Q190.255 1264.42 184.445 1264.42 Q178.635 1264.42 175.556 1259.84 Q172.501 1255.23 172.501 1246.51 Q172.501 1237.76 175.556 1233.17 Q178.635 1228.57 184.445 1228.57 Z" fill="#000000" fill-rule="evenodd" fill-opacity="1" /><path clip-path="url(#clip840)" d="M144.329 851.147 L162.686 851.147 L162.686 855.082 L148.612 855.082 L148.612 863.555 Q149.63 863.207 150.649 863.045 Q151.667 862.86 152.686 862.86 Q158.473 862.86 161.852 866.031 Q165.232 869.203 165.232 874.619 Q165.232 880.198 161.76 883.3 Q158.288 886.378 151.968 886.378 Q149.792 886.378 147.524 886.008 Q145.279 885.638 142.871 884.897 L142.871 880.198 Q144.954 881.332 147.177 881.888 Q149.399 882.443 151.876 882.443 Q155.88 882.443 158.218 880.337 Q160.556 878.23 160.556 874.619 Q160.556 871.008 158.218 868.902 Q155.88 866.795 151.876 866.795 Q150.001 866.795 148.126 867.212 Q146.274 867.629 144.329 868.508 L144.329 851.147 Z" fill="#000000" fill-rule="evenodd" fill-opacity="1" /><path clip-path="url(#clip840)" d="M184.445 854.226 Q180.834 854.226 179.005 857.791 Q177.2 861.332 177.2 868.462 Q177.2 875.568 179.005 879.133 Q180.834 882.675 184.445 882.675 Q188.079 882.675 189.885 879.133 Q191.713 875.568 191.713 868.462 Q191.713 861.332 189.885 857.791 Q188.079 854.226 184.445 854.226 M184.445 850.522 Q190.255 850.522 193.311 855.129 Q196.389 859.712 196.389 868.462 Q196.389 877.189 193.311 881.795 Q190.255 886.378 184.445 886.378 Q178.635 886.378 175.556 881.795 Q172.501 877.189 172.501 868.462 Q172.501 859.712 175.556 855.129 Q178.635 850.522 184.445 850.522 Z" fill="#000000" fill-rule="evenodd" fill-opacity="1" /><path clip-path="url(#clip840)" d="M114.931 503.729 L122.57 503.729 L122.57 477.363 L114.26 479.03 L114.26 474.77 L122.524 473.104 L127.2 473.104 L127.2 503.729 L134.839 503.729 L134.839 507.664 L114.931 507.664 L114.931 503.729 Z" fill="#000000" fill-rule="evenodd" fill-opacity="1" /><path clip-path="url(#clip840)" d="M154.283 476.182 Q150.672 476.182 148.843 479.747 Q147.038 483.289 147.038 490.418 Q147.038 497.525 148.843 501.09 Q150.672 504.631 154.283 504.631 Q157.917 504.631 159.723 501.09 Q161.552 497.525 161.552 490.418 Q161.552 483.289 159.723 479.747 Q157.917 476.182 154.283 476.182 M154.283 472.479 Q160.093 472.479 163.149 477.085 Q166.227 481.668 166.227 490.418 Q166.227 499.145 163.149 503.752 Q160.093 508.335 154.283 508.335 Q148.473 508.335 145.394 503.752 Q142.339 499.145 142.339 490.418 Q142.339 481.668 145.394 477.085 Q148.473 472.479 154.283 472.479 Z" fill="#000000" fill-rule="evenodd" fill-opacity="1" /><path clip-path="url(#clip840)" d="M184.445 476.182 Q180.834 476.182 179.005 479.747 Q177.2 483.289 177.2 490.418 Q177.2 497.525 179.005 501.09 Q180.834 504.631 184.445 504.631 Q188.079 504.631 189.885 501.09 Q191.713 497.525 191.713 490.418 Q191.713 483.289 189.885 479.747 Q188.079 476.182 184.445 476.182 M184.445 472.479 Q190.255 472.479 193.311 477.085 Q196.389 481.668 196.389 490.418 Q196.389 499.145 193.311 503.752 Q190.255 508.335 184.445 508.335 Q178.635 508.335 175.556 503.752 Q172.501 499.145 172.501 490.418 Q172.501 481.668 175.556 477.085 Q178.635 472.479 184.445 472.479 Z" fill="#000000" fill-rule="evenodd" fill-opacity="1" /><path clip-path="url(#clip840)" d="M114.931 125.685 L122.57 125.685 L122.57 99.3195 L114.26 100.986 L114.26 96.7269 L122.524 95.0603 L127.2 95.0603 L127.2 125.685 L134.839 125.685 L134.839 129.62 L114.931 129.62 L114.931 125.685 Z" fill="#000000" fill-rule="evenodd" fill-opacity="1" /><path clip-path="url(#clip840)" d="M144.329 95.0603 L162.686 95.0603 L162.686 98.9954 L148.612 98.9954 L148.612 107.468 Q149.63 107.12 150.649 106.958 Q151.667 106.773 152.686 106.773 Q158.473 106.773 161.852 109.944 Q165.232 113.116 165.232 118.532 Q165.232 124.111 161.76 127.213 Q158.288 130.292 151.968 130.292 Q149.792 130.292 147.524 129.921 Q145.279 129.551 142.871 128.81 L142.871 124.111 Q144.954 125.245 147.177 125.801 Q149.399 126.356 151.876 126.356 Q155.88 126.356 158.218 124.25 Q160.556 122.143 160.556 118.532 Q160.556 114.921 158.218 112.815 Q155.88 110.708 151.876 110.708 Q150.001 110.708 148.126 111.125 Q146.274 111.542 144.329 112.421 L144.329 95.0603 Z" fill="#000000" fill-rule="evenodd" fill-opacity="1" /><path clip-path="url(#clip840)" d="M184.445 98.1389 Q180.834 98.1389 179.005 101.704 Q177.2 105.245 177.2 112.375 Q177.2 119.481 179.005 123.046 Q180.834 126.588 184.445 126.588 Q188.079 126.588 189.885 123.046 Q191.713 119.481 191.713 112.375 Q191.713 105.245 189.885 101.704 Q188.079 98.1389 184.445 98.1389 M184.445 94.4353 Q190.255 94.4353 193.311 99.0417 Q196.389 103.625 196.389 112.375 Q196.389 121.102 193.311 125.708 Q190.255 130.292 184.445 130.292 Q178.635 130.292 175.556 125.708 Q172.501 121.102 172.501 112.375 Q172.501 103.625 175.556 99.0417 Q178.635 94.4353 184.445 94.4353 Z" fill="#000000" fill-rule="evenodd" fill-opacity="1" /><path clip-path="url(#clip840)" d="M41.7242 827.897 Q42.4244 825.828 44.7161 823.886 Q47.0077 821.913 51.0181 819.94 L64.0042 813.415 L64.0042 820.321 L51.8138 826.401 Q47.0395 828.756 45.48 830.984 Q43.9204 833.18 43.9204 837 L43.9204 844.002 L64.0042 844.002 L64.0042 850.431 L16.4842 850.431 L16.4842 835.917 Q16.4842 827.769 19.8898 823.759 Q23.2955 819.749 30.1704 819.749 Q34.6582 819.749 37.6183 821.849 Q40.5784 823.918 41.7242 827.897 M21.7677 844.002 L38.6368 844.002 L38.6368 835.917 Q38.6368 831.27 36.5043 828.915 Q34.34 826.528 30.1704 826.528 Q26.0009 826.528 23.9002 828.915 Q21.7677 831.27 21.7677 835.917 L21.7677 844.002 Z" fill="#000000" fill-rule="evenodd" fill-opacity="1" /><path clip-path="url(#clip840)" d="M44.7161 777.83 L47.5806 777.83 L47.5806 804.757 Q53.6281 804.375 56.8109 801.129 Q59.9619 797.851 59.9619 792.026 Q59.9619 788.652 59.1344 785.501 Q58.3069 782.318 56.6518 779.199 L62.1899 779.199 Q63.5267 782.35 64.227 785.66 Q64.9272 788.97 64.9272 792.376 Q64.9272 800.906 59.9619 805.903 Q54.9967 810.868 46.5303 810.868 Q37.7774 810.868 32.6531 806.158 Q27.4968 801.415 27.4968 793.395 Q27.4968 786.201 32.1438 782.032 Q36.7589 777.83 44.7161 777.83 M42.9973 783.687 Q38.1912 783.75 35.3266 786.392 Q32.4621 789.002 32.4621 793.331 Q32.4621 798.232 35.2312 801.193 Q38.0002 804.121 43.0292 804.566 L42.9973 783.687 Z" fill="#000000" fill-rule="evenodd" fill-opacity="1" /><path clip-path="url(#clip840)" d="M28.3562 771.624 L28.3562 765.767 L56.1743 758.447 L28.3562 751.158 L28.3562 744.251 L56.1743 736.931 L28.3562 729.642 L28.3562 723.786 L64.0042 733.111 L64.0042 740.018 L34.7856 747.689 L64.0042 755.391 L64.0042 762.298 L28.3562 771.624 Z" fill="#000000" fill-rule="evenodd" fill-opacity="1" /><path clip-path="url(#clip840)" d="M46.0847 698.705 Q46.0847 705.802 47.7079 708.54 Q49.3312 711.277 53.2461 711.277 Q56.3653 711.277 58.2114 709.24 Q60.0256 707.171 60.0256 703.638 Q60.0256 698.768 56.5881 695.84 Q53.1188 692.88 47.3897 692.88 L46.0847 692.88 L46.0847 698.705 M43.6657 687.024 L64.0042 687.024 L64.0042 692.88 L58.5933 692.88 Q61.8398 694.885 63.3994 697.877 Q64.9272 700.869 64.9272 705.198 Q64.9272 710.672 61.8716 713.919 Q58.7843 717.133 53.6281 717.133 Q47.6125 717.133 44.5569 713.123 Q41.5014 709.081 41.5014 701.092 L41.5014 692.88 L40.9285 692.88 Q36.8862 692.88 34.6901 695.554 Q32.4621 698.195 32.4621 703.001 Q32.4621 706.057 33.1941 708.953 Q33.9262 711.85 35.3903 714.523 L29.9795 714.523 Q28.7381 711.309 28.1334 708.285 Q27.4968 705.261 27.4968 702.397 Q27.4968 694.662 31.5072 690.843 Q35.5176 687.024 43.6657 687.024 Z" fill="#000000" fill-rule="evenodd" fill-opacity="1" /><path clip-path="url(#clip840)" d="M33.8307 654.304 Q33.2578 655.291 33.0032 656.468 Q32.7167 657.614 32.7167 659.014 Q32.7167 663.98 35.9632 666.653 Q39.1779 669.295 45.2253 669.295 L64.0042 669.295 L64.0042 675.183 L28.3562 675.183 L28.3562 669.295 L33.8944 669.295 Q30.6479 667.449 29.0883 664.489 Q27.4968 661.529 27.4968 657.296 Q27.4968 656.691 27.5923 655.959 Q27.656 655.227 27.8151 654.336 L33.8307 654.304 Z" fill="#000000" fill-rule="evenodd" fill-opacity="1" /><path clip-path="url(#clip840)" d="M33.7671 625.849 L14.479 625.849 L14.479 619.993 L64.0042 619.993 L64.0042 625.849 L58.657 625.849 Q61.8398 627.695 63.3994 630.528 Q64.9272 633.329 64.9272 637.276 Q64.9272 643.737 59.771 647.811 Q54.6147 651.853 46.212 651.853 Q37.8093 651.853 32.6531 647.811 Q27.4968 643.737 27.4968 637.276 Q27.4968 633.329 29.0564 630.528 Q30.5842 627.695 33.7671 625.849 M46.212 645.806 Q52.6732 645.806 56.3653 643.164 Q60.0256 640.49 60.0256 635.843 Q60.0256 631.196 56.3653 628.523 Q52.6732 625.849 46.212 625.849 Q39.7508 625.849 36.0905 628.523 Q32.3984 631.196 32.3984 635.843 Q32.3984 640.49 36.0905 643.164 Q39.7508 645.806 46.212 645.806 Z" fill="#000000" fill-rule="evenodd" fill-opacity="1" /><polyline clip-path="url(#clip842)" style="stroke:#009af9; stroke-linecap:round; stroke-linejoin:round; stroke-width:4; stroke-opacity:1; fill:none" points="
  292.4,1384.24 305.825,1371.67 319.25,1305.62 332.675,1248.99 346.1,1207.77 359.525,1163.78 372.951,1126.8 386.376,1047.27 399.801,1024.75 413.226,825.07 
  426.651,559.161 440.076,492.615 453.501,354.63 466.927,367.698 480.352,401.789 493.777,287.133 507.202,226.297 520.627,225.981 534.052,172.129 547.477,216.751 
  560.903,180.141 574.328,237.916 587.753,182.191 601.178,175.546 614.603,182.794 628.028,202.531 641.453,177.773 654.878,113.08 668.304,140.408 681.729,150.049 
  695.154,164.873 708.579,192.486 722.004,151.611 735.429,188.383 748.854,139.872 762.28,149.206 775.705,155.611 789.13,135.288 802.555,142.527 815.98,160.476 
  829.405,126.735 842.83,150.873 856.256,138.795 869.681,134.524 883.106,148.386 896.531,146.892 909.956,173.736 923.381,160.966 936.806,86.1857 950.232,137.832 
  963.657,176.292 977.082,163.521 990.507,151.408 1003.93,212.356 1017.36,125.31 1030.78,160.344 1044.21,113.015 1057.63,139.899 1071.06,132.59 1084.48,134.003 
  1097.91,146.43 1111.33,128.983 1124.76,123.496 1138.18,127.028 1151.61,134.506 1165.03,148.238 1178.46,152.387 1191.88,129.872 1205.31,155.307 1218.73,158.939 
  1232.16,134.153 1245.58,126.157 1259.01,136.296 1272.43,131.398 1285.86,122.358 1299.29,116.683 1312.71,116.762 1326.14,106.165 1339.56,126.578 1352.99,170.756 
  1366.41,169.538 1379.84,162.679 1393.26,176.959 1406.69,148.404 1420.11,112.012 1433.54,104.847 1446.96,150.245 1460.39,191.45 1473.81,192.739 1487.24,178.663 
  1500.66,150.568 1514.09,131.428 1527.51,125.044 1540.94,142.768 1554.36,134.522 1567.79,151.768 1581.21,175.191 1594.64,152.418 1608.06,195.053 1621.49,180.745 
  1634.91,135.508 1648.34,140.389 1661.76,134.251 1675.19,159.608 1688.61,171.028 1702.04,175.292 1715.46,160.389 1728.89,194.129 1742.31,144.225 1755.74,166.386 
  1769.17,187.591 1782.59,152.852 1796.02,186.357 1809.44,144.218 1822.87,148.498 1836.29,162.364 1849.72,152.437 1863.14,120.406 1876.57,138.722 1889.99,189.914 
  1903.42,153.627 1916.84,183.746 1930.27,196.449 1943.69,198.306 1957.12,131.401 1970.54,131.849 1983.97,148.705 1997.39,167.352 2010.82,159.729 2024.24,129.746 
  2037.67,149.826 2051.09,213.563 2064.52,208.108 2077.94,159.823 2091.37,244.542 2104.79,244.114 2118.22,200.524 2131.64,209.583 2145.07,186.706 2158.49,179.557 
  2171.92,189.747 2185.34,174.238 2198.77,209.024 2212.19,264.026 2225.62,202.354 2239.04,199.03 2252.47,199.544 2265.9,214.033 2279.32,163.618 2292.75,193.509 
  
  "/>
<path clip-path="url(#clip840)" d="
M1819.97 1377.32 L2282.08 1377.32 L2282.08 1273.64 L1819.97 1273.64  Z
  " fill="#ffffff" fill-rule="evenodd" fill-opacity="1"/>
<polyline clip-path="url(#clip840)" style="stroke:#000000; stroke-linecap:round; stroke-linejoin:round; stroke-width:4; stroke-opacity:1; fill:none" points="
  1819.97,1377.32 2282.08,1377.32 2282.08,1273.64 1819.97,1273.64 1819.97,1377.32 
  "/>
<polyline clip-path="url(#clip840)" style="stroke:#009af9; stroke-linecap:round; stroke-linejoin:round; stroke-width:4; stroke-opacity:1; fill:none" points="
  1843.53,1325.48 1984.89,1325.48 
  "/>
<path clip-path="url(#clip840)" d="M2026.88 1317.59 L2026.88 1321.62 Q2025.07 1320.7 2023.13 1320.23 Q2021.18 1319.77 2019.1 1319.77 Q2015.93 1319.77 2014.33 1320.74 Q2012.75 1321.71 2012.75 1323.66 Q2012.75 1325.14 2013.89 1326 Q2015.02 1326.83 2018.45 1327.59 L2019.91 1327.92 Q2024.44 1328.89 2026.34 1330.67 Q2028.26 1332.43 2028.26 1335.6 Q2028.26 1339.21 2025.39 1341.32 Q2022.55 1343.43 2017.55 1343.43 Q2015.46 1343.43 2013.19 1343.01 Q2010.95 1342.62 2008.45 1341.81 L2008.45 1337.41 Q2010.81 1338.63 2013.1 1339.26 Q2015.39 1339.86 2017.64 1339.86 Q2020.65 1339.86 2022.27 1338.84 Q2023.89 1337.8 2023.89 1335.93 Q2023.89 1334.19 2022.71 1333.26 Q2021.55 1332.34 2017.59 1331.48 L2016.11 1331.14 Q2012.15 1330.3 2010.39 1328.59 Q2008.63 1326.85 2008.63 1323.84 Q2008.63 1320.19 2011.23 1318.2 Q2013.82 1316.2 2018.59 1316.2 Q2020.95 1316.2 2023.03 1316.55 Q2025.12 1316.9 2026.88 1317.59 Z" fill="#000000" fill-rule="evenodd" fill-opacity="1" /><path clip-path="url(#clip840)" d="M2035.05 1306.74 L2039.31 1306.74 L2039.31 1342.76 L2035.05 1342.76 L2035.05 1306.74 Z" fill="#000000" fill-rule="evenodd" fill-opacity="1" /><path clip-path="url(#clip840)" d="M2058.26 1319.82 Q2054.84 1319.82 2052.85 1322.5 Q2050.86 1325.16 2050.86 1329.82 Q2050.86 1334.47 2052.82 1337.15 Q2054.81 1339.82 2058.26 1339.82 Q2061.67 1339.82 2063.66 1337.13 Q2065.65 1334.45 2065.65 1329.82 Q2065.65 1325.21 2063.66 1322.52 Q2061.67 1319.82 2058.26 1319.82 M2058.26 1316.2 Q2063.82 1316.2 2066.99 1319.82 Q2070.16 1323.43 2070.16 1329.82 Q2070.16 1336.18 2066.99 1339.82 Q2063.82 1343.43 2058.26 1343.43 Q2052.69 1343.43 2049.51 1339.82 Q2046.37 1336.18 2046.37 1329.82 Q2046.37 1323.43 2049.51 1319.82 Q2052.69 1316.2 2058.26 1316.2 Z" fill="#000000" fill-rule="evenodd" fill-opacity="1" /><path clip-path="url(#clip840)" d="M2074.75 1316.83 L2079 1316.83 L2084.33 1337.06 L2089.63 1316.83 L2094.65 1316.83 L2099.98 1337.06 L2105.28 1316.83 L2109.54 1316.83 L2102.75 1342.76 L2097.73 1342.76 L2092.15 1321.51 L2086.55 1342.76 L2081.53 1342.76 L2074.75 1316.83 Z" fill="#000000" fill-rule="evenodd" fill-opacity="1" /><path clip-path="url(#clip840)" d="M2151.25 1321.81 Q2152.85 1318.94 2155.07 1317.57 Q2157.29 1316.2 2160.3 1316.2 Q2164.35 1316.2 2166.55 1319.05 Q2168.75 1321.88 2168.75 1327.11 L2168.75 1342.76 L2164.47 1342.76 L2164.47 1327.25 Q2164.47 1323.52 2163.15 1321.71 Q2161.83 1319.91 2159.12 1319.91 Q2155.81 1319.91 2153.89 1322.11 Q2151.97 1324.31 2151.97 1328.1 L2151.97 1342.76 L2147.68 1342.76 L2147.68 1327.25 Q2147.68 1323.5 2146.37 1321.71 Q2145.05 1319.91 2142.29 1319.91 Q2139.03 1319.91 2137.11 1322.13 Q2135.18 1324.33 2135.18 1328.1 L2135.18 1342.76 L2130.9 1342.76 L2130.9 1316.83 L2135.18 1316.83 L2135.18 1320.86 Q2136.64 1318.47 2138.68 1317.34 Q2140.72 1316.2 2143.52 1316.2 Q2146.34 1316.2 2148.31 1317.64 Q2150.3 1319.07 2151.25 1321.81 Z" fill="#000000" fill-rule="evenodd" fill-opacity="1" /><path clip-path="url(#clip840)" d="M2187.29 1319.82 Q2183.87 1319.82 2181.87 1322.5 Q2179.88 1325.16 2179.88 1329.82 Q2179.88 1334.47 2181.85 1337.15 Q2183.84 1339.82 2187.29 1339.82 Q2190.69 1339.82 2192.68 1337.13 Q2194.68 1334.45 2194.68 1329.82 Q2194.68 1325.21 2192.68 1322.52 Q2190.69 1319.82 2187.29 1319.82 M2187.29 1316.2 Q2192.85 1316.2 2196.02 1319.82 Q2199.19 1323.43 2199.19 1329.82 Q2199.19 1336.18 2196.02 1339.82 Q2192.85 1343.43 2187.29 1343.43 Q2181.71 1343.43 2178.54 1339.82 Q2175.39 1336.18 2175.39 1329.82 Q2175.39 1323.43 2178.54 1319.82 Q2181.71 1316.2 2187.29 1316.2 Z" fill="#000000" fill-rule="evenodd" fill-opacity="1" /><path clip-path="url(#clip840)" d="M2223.31 1320.76 L2223.31 1306.74 L2227.57 1306.74 L2227.57 1342.76 L2223.31 1342.76 L2223.31 1338.87 Q2221.97 1341.18 2219.91 1342.32 Q2217.87 1343.43 2215 1343.43 Q2210.3 1343.43 2207.34 1339.68 Q2204.4 1335.93 2204.4 1329.82 Q2204.4 1323.7 2207.34 1319.95 Q2210.3 1316.2 2215 1316.2 Q2217.87 1316.2 2219.91 1317.34 Q2221.97 1318.45 2223.31 1320.76 M2208.8 1329.82 Q2208.8 1334.51 2210.72 1337.2 Q2212.66 1339.86 2216.04 1339.86 Q2219.42 1339.86 2221.36 1337.2 Q2223.31 1334.51 2223.31 1329.82 Q2223.31 1325.12 2221.36 1322.45 Q2219.42 1319.77 2216.04 1319.77 Q2212.66 1319.77 2210.72 1322.45 Q2208.8 1325.12 2208.8 1329.82 Z" fill="#000000" fill-rule="evenodd" fill-opacity="1" /><path clip-path="url(#clip840)" d="M2258.52 1328.73 L2258.52 1330.81 L2238.93 1330.81 Q2239.21 1335.21 2241.57 1337.52 Q2243.96 1339.82 2248.19 1339.82 Q2250.65 1339.82 2252.94 1339.21 Q2255.25 1338.61 2257.52 1337.41 L2257.52 1341.44 Q2255.23 1342.41 2252.82 1342.92 Q2250.42 1343.43 2247.94 1343.43 Q2241.74 1343.43 2238.1 1339.82 Q2234.49 1336.2 2234.49 1330.05 Q2234.49 1323.68 2237.92 1319.95 Q2241.36 1316.2 2247.2 1316.2 Q2252.43 1316.2 2255.46 1319.58 Q2258.52 1322.94 2258.52 1328.73 M2254.26 1327.48 Q2254.21 1323.98 2252.29 1321.9 Q2250.39 1319.82 2247.24 1319.82 Q2243.68 1319.82 2241.53 1321.83 Q2239.4 1323.84 2239.07 1327.5 L2254.26 1327.48 Z" fill="#000000" fill-rule="evenodd" fill-opacity="1" /></svg>
